<?xml version="1.0" encoding="UTF-8"?>
<svg version="1.1" xmlns="http://www.w3.org/2000/svg" width="1280" height="720">
<path d="M0 0 C0.69001022 -0.00226556 1.38002044 -0.00453111 2.09094006 -0.00686532 C4.40236432 -0.01319397 6.71372978 -0.01237669 9.02516174 -0.0115509 C10.68264339 -0.01454307 12.34012434 -0.01794574 13.99760437 -0.02172852 C18.49962949 -0.0305661 23.0016356 -0.03290651 27.50366855 -0.0335443 C31.26121632 -0.03449371 35.01875967 -0.03817232 38.77630574 -0.0417164 C47.64034726 -0.04985978 56.50437863 -0.05230071 65.36842346 -0.05158997 C74.51496756 -0.05098896 83.66145273 -0.06154563 92.80798191 -0.07733363 C100.65945858 -0.09040372 108.51091598 -0.0957741 116.36240345 -0.09513456 C121.05236798 -0.09487944 125.74228011 -0.09773804 130.43223381 -0.10831261 C134.84236393 -0.11798482 139.25239147 -0.1180788 143.66252518 -0.11079597 C145.28104998 -0.10974909 146.89958114 -0.11211916 148.51809502 -0.11815643 C150.72767915 -0.12586468 152.93690799 -0.12123948 155.14648438 -0.11352539 C156.38294425 -0.11407016 157.61940413 -0.11461493 158.89333248 -0.1151762 C162.19931998 0.13851543 164.31715042 0.38180853 167.13673401 2.13371277 C169.34081692 6.61442497 169.42147839 11.05668185 169.39070129 15.95880127 C169.39538127 17.11276112 169.39538127 17.11276112 169.40015578 18.29003328 C169.40810846 20.85787832 169.40182287 23.42548526 169.39552307 25.99333191 C169.39823412 27.83829893 169.4017957 29.68326487 169.40614319 31.52822876 C169.41525521 36.53220885 169.41172797 41.53610641 169.40538502 46.54008794 C169.40031967 51.77747014 169.40501789 57.0148453 169.40815735 62.25222778 C169.4117951 71.04615039 169.40700254 79.8400394 169.3974762 88.63395691 C169.38658864 98.80187644 169.39012019 108.96971579 169.40112901 119.13763338 C169.41020326 127.86812815 169.41148658 136.59859877 169.40625167 145.32909673 C169.40313317 150.54328472 169.40271943 155.757435 169.40932465 160.97162056 C169.41509958 165.87260635 169.41109846 170.77348867 169.39953613 175.67446327 C169.39689049 177.47359292 169.39765301 179.27273126 169.40206146 181.07185745 C169.40752202 183.52655872 169.40067666 185.98092784 169.39070129 188.43560791 C169.39739346 189.50486994 169.39739346 189.50486994 169.40422082 190.59573323 C169.373236 194.52347231 169.11522953 197.69676183 167.13673401 201.13371277 C163.79606434 203.6954576 160.27650795 203.38521959 156.19081116 203.38768005 C155.14248682 203.39236003 155.14248682 203.39236003 154.07298422 203.39713454 C151.73151811 203.40511084 149.39031142 203.39879242 147.04884338 203.39250183 C145.37003426 203.39521186 143.69122633 203.39877286 142.01242065 203.40312195 C137.45258741 203.41224682 132.89284457 203.40870128 128.33300972 203.40236378 C123.56360249 203.39730431 118.79420306 203.40199508 114.02479553 203.40513611 C106.01505644 203.4087759 98.00535422 203.40397629 89.99562073 203.39445496 C80.73203562 203.38357038 71.46853855 203.38709595 62.20495558 203.39810777 C54.25497671 203.40718025 46.30502436 203.40846611 38.35504198 203.40323043 C33.60531197 203.40011052 28.85562336 203.39970198 24.105896 203.40630341 C19.64076804 203.41207566 15.17575371 203.40808216 10.71063805 203.39651489 C9.0707334 203.39386767 7.43081921 203.39463447 5.79091835 203.39904022 C3.55470155 203.40449467 1.31885029 203.39766296 -0.91734314 203.38768005 C-2.1694735 203.386926 -3.42160385 203.38617195 -4.71167755 203.38539505 C-7.77327833 203.14089908 -9.43974686 202.99215381 -11.86326599 201.13371277 C-14.20392382 197.07074577 -14.14804928 192.9656155 -14.1239624 188.39764404 C-14.12778795 187.62581392 -14.1316135 186.85398379 -14.13555497 186.05876487 C-14.14586151 183.47633744 -14.14189731 180.89413331 -14.13792419 178.31169128 C-14.14227195 176.4586415 -14.14745532 174.60559352 -14.15341187 172.75254822 C-14.16680586 167.7215899 -14.16738011 162.69070669 -14.16484857 157.65973401 C-14.16377918 153.45983778 -14.16866137 149.25995676 -14.17345399 145.06006378 C-14.18455045 135.15222883 -14.18498572 125.24443179 -14.17893982 115.33659363 C-14.17289823 105.11472501 -14.18521545 94.89299398 -14.20650989 84.67114884 C-14.22412089 75.89479716 -14.23012806 67.11848929 -14.22687215 58.34212059 C-14.22505843 53.10047442 -14.22770435 47.8589264 -14.24158669 42.61729622 C-14.25415231 37.68837974 -14.25223288 32.75967791 -14.2391758 27.83076477 C-14.23680775 26.02237819 -14.23955285 24.21397656 -14.24779892 22.40560722 C-14.25824883 19.93574368 -14.25018014 17.46660271 -14.23748779 14.99676514 C-14.24486208 14.28226356 -14.25223636 13.56776198 -14.25983411 12.83160883 C-14.21015107 8.23165817 -13.4391506 4.96940672 -10.86326599 1.13371277 C-7.57732591 -0.48565745 -3.60506938 0.00488765 0 0 Z M67.13673401 7.13371277 C67.46673401 8.45371277 67.79673401 9.77371277 68.13673401 11.13371277 C69.12673401 10.80371277 70.11673401 10.47371277 71.13673401 10.13371277 C71.13673401 9.14371277 71.13673401 8.15371277 71.13673401 7.13371277 C69.81673401 7.13371277 68.49673401 7.13371277 67.13673401 7.13371277 Z M77.13673401 7.13371277 C77.13673401 8.12371277 77.13673401 9.11371277 77.13673401 10.13371277 C78.12673401 10.46371277 79.11673401 10.79371277 80.13673401 11.13371277 C80.79673401 10.80371277 81.45673401 10.47371277 82.13673401 10.13371277 C81.80673401 9.14371277 81.47673401 8.15371277 81.13673401 7.13371277 C79.81673401 7.13371277 78.49673401 7.13371277 77.13673401 7.13371277 Z M88.13673401 7.13371277 C88.46673401 8.45371277 88.79673401 9.77371277 89.13673401 11.13371277 C90.12673401 10.14371277 91.11673401 9.15371277 92.13673401 8.13371277 C90.81673401 7.80371277 89.49673401 7.47371277 88.13673401 7.13371277 Z M-2.86326599 19.13371277 C-4.38818597 22.18355273 -4.09889147 24.77604967 -3.86326599 28.13371277 C-2.25425268 30.81540162 -0.99289249 31.09426123 2.01173401 32.00871277 C5.8102247 32.1606524 7.2332483 31.5532842 10.13673401 29.13371277 C11.92024206 26.18704729 12.31323432 24.87501407 11.51173401 21.50871277 C9.98192797 18.86632051 8.79600113 17.61977381 6.13673401 16.13371277 C1.8428639 16.13371277 0.54806917 16.73655833 -2.86326599 19.13371277 Z M19.13673401 19.13371277 C19.46673401 20.45371277 19.79673401 21.77371277 20.13673401 23.13371277 C27.06673401 23.13371277 33.99673401 23.13371277 41.13673401 23.13371277 C41.46673401 21.81371277 41.79673401 20.49371277 42.13673401 19.13371277 C34.54673401 19.13371277 26.95673401 19.13371277 19.13673401 19.13371277 Z M20.13673401 27.13371277 C20.13673401 28.12371277 20.13673401 29.11371277 20.13673401 30.13371277 C30.69673401 30.13371277 41.25673401 30.13371277 52.13673401 30.13371277 C52.13673401 29.14371277 52.13673401 28.15371277 52.13673401 27.13371277 C41.57673401 27.13371277 31.01673401 27.13371277 20.13673401 27.13371277 Z M-3.86326599 39.13371277 C-3.86326599 82.69371277 -3.86326599 126.25371277 -3.86326599 171.13371277 C24.90528732 171.16282715 24.90528732 171.16282715 53.67384338 171.18254089 C65.39837581 171.18848431 77.12290106 171.19548717 88.84742737 171.20915222 C97.38472056 171.2190978 105.92200796 171.22556589 114.45930678 171.22780126 C118.98263329 171.22910859 123.50594323 171.23219579 128.02926445 171.23944283 C132.28171333 171.24620106 136.53413874 171.24833013 140.78659248 171.24682045 C142.35196688 171.24709687 143.91734202 171.24910316 145.48271179 171.25291824 C147.61061494 171.25785243 149.73842802 171.2567121 151.86633301 171.25396729 C153.65691588 171.25534997 153.65691588 171.25534997 155.48367214 171.2567606 C158.05918073 171.43579518 158.05918073 171.43579518 159.13673401 170.13371277 C159.23292842 168.43812574 159.2586106 166.73850437 159.25698853 165.04019165 C159.25836602 163.9388687 159.25974352 162.83754576 159.26116276 161.70284939 C159.25756465 160.47919202 159.25396654 159.25553465 159.2502594 157.99479675 C159.25037993 156.6961799 159.25050047 155.39756304 159.25062466 154.05959415 C159.25085114 150.53538967 159.24504023 147.0112189 159.23801422 143.4870224 C159.23233441 140.1843983 159.23205193 136.88177574 159.2313385 133.57914734 C159.22608367 123.90983132 159.21212262 114.24052162 159.19923401 104.57121277 C159.16829651 72.17965027 159.16829651 72.17965027 159.13673401 39.13371277 C105.34673401 39.13371277 51.55673401 39.13371277 -3.86326599 39.13371277 Z " fill="#4D4D4D" transform="translate(1017.8632659912109,409.8662872314453)"/>
<path d="M0 0 C4.84115252 0.33007858 7.52239343 1.62467597 11 5 C11 5.66 11 6.32 11 7 C11.515625 7.226875 12.03125 7.45375 12.5625 7.6875 C15.89547005 9.48217618 19.14703671 11.49965015 22 14 C22 14.66 22 15.32 22 16 C24.64738916 17.4606285 25.89448334 18 29 18 C31.0167658 16.35366057 33.01739574 14.68732277 35 13 C35.66 13 36.32 13 37 13 C37.33 12.01 37.66 11.02 38 10 C40.1796875 8.02734375 40.1796875 8.02734375 42.875 5.9375 C43.75929687 5.24527344 44.64359375 4.55304687 45.5546875 3.83984375 C50.7116498 -0.04023491 50.7116498 -0.04023491 53.6875 0.375 C54.450625 0.58125 55.21375 0.7875 56 1 C56.75 3.25 56.75 3.25 57 6 C55.1875 8.3125 55.1875 8.3125 53 10 C52.34 10 51.68 10 51 10 C51 10.66 51 11.32 51 12 C49.31886306 13.3337216 47.57804522 14.59271116 45.8125 15.8125 C41.80560633 18.65178794 38.30536089 21.38476152 35 25 C34.47792969 25.3815625 33.95585937 25.763125 33.41796875 26.15625 C31.2109908 29.02592932 31.4264501 32.20062705 31.3125 35.6875 C31.27833984 36.38939453 31.24417969 37.09128906 31.20898438 37.81445312 C31.12670053 39.54241387 31.0616676 41.27118072 31 43 C31.54527344 43.09925781 32.09054688 43.19851563 32.65234375 43.30078125 C35.60843376 44.18121405 37.92132917 45.59435701 40.5625 47.1875 C45.51816815 50.14149068 50.52730197 52.94005878 55.625 55.640625 C56.800625 56.31351563 56.800625 56.31351563 58 57 C58.69440186 57.34087646 59.38880371 57.68175293 60.10424805 58.03295898 C63.09593513 61.13714738 62.67008547 64.73914022 62.70703125 68.83203125 C62.72271652 69.70139816 62.73840179 70.57076508 62.75456238 71.46647644 C62.77919389 73.30639571 62.79276982 75.14649122 62.79614258 76.98657227 C62.81239397 79.79418151 62.89779632 82.59425284 62.98632812 85.40039062 C63.18802847 98.41050092 63.18802847 98.41050092 60.14111328 102.48706055 C57.80189319 104.06702572 55.65427718 105.06070037 53 106 C51.97390625 106.59167969 50.9478125 107.18335938 49.890625 107.79296875 C49.01921875 108.25316406 48.1478125 108.71335937 47.25 109.1875 C44.55687014 110.61674874 41.93457258 112.04152125 39.359375 113.67578125 C37 115 37 115 34 115 C34 115.66 34 116.32 34 117 C33.01 117.495 33.01 117.495 32 118 C31.96241577 118.85549438 31.96241577 118.85549438 31.92407227 119.72827148 C31.80843451 122.29826157 31.68556376 124.86785527 31.5625 127.4375 C31.52318359 128.33533203 31.48386719 129.23316406 31.44335938 130.15820312 C31.38051758 131.43920898 31.38051758 131.43920898 31.31640625 132.74609375 C31.26141968 133.93223267 31.26141968 133.93223267 31.20532227 135.14233398 C31 137 31 137 30 138 C27.5625 138.1875 27.5625 138.1875 25 138 C23 136 23 136 22.95092773 134.1875 C23.06609741 133.1046875 23.06609741 133.1046875 23.18359375 132 C23.98641008 123.0024151 23.98641008 123.0024151 20.37353516 115.15966797 C15.71379118 111.57653549 10.43348134 109.17419236 5 107 C3.49179688 106.38318359 3.49179688 106.38318359 1.953125 105.75390625 C1.30859375 105.50511719 0.6640625 105.25632812 0 105 C0 104.34 0 103.68 0 103 C-0.78375 102.87625 -1.5675 102.7525 -2.375 102.625 C-5 102 -5 102 -7 100 C-7.22459039 97.10599245 -7.32817248 94.31055622 -7.3359375 91.4140625 C-7.3425943 90.56073334 -7.3492511 89.70740417 -7.35610962 88.82821655 C-7.36624478 87.02091633 -7.37092637 85.21357861 -7.37060547 83.40625 C-7.37497219 80.64259964 -7.41126312 77.88055439 -7.44921875 75.1171875 C-7.45508806 73.36198463 -7.45905669 71.60677417 -7.4609375 69.8515625 C-7.47530853 69.02540436 -7.48967957 68.19924622 -7.50448608 67.34805298 C-7.45887309 61.61014791 -7.45887309 61.61014791 -5.18041992 58.58056641 C-2.21103216 56.42808445 0.8678463 54.5413946 4.0625 52.75 C4.68705078 52.38648438 5.31160156 52.02296875 5.95507812 51.6484375 C8.83908101 50.01098869 10.62995712 49 14 49 C14 48.34 14 47.68 14 47 C16.9826906 45.47551369 19.818202 44.06059933 23 43 C23.84812695 32.33200247 23.84812695 32.33200247 19.484375 23.16015625 C16.4932888 21.03137265 16.4932888 21.03137265 13.37109375 19.34765625 C12.58863281 18.90292969 11.80617187 18.45820312 11 18 C11 17.34 11 16.68 11 16 C10.43925781 15.74863281 9.87851563 15.49726562 9.30078125 15.23828125 C6.64218289 13.80742271 4.49353721 12.13589655 2.1875 10.1875 C1.37667969 9.52105469 0.56585938 8.85460937 -0.26953125 8.16796875 C-2 6 -2 6 -1.82421875 3.30078125 C-1 1 -1 1 0 0 Z M1 66 C1 75.57 1 85.14 1 95 C1.66 95 2.32 95 3 95 C3 85.43 3 75.86 3 66 C2.34 66 1.68 66 1 66 Z " fill="#343637" transform="translate(129,515)"/>
<path d="M0 0 C3.5955925 2.69235187 6.18421774 4.91202822 7.6171875 9.2109375 C9.21046875 9.10652344 9.21046875 9.10652344 10.8359375 9 C23.68680766 8.40606498 23.68680766 8.40606498 28.3671875 11.7734375 C32.57201694 15.7270935 35.43812522 19.74883117 35.8671875 25.6484375 C35.7846875 26.4940625 35.7021875 27.3396875 35.6171875 28.2109375 C37.1640625 28.118125 37.1640625 28.118125 38.7421875 28.0234375 C44.02048092 28.27883879 46.94666507 29.84814289 50.9921875 33.1484375 C53.57915683 38.02387969 53.4707849 42.81941202 52.6171875 48.2109375 C50.71031544 52.15281136 47.7015714 54.69913989 43.6171875 56.2109375 C40.8026339 56.41200163 38.08666861 56.50469536 35.27197266 56.50146484 C34.43246567 56.50818207 33.59295868 56.51489929 32.72801208 56.52182007 C29.9540311 56.54081072 27.18029193 56.5447248 24.40625 56.546875 C22.4757782 56.55330218 20.54530739 56.56003048 18.61483765 56.56704712 C14.56807192 56.57902255 10.52139157 56.58272767 6.47460938 56.58154297 C1.2938139 56.58133976 -3.88643311 56.60864232 -9.06709862 56.64308739 C-13.05458075 56.66534507 -17.04193065 56.66938086 -21.02946854 56.66832352 C-22.93921423 56.67068116 -24.84896347 56.6795139 -26.75864792 56.69498825 C-29.43242343 56.71462537 -32.10501323 56.70881938 -34.77880859 56.69677734 C-35.95729622 56.71363586 -35.95729622 56.71363586 -37.15959167 56.73083496 C-42.35122014 56.67153949 -45.22813936 55.5783245 -49.3828125 52.2109375 C-52.31379053 49.17461777 -52.81445066 47.02129259 -52.8203125 42.8359375 C-52.66090861 37.85456592 -51.96790294 34.88795334 -48.3828125 31.2109375 C-46.07109188 29.91399788 -43.90715202 29.08474733 -41.3828125 28.2109375 C-41.32673828 27.03337891 -41.32673828 27.03337891 -41.26953125 25.83203125 C-40.88129905 19.62792849 -40.27126292 14.73666874 -37.3828125 9.2109375 C-36.7228125 9.2109375 -36.0628125 9.2109375 -35.3828125 9.2109375 C-35.1559375 8.6540625 -34.9290625 8.0971875 -34.6953125 7.5234375 C-31.91585015 2.62628956 -28.2744971 -0.50236303 -22.88671875 -2.28125 C-15.2145127 -3.83723563 -6.86226773 -4.15270279 0 0 Z " fill="#4B4B4B" transform="translate(1095.3828125,482.7890625)"/>
<path d="M0 0 C5.28645213 -0.46761721 7.93026588 0.79276415 12.3125 3.6875 C17.43034959 7.03015453 22.62805061 10.08064319 28 13 C30.52216884 40.60319786 30.52216884 40.60319786 26.62304688 47.40039062 C23.03001079 50.94567872 18.77407252 52.62033563 14.04638672 54.19726562 C11.06344705 55.36738083 8.83536996 57.42700752 6.3125 59.375 C3.5 60.796875 3.5 60.796875 0 61 C-7.34836136 58.47717548 -15.18762557 54.18444478 -21 49 C-21.7668457 46.79833984 -21.7668457 46.79833984 -22 45 C-20.68 44.34 -19.36 43.68 -18 43 C-18.01683838 42.30438965 -18.03367676 41.6087793 -18.05102539 40.89208984 C-18.10151317 37.71849672 -18.08263431 34.54889874 -18.0625 31.375 C-18.09021484 30.28058594 -18.11792969 29.18617188 -18.14648438 28.05859375 C-18.02579504 20.09309743 -18.02579504 20.09309743 -15.12084961 16.99755859 C-12.81105974 15.44195139 -10.51523536 14.19021456 -8 13 C-6.98808594 12.41992188 -5.97617188 11.83984375 -4.93359375 11.2421875 C-3.24929789 10.31964673 -1.56170202 9.40310885 0.12890625 8.4921875 C0.74636719 7.99976563 1.36382812 7.50734375 2 7 C2 5.68 2 4.36 2 3 C1.34 2.67 0.68 2.34 0 2 C0 1.34 0 0.68 0 0 Z " fill="#39B5FC" transform="translate(156,566)"/>
<path d="M0 0 C5.66176471 2.98529412 5.66176471 2.98529412 7 7 C7.08106686 8.55421729 7.10756898 10.11167027 7.09765625 11.66796875 C7.09443359 12.56064453 7.09121094 13.45332031 7.08789062 14.37304688 C7.07951172 15.30181641 7.07113281 16.23058594 7.0625 17.1875 C7.05798828 18.12787109 7.05347656 19.06824219 7.04882812 20.03710938 C7.03704626 22.35813712 7.02059558 24.67903644 7 27 C7.89460938 26.89171875 8.78921875 26.7834375 9.7109375 26.671875 C13 27 13 27 15.4140625 29.265625 C16.14367187 30.25046875 16.87328125 31.2353125 17.625 32.25 C20.73460635 36.40034739 20.73460635 36.40034739 24.2734375 40.171875 C26 42 26 42 26 45 C26.99 45.33 27.98 45.66 29 46 C29 47.65 29 49.3 29 51 C30.051875 51.0825 31.10375 51.165 32.1875 51.25 C36.37315387 52.07340732 38.1312739 52.87815101 41 56 C42.43589744 61.12820513 42.43589744 61.12820513 41 64 C38.1875 64.1875 38.1875 64.1875 35 64 C34 63 33 62 32 61 C29.525 61.495 29.525 61.495 27 62 C26.67 68.27 26.34 74.54 26 81 C28.64 81 31.28 81 34 81 C34.66 79.68 35.32 78.36 36 77 C37.66611905 76.957279 39.33382885 76.95936168 41 77 C42 78 42 78 42.375 80.6875 C41.97365186 84.23274193 41.05443685 86.1744251 38.62109375 88.80078125 C35.64459408 91.00267378 32.61663488 91.18510336 29 91 C23.96489471 90.01272445 21.18799943 88.00777071 18 84 C16.04092184 75.41678879 15.6956083 65.26097925 19 57 C19.66 56.01 20.32 55.02 21 54 C21.66 54 22.32 54 23 54 C23 53.34 23 52.68 23 52 C22.34 52 21.68 52 21 52 C20.34 51.01 19.68 50.02 19 49 C18.34 50.32 17.68 51.64 17 53 C14.875 53.4375 14.875 53.4375 12 53 C10.24583979 51.3273289 8.80473715 49.55236118 7.33203125 47.62890625 C6.07775666 45.86833905 6.07775666 45.86833905 4 45 C3.375 41.9375 3.375 41.9375 3 39 C4.65 38.01 6.3 37.02 8 36 C7.01 35.01 6.02 34.02 5 33 C4.34 33.495 3.68 33.99 3 34.5 C-0.82747875 36.41373937 -3.79537264 36.63112054 -8 36 C-11.74382518 34.3360777 -13.82667542 32.44097025 -16 29 C-16.63540598 25.37707765 -16.5095338 21.73539784 -16.5 18.0625 C-16.52835938 17.07314453 -16.55671875 16.08378906 -16.5859375 15.06445312 C-16.60549973 7.79219548 -16.60549973 7.79219548 -13.65625 3.93359375 C-8.96534005 0.51888724 -5.83025818 -0.91304043 0 0 Z M-8 10 C-8.07319621 12.69654854 -8.09242537 15.36691458 -8.0625 18.0625 C-8.05798828 18.82111328 -8.05347656 19.57972656 -8.04882812 20.36132812 C-8.0370068 22.24091871 -8.01907078 24.12046899 -8 26 C-6.02 26.99 -6.02 26.99 -4 28 C-3.01 27.34 -2.02 26.68 -1 26 C-0.75150424 23.22808898 -0.67316591 20.70112612 -0.75 17.9375 C-0.75773438 16.81891602 -0.75773438 16.81891602 -0.765625 15.67773438 C-0.49561535 12.03885983 -0.49561535 12.03885983 -2 9 C-5.28894893 8.59371033 -5.28894893 8.59371033 -8 10 Z " fill="#333434" transform="translate(205,498)"/>
<path d="M0 0 C3.4609375 1.9140625 3.4609375 1.9140625 6 4 C6 4.66 6 5.32 6 6 C6.99 6.33 7.98 6.66 9 7 C11.96523019 12.27152033 12.9012778 16.99148131 12 23 C10.06141777 29.68140292 5.87719131 33.51230331 0 37 C-5.52457118 38.84152373 -10.91005661 38.8169855 -16.25 36.375 C-21.13142884 33.61339484 -24.00448988 30.22804646 -26.3125 25.0625 C-27.94383895 17.79562649 -26.94956057 12.24686944 -23 6 C-17.17880645 -1.30267982 -8.73754225 -1.46577506 0 0 Z M-11 14 C-11 16.97 -11 19.94 -11 23 C-7.13151386 21.88243734 -4.71077243 20.97126708 -2 18 C-3.31127261 17.3309224 -4.6240545 16.66480194 -5.9375 16 C-6.66839844 15.62875 -7.39929688 15.2575 -8.15234375 14.875 C-9.80990072 13.92866597 -9.80990072 13.92866597 -11 14 Z " fill="#333333" transform="translate(234,423)"/>
<path d="M0 0 C2.375 0.8125 2.375 0.8125 3.375 2.8125 C3.44565617 4.85305005 3.45921976 6.89584257 3.4375 8.9375 C3.42847656 10.03320312 3.41945312 11.12890625 3.41015625 12.2578125 C3.39855469 13.10085938 3.38695312 13.94390625 3.375 14.8125 C6.84 14.3175 6.84 14.3175 10.375 13.8125 C10.42398438 12.96945312 10.47296875 12.12640625 10.5234375 11.2578125 C10.59820312 10.16210938 10.67296875 9.06640625 10.75 7.9375 C10.81960937 6.84695313 10.88921875 5.75640625 10.9609375 4.6328125 C11.375 1.8125 11.375 1.8125 13.375 -0.1875 C16.67214793 0.14221479 17.9976839 0.4351839 20.375 2.8125 C20.61791992 5.92944336 20.61791992 5.92944336 20.60546875 9.90234375 C20.60478142 10.95283653 20.60478142 10.95283653 20.6040802 12.02455139 C20.60105786 13.50653781 20.59317207 14.98852104 20.58081055 16.47045898 C20.56259975 18.73758218 20.56030058 21.0042958 20.56054688 23.27148438 C20.52263617 34.36959148 20.52263617 34.36959148 19.375 37.8125 C17.04205225 37.85491723 14.70797433 37.85342937 12.375 37.8125 C11.375 36.8125 11.375 36.8125 11.27734375 33.65234375 C11.28894531 32.36457031 11.30054688 31.07679688 11.3125 29.75 C11.32152344 28.45964844 11.33054688 27.16929687 11.33984375 25.83984375 C11.35144531 24.84082031 11.36304688 23.84179688 11.375 22.8125 C8.735 22.8125 6.095 22.8125 3.375 22.8125 C3.38660156 23.72773437 3.39820313 24.64296875 3.41015625 25.5859375 C3.41917969 26.77445313 3.42820313 27.96296875 3.4375 29.1875 C3.44910156 30.37085938 3.46070313 31.55421875 3.47265625 32.7734375 C3.375 35.8125 3.375 35.8125 2.375 37.8125 C-0.5 38 -0.5 38 -3.625 37.8125 C-6.93279288 32.85081068 -5.95776765 26.89100234 -5.94067383 21.07910156 C-5.93751117 18.82047402 -5.96098804 16.56315336 -5.98632812 14.3046875 C-5.98860094 12.86979332 -5.9893047 11.43489562 -5.98828125 10 C-5.99126221 8.69417969 -5.99424316 7.38835938 -5.99731445 6.04296875 C-5.625 2.8125 -5.625 2.8125 -4.26635742 0.8515625 C-2.625 -0.1875 -2.625 -0.1875 0 0 Z " fill="#333333" transform="translate(165.625,652.1875)"/>
<path d="M0 0 C1.9375 0.8125 1.9375 0.8125 3.9375 2.8125 C4.1328125 5.6328125 4.1328125 5.6328125 4.0625 8.9375 C4.04445313 10.03320312 4.02640625 11.12890625 4.0078125 12.2578125 C3.98460937 13.10085938 3.96140625 13.94390625 3.9375 14.8125 C6.2475 14.8125 8.5575 14.8125 10.9375 14.8125 C11.2675 10.5225 11.5975 6.2325 11.9375 1.8125 C13.5875 1.1525 15.2375 0.4925 16.9375 -0.1875 C17.9275 0.4725 18.9175 1.1325 19.9375 1.8125 C20.2042616 4.57878915 20.28554189 7.11869631 20.23046875 9.8828125 C20.22622391 10.67904022 20.22197906 11.47526794 20.21760559 12.29562378 C20.20078834 14.84325729 20.16313179 17.39010489 20.125 19.9375 C20.10995705 21.66274901 20.09626796 23.38801039 20.08398438 25.11328125 C20.05087501 29.34665782 19.99907285 33.57944559 19.9375 37.8125 C17.625 38.4375 17.625 38.4375 14.9375 38.8125 C13.9475 38.1525 12.9575 37.4925 11.9375 36.8125 C11.64453125 33.7734375 11.64453125 33.7734375 11.75 30.1875 C11.77707031 28.99898437 11.80414063 27.81046875 11.83203125 26.5859375 C11.86683594 25.67070313 11.90164063 24.75546875 11.9375 23.8125 C7.9775 24.3075 7.9775 24.3075 3.9375 24.8125 C3.97230469 25.57175781 4.00710938 26.33101562 4.04296875 27.11328125 C4.07003906 28.10714844 4.09710938 29.10101562 4.125 30.125 C4.15980469 31.11113281 4.19460938 32.09726562 4.23046875 33.11328125 C3.9375 35.8125 3.9375 35.8125 2.58984375 37.68359375 C0.9375 38.8125 0.9375 38.8125 -1.6875 38.5625 C-4.0625 37.8125 -4.0625 37.8125 -5.0625 36.8125 C-5.18818214 34.32665964 -5.25112757 31.87008328 -5.265625 29.3828125 C-5.27132507 28.63667694 -5.27702515 27.89054138 -5.28289795 27.12179565 C-5.29236151 25.53970768 -5.2988873 23.95759988 -5.30273438 22.37548828 C-5.3124323 19.95440218 -5.34343823 17.5341676 -5.375 15.11328125 C-5.3815306 13.57813006 -5.38678085 12.04297277 -5.390625 10.5078125 C-5.4029718 9.78272491 -5.4153186 9.05763733 -5.42803955 8.31057739 C-5.40585465 3.30415976 -5.40585465 3.30415976 -3.67089844 0.81982422 C-2.0625 -0.1875 -2.0625 -0.1875 0 0 Z " fill="#333536" transform="translate(259.0625,550.1875)"/>
<path d="M0 0 C3.29753191 1.61878839 5.30488093 2.78592217 7.140625 5.9921875 C8.41929819 10.46754368 8.32850312 14.80619738 8.3125 19.4375 C8.32861328 20.36626953 8.34472656 21.29503906 8.36132812 22.25195312 C8.36510923 27.56441116 8.09742113 31.47622693 5 36 C2.03322432 38.95425764 -0.23728494 39.45363905 -4.375 39.5 C-8.18803267 39.40314489 -10.62280065 39.09946113 -13.625 36.6875 C-18.00791827 31.72788196 -17.21745866 26.48018112 -17.25 20.1875 C-17.270625 19.20201172 -17.29125 18.21652344 -17.3125 17.20117188 C-17.34199551 11.71131954 -17.15306459 7.7143647 -14 3 C-9.8681688 -0.64573341 -5.26181074 -0.83373762 0 0 Z M-8 9 C-9.63510979 12.27021959 -9.22628299 15.84733751 -9.25 19.4375 C-9.270625 20.21416016 -9.29125 20.99082031 -9.3125 21.79101562 C-9.48505936 26.11511534 -9.48505936 26.11511534 -7.47949219 29.74633789 C-6.74714355 30.36690063 -6.74714355 30.36690063 -6 31 C-2.75016865 29.91215032 -2.75016865 29.91215032 0 28 C0.10007008 25.17743509 0.13875598 22.3847681 0.125 19.5625 C0.12886719 18.77294922 0.13273437 17.98339844 0.13671875 17.16992188 C0.24132469 12.95129255 0.24132469 12.95129255 -1 9 C-3.9737344 7.90963072 -4.88407501 7.96135834 -8 9 Z " fill="#333333" transform="translate(145,651)"/>
<path d="M0 0 C3.0537418 1.59988136 5.50534983 3.53512485 6.64575195 6.91235352 C7.26770792 10.57765018 7.18452085 14.22845479 7.1875 17.9375 C7.19974609 18.73607422 7.21199219 19.53464844 7.22460938 20.35742188 C7.23858158 25.97890477 6.81305795 29.96717745 2.9375 34.3125 C-1.11836829 36.64246689 -4.42577081 36.67365921 -9 36 C-12.44402825 34.65233677 -13.64352978 33.56585322 -15.609375 30.4453125 C-17.34970029 26.13360772 -17.44327926 22.59747048 -17.375 18 C-17.38660156 17.21882812 -17.39820312 16.43765625 -17.41015625 15.6328125 C-17.38519139 10.68976939 -16.70120014 7.28782741 -14 3 C-9.91370209 -0.60555698 -5.21551006 -0.98993864 0 0 Z M-8 9 C-8 14.61 -8 20.22 -8 26 C-6.35 26.33 -4.7 26.66 -3 27 C-0.13663629 24.13663629 -0.69983813 22.04771654 -0.6875 18.0625 C-0.67074219 16.81597656 -0.65398437 15.56945312 -0.63671875 14.28515625 C-0.71380599 11.03847827 -0.71380599 11.03847827 -2.45703125 9.05859375 C-4.88876572 7.39023922 -4.89338137 7.96446046 -8 9 Z " fill="#343434" transform="translate(117,498)"/>
<path d="M0 0 C2.46084063 2.76844571 2.84064791 4.584902 3 8.25 C2.67 8.91 2.34 9.57 2 10.25 C-0.8125 10.4375 -0.8125 10.4375 -4 10.25 C-5 9.25 -6 8.25 -7 7.25 C-8.65 7.58 -10.3 7.91 -12 8.25 C-12.33 14.52 -12.66 20.79 -13 27.25 C-10.36 27.25 -7.72 27.25 -5 27.25 C-4.34 25.93 -3.68 24.61 -3 23.25 C-1.33388095 23.207279 0.33382885 23.20936168 2 23.25 C3 24.25 3 24.25 3.375 26.9375 C2.97365186 30.48274193 2.05443685 32.4244251 -0.37890625 35.05078125 C-3.35540592 37.25267378 -6.38336512 37.43510336 -10 37.25 C-15.03510529 36.26272445 -17.81200057 34.25777071 -21 30.25 C-22.95907816 21.66678879 -23.3043917 11.51097925 -20 3.25 C-19.34 2.26 -18.68 1.27 -18 0.25 C-17.34 0.25 -16.68 0.25 -16 0.25 C-16.33 -0.74 -16.66 -1.73 -17 -2.75 C-11.05134661 -4.66892045 -5.24912221 -3.06198796 0 0 Z " fill="#363737" transform="translate(244,551.75)"/>
<path d="M0 0 C4.67402147 2.2250365 8.2582551 5.61649169 11 10 C11.328125 12.2890625 11.328125 12.2890625 11.25 14.625 C11.23453125 15.40101563 11.2190625 16.17703125 11.203125 16.9765625 C11 19 11 19 10 21 C9.34 21 8.68 21 8 21 C7.67 21.99 7.34 22.98 7 24 C4.49899435 25.12037996 1.95703412 25.90868838 -0.65234375 26.7421875 C-3.23392306 27.83465679 -3.23392306 27.83465679 -4.31640625 30.6328125 C-4.65478516 31.80457031 -4.65478516 31.80457031 -5 33 C-6.62324086 33.22162329 -8.248721 33.42689803 -9.875 33.625 C-10.77992188 33.74101562 -11.68484375 33.85703125 -12.6171875 33.9765625 C-13.79667969 33.98816406 -13.79667969 33.98816406 -15 34 C-15.66 33.34 -16.32 32.68 -17 32 C-16.80228005 26.76042127 -15.83295079 23.62576426 -12 20 C-8.75 18.6875 -8.75 18.6875 -6 18 C-5.67 15.36 -5.34 12.72 -5 10 C-6.32 10.33 -7.64 10.66 -9 11 C-9 11.99 -9 12.98 -9 14 C-12.42943519 15.18771723 -14.37784675 14.80226223 -17.75 13.5625 C-18.54921875 13.27503906 -19.3484375 12.98757813 -20.171875 12.69140625 C-20.77515625 12.46324219 -21.3784375 12.23507812 -22 12 C-21.58424938 7.14957612 -19.58340022 5.15680495 -16 2 C-11.0874512 -1.27503254 -5.72904638 -0.78461556 0 0 Z M-11 5 C-9.906875 5.2475 -8.81375 5.495 -7.6875 5.75 C-4 7 -4 7 -2.0625 8.75 C-0.5517489 11.94923763 -0.22984188 13.49928128 -1 17 C-3.43172047 19.37543064 -6.13719394 21.1826929 -9 23 C-12.22404978 24.66954819 -12.22404978 24.66954819 -12.6875 27.625 C-12.790625 28.40875 -12.89375 29.1925 -13 30 C-12.34 30 -11.68 30 -11 30 C-10.62875 29.2575 -10.2575 28.515 -9.875 27.75 C-7.60736926 24.42414158 -5.55825939 23.54198224 -1.9375 21.9921875 C0.19519303 20.90004228 1.48670023 19.85413305 3 18 C3.83803133 14.51894678 4.12554614 11.78914717 3.5625 8.25 C1.19667246 4.84320835 -2.07491248 4.00580368 -6 3 C-8.32357511 2.81509993 -8.32357511 2.81509993 -11 5 Z " fill="#5A5A5A" transform="translate(929,417)"/>
<path d="M0 0 C-1.32 0.33 -2.64 0.66 -4 1 C-4 1.66 -4 2.32 -4 3 C-3.01 3.33 -2.02 3.66 -1 4 C-1.109375 6.2421875 -1.109375 6.2421875 -2 9 C-4.09381263 10.61471991 -5.96416094 11.85953549 -8.25 13.125 C-9.95929688 14.11886719 -9.95929688 14.11886719 -11.703125 15.1328125 C-13.65951978 16.24081808 -15.64220257 17.30704081 -17.6706543 18.27685547 C-20.23170769 19.78466201 -20.23170769 19.78466201 -20.59594727 22.49609375 C-20.58619873 23.46675781 -20.5764502 24.43742188 -20.56640625 25.4375 C-20.57736328 26.49710938 -20.58832031 27.55671875 -20.59960938 28.6484375 C-20.58736328 29.75445313 -20.57511719 30.86046875 -20.5625 32 C-20.5459285 34.18743762 -20.54644814 36.37509066 -20.56640625 38.5625 C-20.55552979 39.53316406 -20.54465332 40.50382813 -20.53344727 41.50390625 C-21 44 -21 44 -22.96459961 45.71484375 C-23.9721228 46.35099609 -23.9721228 46.35099609 -25 47 C-25.33 47.66 -25.66 48.32 -26 49 C-28.43212891 47.93383789 -28.43212891 47.93383789 -31 46 C-32.35792343 40.94163627 -32.31714009 35.65876691 -32.375 30.4375 C-32.38757843 29.70213013 -32.40015686 28.96676025 -32.41311646 28.20910645 C-32.47220502 16.25774554 -32.47220502 16.25774554 -29.42236328 11.58056641 C-25.54083493 8.0932184 -21.08956411 6.29308215 -16.15600586 4.75097656 C-13.96296818 3.98710113 -12.16630406 3.01926166 -10.1875 1.8125 C-6.4953428 -0.28696194 -4.17926229 -0.34116427 0 0 Z M-30 16 C-30 25.57 -30 35.14 -30 45 C-29.34 45 -28.68 45 -28 45 C-28 35.43 -28 25.86 -28 16 C-28.66 16 -29.32 16 -30 16 Z " fill="#34383B" transform="translate(160,565)"/>
<path d="M0 0 C4.95 0 9.9 0 15 0 C16.29758261 2.59516521 16.13269102 4.54183027 16.125 7.4375 C16.12886719 8.88962891 16.12886719 8.88962891 16.1328125 10.37109375 C15.98848328 13.22796336 15.48047825 15.26027089 13.9140625 17.671875 C10.9444637 19.73241294 7.85079197 19.3545351 4.375 19.25 C3.33472656 19.24226563 3.33472656 19.24226563 2.2734375 19.234375 C-2.84561012 19.15438988 -2.84561012 19.15438988 -4 18 C-4.07271741 15.64686445 -4.08370868 13.29166332 -4.0625 10.9375 C-4.05347656 9.64714844 -4.04445313 8.35679687 -4.03515625 7.02734375 C-4.02355469 6.02832031 -4.01195312 5.02929688 -4 4 C-3.01 3.67 -2.02 3.34 -1 3 C-0.67 2.01 -0.34 1.02 0 0 Z M2 4 C1.83946185 5.87321948 1.83946185 5.87321948 1.875 8 C1.87242188 8.721875 1.86984375 9.44375 1.8671875 10.1875 C1.80304724 12.02089415 1.80304724 12.02089415 3 13 C4.87321948 13.16053815 4.87321948 13.16053815 7 13.125 C7.721875 13.12757813 8.44375 13.13015625 9.1875 13.1328125 C11.02089415 13.19695276 11.02089415 13.19695276 12 12 C12.07179964 10.48071962 12.08392007 8.95832518 12.0625 7.4375 C12.05347656 6.61121094 12.04445313 5.78492188 12.03515625 4.93359375 C12.02355469 4.29550781 12.01195312 3.65742188 12 3 C10.52093108 2.97310784 9.04172517 2.95365379 7.5625 2.9375 C6.73878906 2.92589844 5.91507813 2.91429687 5.06640625 2.90234375 C3.00836062 2.76732652 3.00836062 2.76732652 2 4 Z " fill="#707070" transform="translate(1158,452)"/>
<path d="M0 0 C0.75 1.6875 0.75 1.6875 1 4 C-1.99991196 9.69983273 -8.31751762 12.47541622 -14 15 C-14.99 15 -15.98 15 -17 15 C-17 15.66 -17 16.32 -17 17 C-20.3125 18.125 -20.3125 18.125 -24 19 C-24.99 18.34 -25.98 17.68 -27 17 C-27.4375 14.5625 -27.4375 14.5625 -27 12 C-25.1875 10.1875 -25.1875 10.1875 -23 9 C-22.01 9 -21.02 9 -20 9 C-20 8.34 -20 7.68 -20 7 C-18.7934375 6.4121875 -18.7934375 6.4121875 -17.5625 5.8125 C-15.603043 4.81558328 -13.65423739 3.79072263 -11.7734375 2.65234375 C-10.61714844 1.95818359 -10.61714844 1.95818359 -9.4375 1.25 C-8.71433594 0.80140625 -7.99117187 0.3528125 -7.24609375 -0.109375 C-4.44565235 -1.2198109 -2.84961263 -0.82132947 0 0 Z " fill="#33383A" transform="translate(200,615)"/>
<path d="M0 0 C2.8125 1.5625 2.8125 1.5625 5 4 C5.96101954 7.91272241 6.27782434 10.16652698 5 14 C2.55355746 16.64215794 0.49132025 17.25545723 -3 17.4375 C-5.82685858 17.30037626 -6.98047465 17.01122708 -9.5 15.5625 C-11.66259019 11.8680751 -11.85563131 8.18565586 -11 4 C-7.80217931 0.08957303 -4.97721653 -0.48796241 0 0 Z M-6 5 C-6.33 5.66 -6.66 6.32 -7 7 C-6.34 7 -5.68 7 -5 7 C-5.33 6.34 -5.66 5.68 -6 5 Z M-1 5 C-0.34 5.66 0.32 6.32 1 7 C1 6.34 1 5.68 1 5 C0.34 5 -0.32 5 -1 5 Z M0 10 C-0.33 10.66 -0.66 11.32 -1 12 C-0.34 12 0.32 12 1 12 C0.67 11.34 0.34 10.68 0 10 Z " fill="#606161" transform="translate(311,433)"/>
<path d="M0 0 C-1.32 0.33 -2.64 0.66 -4 1 C-4 1.66 -4 2.32 -4 3 C-3.34 3.33 -2.68 3.66 -2 4 C-3.00546875 4.41121094 -4.0109375 4.82242188 -5.046875 5.24609375 C-8.94870336 6.91900757 -12.58658429 8.9255075 -16.25 11.0625 C-16.86101562 11.41376953 -17.47203125 11.76503906 -18.1015625 12.12695312 C-20.7919031 13.68065419 -23.41406157 15.27604105 -26 17 C-26.41737872 19.71483594 -26.41737872 19.71483594 -26.29296875 22.8828125 C-26.2784668 24.63271484 -26.2784668 24.63271484 -26.26367188 26.41796875 C-26.23853516 27.64128906 -26.21339844 28.86460937 -26.1875 30.125 C-26.17396484 31.35605469 -26.16042969 32.58710937 -26.14648438 33.85546875 C-26.11103543 36.90407843 -26.06162079 39.951825 -26 43 C-24.68 43.66 -23.36 44.32 -22 45 C-22.99 45.66 -23.98 46.32 -25 47 C-25.33 47.66 -25.66 48.32 -26 49 C-28.43212891 47.93383789 -28.43212891 47.93383789 -31 46 C-32.35792343 40.94163627 -32.31714009 35.65876691 -32.375 30.4375 C-32.38757843 29.70213013 -32.40015686 28.96676025 -32.41311646 28.20910645 C-32.47220502 16.25774554 -32.47220502 16.25774554 -29.42236328 11.58056641 C-25.54083493 8.0932184 -21.08956411 6.29308215 -16.15600586 4.75097656 C-13.96296818 3.98710113 -12.16630406 3.01926166 -10.1875 1.8125 C-6.4953428 -0.28696194 -4.17926229 -0.34116427 0 0 Z M-30 16 C-30 25.57 -30 35.14 -30 45 C-29.34 45 -28.68 45 -28 45 C-28 35.43 -28 25.86 -28 16 C-28.66 16 -29.32 16 -30 16 Z " fill="#064D8B" transform="translate(160,565)"/>
<path d="M0 0 C2.475 1.485 2.475 1.485 5 3 C4.84759391 5.66710654 4.50635081 7.4505871 2.66796875 9.4453125 C-1.50625 13 -1.50625 13 -4 13 C-4 13.66 -4 14.32 -4 15 C-6.09595521 17.04763347 -8.39870926 18.65635809 -11 20 C-13.9375 19.8125 -13.9375 19.8125 -16 19 C-16.8515625 16.8515625 -16.8515625 16.8515625 -17 14 C-15.16745331 11.82651439 -13.52216343 10.18000575 -11.375 8.375 C-10.84003906 7.89804687 -10.30507812 7.42109375 -9.75390625 6.9296875 C-6.68197071 4.23894104 -3.58684919 1.98676777 0 0 Z " fill="#313232" transform="translate(181,528)"/>
<path d="M0 0 C2.375 0.8125 2.375 0.8125 3.375 2.8125 C3.44565617 4.85305005 3.45921976 6.89584257 3.4375 8.9375 C3.42847656 10.03320312 3.41945312 11.12890625 3.41015625 12.2578125 C3.39855469 13.10085938 3.38695312 13.94390625 3.375 14.8125 C6.84 14.3175 6.84 14.3175 10.375 13.8125 C10.42398438 12.96945312 10.47296875 12.12640625 10.5234375 11.2578125 C10.59820312 10.16210938 10.67296875 9.06640625 10.75 7.9375 C10.81960937 6.84695313 10.88921875 5.75640625 10.9609375 4.6328125 C11.375 1.8125 11.375 1.8125 13.375 -0.1875 C15.9375 0.0625 15.9375 0.0625 18.375 0.8125 C18.705 1.4725 19.035 2.1325 19.375 2.8125 C16.405 2.3175 16.405 2.3175 13.375 1.8125 C13.38660156 2.81152344 13.39820313 3.81054688 13.41015625 4.83984375 C13.41917969 6.13019531 13.42820313 7.42054688 13.4375 8.75 C13.44910156 10.03777344 13.46070313 11.32554687 13.47265625 12.65234375 C13.375 15.8125 13.375 15.8125 12.375 16.8125 C8.7058423 16.95560287 5.04784559 16.85471662 1.375 16.8125 C1.375 11.8625 1.375 6.9125 1.375 1.8125 C0.055 2.1425 -1.265 2.4725 -2.625 2.8125 C-2.625 13.7025 -2.625 24.5925 -2.625 35.8125 C-1.635 35.8125 -0.645 35.8125 0.375 35.8125 C0.705 31.1925 1.035 26.5725 1.375 21.8125 C2.035 22.1425 2.695 22.4725 3.375 22.8125 C3.40193575 24.93743141 3.42136628 27.06245912 3.4375 29.1875 C3.44910156 30.37085938 3.46070313 31.55421875 3.47265625 32.7734375 C3.375 35.8125 3.375 35.8125 2.375 37.8125 C-0.5 38 -0.5 38 -3.625 37.8125 C-6.93279288 32.85081068 -5.95776765 26.89100234 -5.94067383 21.07910156 C-5.93751117 18.82047402 -5.96098804 16.56315336 -5.98632812 14.3046875 C-5.98860094 12.86979332 -5.9893047 11.43489562 -5.98828125 10 C-5.99126221 8.69417969 -5.99424316 7.38835938 -5.99731445 6.04296875 C-5.625 2.8125 -5.625 2.8125 -4.26635742 0.8515625 C-2.625 -0.1875 -2.625 -0.1875 0 0 Z " fill="#4A4E50" transform="translate(165.625,652.1875)"/>
<path d="M0 0 C1.65 0.33 3.3 0.66 5 1 C5.92673806 3.78021418 6.12855766 5.47233891 6.1328125 8.34375 C6.13474609 9.59478516 6.13474609 9.59478516 6.13671875 10.87109375 C6.13285156 11.73863281 6.12898437 12.60617187 6.125 13.5 C6.12886719 14.36753906 6.13273438 15.23507812 6.13671875 16.12890625 C6.13542969 16.96292969 6.13414062 17.79695312 6.1328125 18.65625 C6.13168457 19.41744141 6.13055664 20.17863281 6.12939453 20.96289062 C6 23 6 23 5 26 C3.125 26.875 3.125 26.875 1 27 C-1.07747805 25.42423449 -1.89780877 24.44988053 -2.47998047 21.88696289 C-2.62820717 19.27875324 -2.77154283 16.67294601 -2.875 14.0625 C-2.93429688 13.15564453 -2.99359375 12.24878906 -3.0546875 11.31445312 C-3.0959375 10.43853516 -3.1371875 9.56261719 -3.1796875 8.66015625 C-3.21819824 7.86230713 -3.25670898 7.06445801 -3.29638672 6.24243164 C-2.92700351 3.44771601 -1.82785319 2.09792464 0 0 Z " fill="#393F42" transform="translate(195,567)"/>
<path d="M0 0 C0.76183594 -0.01417969 1.52367187 -0.02835937 2.30859375 -0.04296875 C4.8357592 0.21544158 6.41675032 0.84345899 8.5625 2.1875 C9.98291821 5.02833641 9.87702272 7.04227278 9.5625 10.1875 C7.8125 12.375 7.8125 12.375 5.5625 14.1875 C4.923125 14.785625 4.28375 15.38375 3.625 16 C1.5625 17.1875 1.5625 17.1875 -0.8125 17.1875 C-4.46478865 15.79615194 -6.70931291 13.97769134 -9.4375 11.1875 C-10.5 8.125 -10.5 8.125 -10.4375 5.1875 C-7.96584915 0.61494593 -4.93839118 0.04163905 0 0 Z M-6.4375 5.1875 C-5.79523382 9.08459284 -5.79523382 9.08459284 -3.75 11.0625 C-1.35123152 12.53570538 -1.35123152 12.53570538 1.8125 11.375 C2.72 10.983125 3.6275 10.59125 4.5625 10.1875 C4.8925 8.5375 5.2225 6.8875 5.5625 5.1875 C1.6025 5.1875 -2.3575 5.1875 -6.4375 5.1875 Z " fill="#6A6A6A" transform="translate(146.4375,432.8125)"/>
<path d="M0 0 C4.67276384 2.23857989 8.25499201 5.61127466 11 10 C11.328125 12.2890625 11.328125 12.2890625 11.25 14.625 C11.23453125 15.40101563 11.2190625 16.17703125 11.203125 16.9765625 C11 19 11 19 10 21 C8.35 20.67 6.7 20.34 5 20 C5.495 18.906875 5.99 17.81375 6.5 16.6875 C8.18839906 13.20033755 8.18839906 13.20033755 8 10 C5.71943701 11.88374462 5.71943701 11.88374462 5.5625 14.9375 C4.97715689 18.12436804 4.48711091 19.05356538 2 21 C2 18 2 18 2.5625 14.625 C2.96636944 11.27865324 2.74648536 9.21818131 2 6 C-3.93049805 4.55615641 -8.93808723 3.51544993 -15 5 C-15.99 5.66 -16.98 6.32 -18 7 C-18 5.68 -18 4.36 -18 3 C-12.71227407 -1.30670071 -6.46865351 -0.97536995 0 0 Z " fill="#656565" transform="translate(929,417)"/>
<path d="M0 0 C1.7015625 0.2784375 1.7015625 0.2784375 3.4375 0.5625 C4.613125 0.706875 5.78875 0.85125 7 1 C7.33 0.67 7.66 0.34 8 0 C9.65 0 11.3 0 13 0 C13 4.29 13 8.58 13 13 C11.783125 12.814375 10.56625 12.62875 9.3125 12.4375 C5.97022061 12.01006818 3.28031583 12.07741117 0 13 C-1.0161692 8.37078475 -0.83796731 4.65537393 0 0 Z " fill="#3D3D3D" transform="translate(181,435)"/>
<path d="M0 0 C2.43315996 2.73730496 2.75412044 4.64376645 3 8.25 C2.34 8.25 1.68 8.25 1 8.25 C0.6596875 6.826875 0.6596875 6.826875 0.3125 5.375 C-0.69880396 2.18669511 -0.69880396 2.18669511 -3.0625 0.8125 C-7.11321665 0.03683085 -11.07560433 -0.14705678 -15 1.25 C-17.63378166 3.4524655 -18.8283904 5.21384446 -19.39331055 8.62475586 C-19.57599137 11.49019081 -19.59458731 14.31662918 -19.5625 17.1875 C-19.58634766 18.16396484 -19.61019531 19.14042969 -19.63476562 20.14648438 C-19.62559004 24.65781447 -19.56915374 28.21195692 -16.77734375 31.8984375 C-13.0393883 35.06334493 -11.08796628 35.06508065 -6.37890625 34.77734375 C-2.71598245 33.96536557 -1.12168535 32.26142437 1 29.25 C1.86119134 27.07653432 1.86119134 27.07653432 2 25.25 C1.34 24.92 0.68 24.59 0 24.25 C0.99 24.25 1.98 24.25 3 24.25 C3.48192632 28.29818111 3.13851755 30.0205803 1 33.5625 C-1.69723575 36.47368079 -4.10899348 37.1606369 -8.015625 37.3515625 C-12.56294021 37.11882589 -15.28191531 35.82446775 -18.8125 33 C-23.64774389 26.92140768 -22.35344374 17.66369804 -22 10.25 C-21.37443439 6.35472548 -20.21155897 3.56733846 -18 0.25 C-17.34 0.25 -16.68 0.25 -16 0.25 C-16.33 -0.74 -16.66 -1.73 -17 -2.75 C-11.05134661 -4.66892045 -5.24912221 -3.06198796 0 0 Z " fill="#43484C" transform="translate(244,551.75)"/>
<path d="M0 0 C5 0 5 0 8 2 C8.33 1.34 8.66 0.68 9 0 C10.32 0 11.64 0 13 0 C13 3.96 13 7.92 13 12 C11.68 12.33 10.36 12.66 9 13 C9 12.34 9 11.68 9 11 C8.2575 11.33 7.515 11.66 6.75 12 C4 13 4 13 0 13 C0 8.71 0 4.42 0 0 Z " fill="#4A4A4A" transform="translate(260,435)"/>
<path d="M0 0 C0.05391993 1.79133978 0.09275571 3.58313899 0.125 5.375 C0.14820313 6.37273437 0.17140625 7.37046875 0.1953125 8.3984375 C0 11 0 11 -2 13 C-8.09120521 14.43973941 -8.09120521 14.43973941 -10.9375 13.0625 C-12.64655995 9.74491303 -12.18175023 6.69558797 -12 3 C-11.34 3 -10.68 3 -10 3 C-10 2.34 -10 1.68 -10 1 C-6.78548731 -0.60725635 -3.56387464 -0.05748185 0 0 Z M-8 6 C-8 6.99 -8 7.98 -8 9 C-7.34 9 -6.68 9 -6 9 C-6 8.01 -6 7.02 -6 6 C-6.66 6 -7.32 6 -8 6 Z " fill="#575757" transform="translate(924,453)"/>
<path d="M0 0 C1.875 1.5 1.875 1.5 3 4 C3.23364755 6.72069588 3.13706692 9.25866151 3 12 C-4.2 12.36 -4.2 12.36 -7.5 10.875 C-9 9 -9 9 -9.4375 6 C-9 3 -9 3 -7.875 1.125 C-5.08893958 -0.54663625 -3.18011138 -0.46376624 0 0 Z " fill="#565656" transform="translate(1045,590)"/>
<path d="M0 0 C4.95 0 9.9 0 15 0 C16.29758261 2.59516521 16.13269102 4.54183027 16.125 7.4375 C16.12886719 8.88962891 16.12886719 8.88962891 16.1328125 10.37109375 C16 13 16 13 15 16 C14.01 16.33 13.02 16.66 12 17 C12 16.34 12 15.68 12 15 C8.7 15 5.4 15 2 15 C2 14.67 2 14.34 2 14 C5.63 14 9.26 14 13 14 C12.67 13.34 12.34 12.68 12 12 C11.86440682 8.99525503 11.95700984 6.00931153 12 3 C8.7 3.33 5.4 3.66 2 4 C1.67 7.3 1.34 10.6 1 14 C0.67 14 0.34 14 0 14 C0 11.03 0 8.06 0 5 C-0.66 5 -1.32 5 -2 5 C-1.34 3.35 -0.68 1.7 0 0 Z " fill="#656565" transform="translate(1158,452)"/>
<path d="M0 0 C0.89589844 -0.01417969 1.79179688 -0.02835938 2.71484375 -0.04296875 C5.0625 0.1875 5.0625 0.1875 7.0625 2.1875 C6.96084392 5.94877491 6.07170966 7.17739184 3.5 10 C2.695625 10.721875 1.89125 11.44375 1.0625 12.1875 C-1.80253068 10.9031759 -4.09177705 9.77151213 -5.9375 7.1875 C-6.1875 4.0625 -6.1875 4.0625 -5.9375 1.1875 C-4.27188601 -0.47811399 -2.27787295 0.01634055 0 0 Z " fill="#868686" transform="translate(1022.9375,589.8125)"/>
<path d="M0 0 C3.0625 1.5 3.0625 1.5 5 3 C4.67 3.99 4.34 4.98 4 6 C3.443125 5.51402344 2.88625 5.02804687 2.3125 4.52734375 C-1.5383788 1.98394238 -5.54206995 2.31758808 -10 3 C-13.09799981 5.19126816 -13.80352112 6.41056336 -15 10 C-15.25105336 13.09974821 -15.23122942 16.20362271 -15.25 19.3125 C-15.270625 20.15490234 -15.29125 20.99730469 -15.3125 21.86523438 C-15.34468277 27.01045499 -14.86390481 30.54269718 -12 35 C-8.65260696 37.63009453 -5.11837695 37.29416978 -1 37 C2.01441484 35.91146131 3.85545335 34.35900131 6 32 C5.63868282 34.61954957 5.24399043 35.77105008 3.2890625 37.60546875 C-0.84896681 40.12641835 -5.32512226 39.7363608 -10 39 C-13.67003939 37.14364286 -15.68093126 34.95720623 -17 31 C-17.25609828 27.40026706 -17.23134254 23.79538655 -17.25 20.1875 C-17.270625 19.20201172 -17.29125 18.21652344 -17.3125 17.20117188 C-17.34199551 11.71131954 -17.15306459 7.7143647 -14 3 C-9.86354753 -0.649811 -5.26758086 -0.74298609 0 0 Z " fill="#424447" transform="translate(145,651)"/>
<path d="M0 0 C-2.036994 1.29956591 -4.07907615 2.5896261 -6.125 3.875 C-6.69476563 4.23980469 -7.26453125 4.60460937 -7.8515625 4.98046875 C-11.6179722 7.33447481 -14.66950159 8.55650053 -19 10 C-19 22.21 -19 34.42 -19 47 C-19.66 47 -20.32 47 -21 47 C-21.09897181 41.94634708 -21.17151603 36.89325976 -21.21972656 31.83886719 C-21.23982628 30.12001721 -21.26711089 28.40123548 -21.30175781 26.68261719 C-21.35035034 24.21011511 -21.37298435 21.7385179 -21.390625 19.265625 C-21.41127014 18.49881409 -21.43191528 17.73200317 -21.45318604 16.94195557 C-21.45465028 13.45031153 -21.33364376 11.43757368 -19.18481445 8.61938477 C-16.2209233 6.42254825 -13.14073209 4.50698905 -9.9375 2.6875 C-9.00067383 2.1296582 -9.00067383 2.1296582 -8.04492188 1.56054688 C-3.36486337 -1.12162112 -3.36486337 -1.12162112 0 0 Z " fill="#3B464C" transform="translate(143,565)"/>
<path d="M0 0 C3.26237618 0.65695447 5.80098072 1.85873945 8.6875 3.5 C9.47511719 3.9434375 10.26273438 4.386875 11.07421875 4.84375 C13 6 13 6 14 7 C14.08868299 9.95705321 14.11520296 12.89065056 14.09765625 15.84765625 C14.0962413 16.7340831 14.09482635 17.62050995 14.09336853 18.53379822 C14.08775215 21.37673254 14.07519691 24.21958931 14.0625 27.0625 C14.05748711 28.98502491 14.05292384 30.90755104 14.04882812 32.83007812 C14.03777741 37.55341549 14.02050183 42.27669458 14 47 C13.34 47 12.68 47 12 47 C12.02731201 45.85523193 12.05462402 44.71046387 12.08276367 43.53100586 C12.16996698 39.26082289 12.18418897 34.99290489 12.17700195 30.72192383 C12.18395408 28.87799372 12.21038598 27.03402573 12.25708008 25.19067383 C12.93806132 14.41953492 12.93806132 14.41953492 8.47119141 5.22705078 C5.70045158 3.48873028 3.03725969 2.19201075 0 1 C0 0.67 0 0.34 0 0 Z " fill="#41484B" transform="translate(177,568)"/>
<path d="M0 0 C0.33 0.66 0.66 1.32 1 2 C0.67 2.66 0.34 3.32 0 4 C0.66 4.33 1.32 4.66 2 5 C1.01 5.495 1.01 5.495 0 6 C0 14.58 0 23.16 0 32 C1.32 32.66 2.64 33.32 4 34 C3.01 34.66 2.02 35.32 1 36 C0.67 36.66 0.34 37.32 0 38 C-2.45849609 36.94921875 -2.45849609 36.94921875 -5 35 C-5.64697266 31.76953125 -5.64697266 31.76953125 -5.6640625 27.8125 C-5.66884613 27.11358643 -5.67362976 26.41467285 -5.67855835 25.69458008 C-5.68195712 24.21856431 -5.67275561 22.74247326 -5.65185547 21.26660156 C-5.62508006 19.006757 -5.65159378 16.75187755 -5.68359375 14.4921875 C-5.68028964 13.0572807 -5.67388334 11.62237699 -5.6640625 10.1875 C-5.65842285 8.88167969 -5.6527832 7.57585938 -5.64697266 6.23046875 C-5 3 -5 3 -2.45849609 1.05078125 C-1.64719238 0.70402344 -0.83588867 0.35726562 0 0 Z M-4 5 C-4 14.57 -4 24.14 -4 34 C-3.34 34 -2.68 34 -2 34 C-2 24.43 -2 14.86 -2 5 C-2.66 5 -3.32 5 -4 5 Z " fill="#0E4C71" transform="translate(134,576)"/>
<path d="M0 0 C0.66 0.33 1.32 0.66 2 1 C4.09821215 0.60061233 4.09821215 0.60061233 6 0 C6.66 0.99 7.32 1.98 8 3 C10.58380177 3.25030977 10.58380177 3.25030977 13 3 C12.01 3.99 11.02 4.98 10 6 C9.01 5.67 8.02 5.34 7 5 C7 5.66 7 6.32 7 7 C7.99 7 8.98 7 10 7 C10 7.99 10 8.98 10 10 C6.57056481 11.18771723 4.62215325 10.80226223 1.25 9.5625 C0.45078125 9.27503906 -0.3484375 8.98757813 -1.171875 8.69140625 C-1.77515625 8.46324219 -2.3784375 8.23507812 -3 8 C-2.45276317 4.62537285 -1.9451 2.91765 0 0 Z " fill="#686868" transform="translate(910,421)"/>
<path d="M0 0 C0.66 0.66 1.32 1.32 2 2 C1.67771201 4.44938873 1.09060206 6.70101322 0.375 9.0625 C-0.06668277 11.34452764 0.3830519 12.78543257 1 15 C-0.60149886 15.67305018 -2.20631029 16.33822227 -3.8125 17 C-4.70582031 17.37125 -5.59914063 17.7425 -6.51953125 18.125 C-9 19 -9 19 -12 19 C-12 20.32 -12 21.64 -12 23 C-13.65 23.33 -15.3 23.66 -17 24 C-16.34 22.68 -15.68 21.36 -15 20 C-14.67 20.33 -14.34 20.66 -14 21 C-14 19.68 -14 18.36 -14 17 C-13.21625 16.9175 -12.4325 16.835 -11.625 16.75 C-8.85250896 16.27193661 -8.85250896 16.27193661 -7.6875 13.9375 C-7.3471875 12.9784375 -7.3471875 12.9784375 -7 12 C-6.01 12 -5.02 12 -4 12 C-2.19769832 8.17010894 -1.80377759 5.21878192 -2 1 C-1.34 0.67 -0.68 0.34 0 0 Z " fill="#494949" transform="translate(936,425)"/>
<path d="M0 0 C1.27746094 -0.01933594 2.55492187 -0.03867187 3.87109375 -0.05859375 C8.10366087 0.51022744 10.2979596 1.72798192 13.5625 4.4375 C13.5625 5.0975 13.5625 5.7575 13.5625 6.4375 C15.0475 6.9325 15.0475 6.9325 16.5625 7.4375 C17.0575 10.4075 17.0575 10.4075 17.5625 13.4375 C15.72652251 11.69332139 14.24410086 9.99832877 12.75 7.9375 C9.74337325 4.50135514 6.97575558 2.75377946 2.38671875 2.15234375 C-2.61575564 1.95897079 -6.26127481 2.46773986 -10.4375 5.4375 C-12.62410365 7.98602425 -14.56955035 10.6488234 -16.4375 13.4375 C-17.0703125 11.62890625 -17.0703125 11.62890625 -17.4375 9.4375 C-12.72519289 2.64623387 -8.46636136 0.00852604 0 0 Z " fill="#4A4A4A" transform="translate(226.4375,422.5625)"/>
<path d="M0 0 C3 1.5 3 1.5 5 3 C4.67 3.99 4.34 4.98 4 6 C3.525625 5.505 3.05125 5.01 2.5625 4.5 C-1.18198069 2.30810886 -4.75115862 2.5931128 -9 3 C-9.99 3.33 -10.98 3.66 -12 4 C-14.96101753 11.63630837 -14.17604345 19.94112192 -14 28 C-16.69081684 23.96377474 -16.40358999 20.86486541 -16.4375 16.125 C-16.47037109 15.32191406 -16.50324219 14.51882813 -16.53710938 13.69140625 C-16.57651654 9.3422886 -16.45061755 7.56722142 -13.66015625 4.0546875 C-9.00050942 0.4556064 -5.88068991 -0.78943114 0 0 Z " fill="#454647" transform="translate(205,498)"/>
<path d="M0 0 C0.33 0.66 0.66 1.32 1 2 C0.360625 2.2475 -0.27875 2.495 -0.9375 2.75 C-3.18276713 3.80647684 -3.18276713 3.80647684 -3.6875 6.0625 C-3.8421875 7.0215625 -3.8421875 7.0215625 -4 8 C-4.33 8.33 -4.66 8.66 -5 9 C-4.01 9 -3.02 9 -2 9 C-2 7.68 -2 6.36 -2 5 C-1.34 5.33 -0.68 5.66 0 6 C-0.66 7.65 -1.32 9.3 -2 11 C-5.3 11.33 -8.6 11.66 -12 12 C-12.33 10.68 -12.66 9.36 -13 8 C-11.5625 6.25 -11.5625 6.25 -10 5 C-9.01 6.485 -9.01 6.485 -8 8 C-7.79375 7.236875 -7.5875 6.47375 -7.375 5.6875 C-5.57929296 2.17770897 -3.56863688 1.47400219 0 0 Z " fill="#6B6B6B" transform="translate(926,439)"/>
<path d="M0 0 C1.23556641 0.01740234 1.23556641 0.01740234 2.49609375 0.03515625 C3.32238281 0.04417969 4.14867187 0.05320312 5 0.0625 C5.63808594 0.07410156 6.27617188 0.08570313 6.93359375 0.09765625 C7.26359375 1.08765625 7.59359375 2.07765625 7.93359375 3.09765625 C4.96359375 2.76765625 1.99359375 2.43765625 -1.06640625 2.09765625 C-1.06640625 4.73765625 -1.06640625 7.37765625 -1.06640625 10.09765625 C0.60421875 9.81921875 0.60421875 9.81921875 2.30859375 9.53515625 C5.93359375 9.09765625 5.93359375 9.09765625 7.93359375 10.09765625 C7.93359375 11.08765625 7.93359375 12.07765625 7.93359375 13.09765625 C6.32484375 12.81921875 6.32484375 12.81921875 4.68359375 12.53515625 C1.41412969 12.15371878 -0.05968603 12.1996314 -3.06640625 13.09765625 C-3.09327178 11.11856227 -3.11274 9.13936654 -3.12890625 7.16015625 C-3.14050781 6.05800781 -3.15210938 4.95585938 -3.1640625 3.8203125 C-3.03217531 0.14329751 -3.03217531 0.14329751 0 0 Z " fill="#5E5E5E" transform="translate(1170.06640625,588.90234375)"/>
<path d="M0 0 C0 4.29 0 8.58 0 13 C-1.216875 12.814375 -2.43375 12.62875 -3.6875 12.4375 C-7.02977939 12.01006818 -9.71968417 12.07741117 -13 13 C-13 12.34 -13 11.68 -13 11 C-12.01 11 -11.02 11 -10 11 C-10 10.01 -10 9.02 -10 8 C-5.25 9.875 -5.25 9.875 -3 11 C-2.67 8.03 -2.34 5.06 -2 2 C-3.98 2.33 -5.96 2.66 -8 3 C-5.28488343 -0.42962093 -4.93250871 0 0 0 Z " fill="#595959" transform="translate(194,435)"/>
<path d="M0 0 C0.66 1.32 1.32 2.64 2 4 C2.66 4 3.32 4 4 4 C4.33 5.32 4.66 6.64 5 8 C6.98 7.67 8.96 7.34 11 7 C11.66 4.69 12.32 2.38 13 0 C13.33 0 13.66 0 14 0 C14.33 2.64 14.66 5.28 15 8 C12.47374321 10.52625679 10.48536865 11.27493616 7 11.4375 C4.07244067 11.30617024 3.02247037 11.01370144 0.4375 9.4375 C-1.58093918 6.01492921 -0.87061285 3.77265569 0 0 Z " fill="#525252" transform="translate(301,439)"/>
<path d="M0 0 C1.65 0 3.3 0 5 0 C4.6875 3.375 4.6875 3.375 4 7 C1 9 1 9 -1.6875 8.625 C-2.450625 8.41875 -3.21375 8.2125 -4 8 C-4 7.01 -4 6.02 -4 5 C-4.99 5 -5.98 5 -7 5 C-7 3.68 -7 2.36 -7 1 C-2.25 0.875 -2.25 0.875 0 2 C0 1.34 0 0.68 0 0 Z M2 4 C1.67 4.66 1.34 5.32 1 6 C1.66 6 2.32 6 3 6 C2.67 5.34 2.34 4.68 2 4 Z " fill="#6C6C6C" transform="translate(309,439)"/>
<path d="M0 0 C-1.875 7.625 -1.875 7.625 -3 11 C-3.66 11 -4.32 11 -5 11 C-5.33 9.35 -5.66 7.7 -6 6 C-8.97 5.505 -8.97 5.505 -12 5 C-12 4.34 -12 3.68 -12 3 C-10.56445975 2.49440092 -9.1264798 1.9957251 -7.6875 1.5 C-6.88699219 1.2215625 -6.08648438 0.943125 -5.26171875 0.65625 C-3 0 -3 0 0 0 Z " fill="#D1D1D1" transform="translate(1066,590)"/>
<path d="M0 0 C6.31995277 0.59622196 6.31995277 0.59622196 9 2.1875 C10.55620073 5.00811383 9.81922998 6.97515086 9 10 C8.01 11.485 8.01 11.485 7 13 C6.34 13 5.68 13 5 13 C5.33 10.36 5.66 7.72 6 5 C3.69 5.33 1.38 5.66 -1 6 C-1 5.34 -1 4.68 -1 4 C0.65 3.67 2.3 3.34 4 3 C2.02 3 0.04 3 -2 3 C-1.34 2.01 -0.68 1.02 0 0 Z " fill="#5A5A5A" transform="translate(918,422)"/>
<path d="M0 0 C0.99 0.33 1.98 0.66 3 1 C2.34 1 1.68 1 1 1 C1 7.93 1 14.86 1 22 C2.98 22.33 4.96 22.66 7 23 C6.67 23.66 6.34 24.32 6 25 C2.29202465 24.49892225 0.34215359 23.96473 -2 21 C-2.37231445 19.0546875 -2.37231445 19.0546875 -2.36328125 16.875 C-2.36263672 16.08609375 -2.36199219 15.2971875 -2.36132812 14.484375 C-2.34521484 13.66453125 -2.32910156 12.8446875 -2.3125 12 C-2.31572266 11.18015625 -2.31894531 10.3603125 -2.32226562 9.515625 C-2.26731366 3.4009705 -2.26731366 3.4009705 0 0 Z " fill="#454647" transform="translate(136,659)"/>
<path d="M0 0 C0.66 0 1.32 0 2 0 C2.33 4.62 2.66 9.24 3 14 C3.99 14 4.98 14 6 14 C6.04898438 13.36191406 6.09796875 12.72382812 6.1484375 12.06640625 C6.22320312 11.24011719 6.29796875 10.41382813 6.375 9.5625 C6.44460937 8.73878906 6.51421875 7.91507813 6.5859375 7.06640625 C6.79089844 6.04353516 6.79089844 6.04353516 7 5 C7.66 4.67 8.32 4.34 9 4 C9.02712066 5.43739513 9.04645067 6.87493863 9.0625 8.3125 C9.07410156 9.11300781 9.08570313 9.91351562 9.09765625 10.73828125 C9 13 9 13 8 16 C5.66705225 16.04241723 3.33297433 16.04092937 1 16 C0 15 0 15 -0.09765625 11.62109375 C-0.09098369 10.22652923 -0.07902532 8.83198257 -0.0625 7.4375 C-0.05798828 6.72658203 -0.05347656 6.01566406 -0.04882812 5.28320312 C-0.03700864 3.52209987 -0.01907263 1.76103964 0 0 Z " fill="#4A4D4E" transform="translate(177,674)"/>
<path d="M0 0 C5.875 1.875 5.875 1.875 7 3 C7.66 2.01 8.32 1.02 9 0 C9 3.3 9 6.6 9 10 C8.67 8.68 8.34 7.36 8 6 C7.05125 6.495 6.1025 6.99 5.125 7.5 C2 9 2 9 0 9 C0 6.03 0 3.06 0 0 Z " fill="#333333" transform="translate(262,437)"/>
<path d="M0 0 C2.43315996 2.73730496 2.75412044 4.64376645 3 8.25 C2.34 8.25 1.68 8.25 1 8.25 C0.6596875 6.826875 0.6596875 6.826875 0.3125 5.375 C-0.66812747 2.14015207 -0.66812747 2.14015207 -3.1875 1.03125 C-6.47352134 0.11846629 -8.9313531 0.2534454 -12.3125 0.625 C-13.91544922 0.79128906 -13.91544922 0.79128906 -15.55078125 0.9609375 C-16.35902344 1.05632813 -17.16726562 1.15171875 -18 1.25 C-17.34 0.92 -16.68 0.59 -16 0.25 C-16.33 -0.74 -16.66 -1.73 -17 -2.75 C-11.05134661 -4.66892045 -5.24912221 -3.06198796 0 0 Z " fill="#505357" transform="translate(244,551.75)"/>
<path d="M0 0 C2.90802461 2.21928194 4.95312762 3.92969143 7 7 C7.23046875 9.19140625 7.23046875 9.19140625 7.1875 11.5625 C7.18105469 12.34753906 7.17460938 13.13257813 7.16796875 13.94140625 C7 16 7 16 6 18 C4.35 17.67 2.7 17.34 1 17 C1.495 15.906875 1.99 14.81375 2.5 13.6875 C4.18839906 10.20033755 4.18839906 10.20033755 4 7 C3.01 7.495 3.01 7.495 2 8 C1.34 5.36 0.68 2.72 0 0 Z " fill="#737373" transform="translate(933,420)"/>
<path d="M0 0 C1.485 0.99 1.485 0.99 3 2 C3.29296875 4.8203125 3.29296875 4.8203125 3.1875 8.125 C3.16042969 9.22070312 3.13335937 10.31640625 3.10546875 11.4453125 C3.07066406 12.28835938 3.03585937 13.13140625 3 14 C4.32 14.33 5.64 14.66 7 15 C6.67 15.33 6.34 15.66 6 16 C4.02 16 2.04 16 0 16 C0 10.72 0 5.44 0 0 Z " fill="#272828" transform="translate(260,551)"/>
<path d="M0 0 C4.95 0 9.9 0 15 0 C12.47519307 2.52480693 10.86176966 2.55738633 7.375 3.125 C6.37210938 3.29257812 5.36921875 3.46015625 4.3359375 3.6328125 C3.56507812 3.75398438 2.79421875 3.87515625 2 4 C1.67 7.3 1.34 10.6 1 14 C0.67 14 0.34 14 0 14 C0 11.03 0 8.06 0 5 C-0.66 5 -1.32 5 -2 5 C-1.34 3.35 -0.68 1.7 0 0 Z " fill="#555555" transform="translate(1158,452)"/>
<path d="M0 0 C2.5625 0.25 2.5625 0.25 5 1 C5.33 1.66 5.66 2.32 6 3 C3.03 2.505 3.03 2.505 0 2 C0.01160156 2.99902344 0.02320313 3.99804688 0.03515625 5.02734375 C0.04417969 6.31769531 0.05320313 7.60804688 0.0625 8.9375 C0.07410156 10.22527344 0.08570313 11.51304687 0.09765625 12.83984375 C0 16 0 16 -1 17 C-2.51928038 17.07179964 -4.04167482 17.08392007 -5.5625 17.0625 C-6.38878906 17.05347656 -7.21507812 17.04445313 -8.06640625 17.03515625 C-9.02353516 17.01775391 -9.02353516 17.01775391 -10 17 C-10 16.67 -10 16.34 -10 16 C-6.535 15.505 -6.535 15.505 -3 15 C-2.95101562 14.08476563 -2.90203125 13.16953125 -2.8515625 12.2265625 C-2.77679688 11.03804687 -2.70203125 9.84953125 -2.625 8.625 C-2.55539063 7.44164062 -2.48578125 6.25828125 -2.4140625 5.0390625 C-2 2 -2 2 0 0 Z " fill="#595D5F" transform="translate(179,652)"/>
<path d="M0 0 C5.4 -0.48 5.4 -0.48 7.875 1.5 C9.50517055 5.12260123 9.19772667 8.04546658 9 12 C1.8 12.36 1.8 12.36 -1.5 10.875 C-3.60705132 8.24118585 -3.29101222 6.27388743 -3 3 C-2.67 3 -2.34 3 -2 3 C-1.34 4.98 -0.68 6.96 0 9 C2.31 9.33 4.62 9.66 7 10 C6.67 7.69 6.34 5.38 6 3 C4.02 2.34 2.04 1.68 0 1 C0 0.67 0 0.34 0 0 Z " fill="#BFBFBF" transform="translate(1039,590)"/>
<path d="M0 0 C2.875 0.3125 2.875 0.3125 6 1 C8.45391569 4.68087353 8.22802759 7.44355588 8.125 11.6875 C8.11597656 12.38939453 8.10695313 13.09128906 8.09765625 13.81445312 C8.07413704 15.54311525 8.03826713 17.27160145 8 19 C6.68 19.33 5.36 19.66 4 20 C4.33 19.34 4.66 18.68 5 18 C5.07181821 15.28239892 5.09299506 12.59140612 5.0625 9.875 C5.05798828 9.12089844 5.05347656 8.36679687 5.04882812 7.58984375 C5.03703499 5.72652873 5.01909942 3.86325445 5 2 C3.02 2 1.04 2 -1 2 C-0.67 1.34 -0.34 0.68 0 0 Z " fill="#434344" transform="translate(110,505)"/>
<path d="M0 0 C0.33 0 0.66 0 1 0 C1.36697248 5.50458716 1.36697248 5.50458716 -0.25 7.6875 C-1.11625 8.3371875 -1.11625 8.3371875 -2 9 C-2.61875 9.5775 -3.2375 10.155 -3.875 10.75 C-6 12 -6 12 -8.75 11.6875 C-9.4925 11.460625 -10.235 11.23375 -11 11 C-8.02992087 6.65911512 -5.88289839 5.6276328 -1 4 C-0.03122943 1.96756452 -0.03122943 1.96756452 0 0 Z " fill="#616161" transform="translate(154,438)"/>
<path d="M0 0 C-2.5654594 2.5654594 -4.47686668 2.54046087 -8 3 C-6.69844994 7.07964281 -6.69844994 7.07964281 -5 11 C-6.65 10.67 -8.3 10.34 -10 10 C-11.34188034 4.63247863 -11.34188034 4.63247863 -9.75 1.6875 C-6.51501562 -1.43194922 -4.08855571 -0.99451355 0 0 Z " fill="#616161" transform="translate(147,434)"/>
<path d="M0 0 C0.66 0 1.32 0 2 0 C1.67 0.99 1.34 1.98 1 3 C1.99 3.66 2.98 4.32 4 5 C1.03 5.66 -1.94 6.32 -5 7 C-5 8.32 -5 9.64 -5 11 C-6.65 11.33 -8.3 11.66 -10 12 C-9.34 10.68 -8.68 9.36 -8 8 C-7.67 8.33 -7.34 8.66 -7 9 C-7 7.68 -7 6.36 -7 5 C-5.824375 4.87625 -5.824375 4.87625 -4.625 4.75 C-1.85250896 4.27193661 -1.85250896 4.27193661 -0.6875 1.9375 C-0.460625 1.298125 -0.23375 0.65875 0 0 Z " fill="#525252" transform="translate(929,437)"/>
<path d="M0 0 C-1.11190476 3.33571429 -1.46320673 3.58417079 -4.375 5.1875 C-4.98085937 5.53167969 -5.58671875 5.87585938 -6.2109375 6.23046875 C-8 7 -8 7 -11 7 C-10.67 5.35 -10.34 3.7 -10 2 C-3.375 0 -3.375 0 0 0 Z " fill="#1697E8" transform="translate(145,573)"/>
<path d="M0 0 C0.99 0.33 1.98 0.66 3 1 C4.66621616 1.03874921 6.33394172 1.0450286 8 1 C6.515 2.485 6.515 2.485 5 4 C4.01 3.67 3.02 3.34 2 3 C2 3.66 2 4.32 2 5 C2.99 5 3.98 5 5 5 C4.67 5.99 4.34 6.98 4 8 C1.69 7.67 -0.62 7.34 -3 7 C-2.34 6.01 -1.68 5.02 -1 4 C-1 3.01 -1 2.02 -1 1 C-0.67 0.67 -0.34 0.34 0 0 Z " fill="#363636" transform="translate(915,423)"/>
<path d="M0 0 C0.763125 0.20625 1.52625 0.4125 2.3125 0.625 C1.9825 1.285 1.6525 1.945 1.3125 2.625 C-0.0075 2.625 -1.3275 2.625 -2.6875 2.625 C-5.47828732 4.56602206 -5.47828732 4.56602206 -8.25 7.0625 C-13.40275424 11.53008475 -13.40275424 11.53008475 -16.6875 12.625 C-15.44429238 8.89537715 -13.8919877 7.95021873 -10.8125 5.5625 C-9.48605469 4.52416016 -9.48605469 4.52416016 -8.1328125 3.46484375 C-2.9758502 -0.41523491 -2.9758502 -0.41523491 0 0 Z " fill="#444546" transform="translate(182.6875,515.375)"/>
<path d="M0 0 C-0.99 1.485 -0.99 1.485 -2 3 C-2.99 3 -3.98 3 -5 3 C-5 4.65 -5 6.3 -5 8 C-6.32 8 -7.64 8 -9 8 C-9 6.02 -9 4.04 -9 2 C-5.86501708 0.14223235 -3.62528568 -0.20140476 0 0 Z " fill="#6D6D6D" transform="translate(921,456)"/>
<path d="M0 0 C1.485 0.99 1.485 0.99 3 2 C3.29296875 4.6015625 3.29296875 4.6015625 3.1875 7.625 C3.16042969 8.62789062 3.13335937 9.63078125 3.10546875 10.6640625 C3.07066406 11.43492187 3.03585937 12.20578125 3 13 C1.68 13.33 0.36 13.66 -1 14 C-0.67 9.38 -0.34 4.76 0 0 Z " fill="#28292A" transform="translate(260,573)"/>
<path d="M0 0 C1.97848472 1.84910152 3.39119162 3.79363422 5 6 C4.67 6.66 4.34 7.32 4 8 C2.62437146 6.71034824 1.29233607 5.37310707 0 4 C0 3.34 0 2.68 0 2 C-1.65 2 -3.3 2 -5 2 C-5.33 2.99 -5.66 3.98 -6 5 C-6.99 5 -7.98 5 -9 5 C-8.6875 3.0625 -8.6875 3.0625 -8 1 C-4.87910113 -0.04029962 -3.23374059 -0.53895677 0 0 Z " fill="#414646" transform="translate(218,525)"/>
<path d="M0 0 C3.71599191 -0.20086443 4.77208445 -0.1519437 8 2 C8.33 1.34 8.66 0.68 9 0 C10.32 0 11.64 0 13 0 C13 0.99 13 1.98 13 3 C12.34 3 11.68 3 11 3 C10.01 4.485 10.01 4.485 9 6 C7.88625 5.2575 7.88625 5.2575 6.75 4.5 C3.93681812 2.68076525 3.93681812 2.68076525 0 3 C0 2.01 0 1.02 0 0 Z " fill="#555555" transform="translate(260,435)"/>
<path d="M0 0 C0.66 0.33 1.32 0.66 2 1 C1.29423828 1.70382812 1.29423828 1.70382812 0.57421875 2.421875 C-1.72912482 6.1941002 -1.81752822 9.90537729 -2.1875 14.25 C-2.26935547 15.09046875 -2.35121094 15.9309375 -2.43554688 16.796875 C-2.63516482 18.86350783 -2.81912511 20.93164248 -3 23 C-3.33 23 -3.66 23 -4 23 C-4.37908497 7.81554103 -4.37908497 7.81554103 -2 2 C-1.34 1.34 -0.68 0.68 0 0 Z " fill="#3E4041" transform="translate(226,553)"/>
<path d="M0 0 C3.0625 2.5 3.0625 2.5 5 5 C4.29488281 4.67257812 3.58976562 4.34515625 2.86328125 4.0078125 C-0.23867167 2.91599278 -2.54006053 2.79614604 -5.8125 2.875 C-6.78832031 2.89304687 -7.76414062 2.91109375 -8.76953125 2.9296875 C-9.50558594 2.95289063 -10.24164063 2.97609375 -11 3 C-11 2.34 -11 1.68 -11 1 C-7.5321507 -0.73392465 -3.78231256 -0.61299548 0 0 Z " fill="#454748" transform="translate(117,498)"/>
<path d="M0 0 C1.0828125 0.4640625 1.0828125 0.4640625 2.1875 0.9375 C4.80307309 1.92560539 7.25118982 2.5287754 10 3 C10 3.66 10 4.32 10 5 C8.783125 4.814375 7.56625 4.62875 6.3125 4.4375 C2.97022061 4.01006818 0.28031583 4.07741117 -3 5 C-3 4.34 -3 3.68 -3 3 C-2.01 3 -1.02 3 0 3 C0 2.01 0 1.02 0 0 Z " fill="#4E4E4E" transform="translate(184,443)"/>
<path d="M0 0 C0.66 0.33 1.32 0.66 2 1 C1.01 2.485 1.01 2.485 0 4 C0 4.99 0 5.98 0 7 C-1 9.1875 -1 9.1875 -2 11 C-2.66 11 -3.32 11 -4 11 C-3.56179109 6.44262737 -3.14958831 3.42346555 0 0 Z " fill="#5C5C5C" transform="translate(916,438)"/>
<path d="M0 0 C0.66 0.33 1.32 0.66 2 1 C2 1.99 2 2.98 2 4 C2.66 4 3.32 4 4 4 C4 4.66 4 5.32 4 6 C6.31 6 8.62 6 11 6 C10.67 6.66 10.34 7.32 10 8 C6.7 7.34 3.4 6.68 0 6 C-1 2 -1 2 0 0 Z " fill="#545454" transform="translate(908,424)"/>
<path d="M0 0 C0.99773437 0.02320313 1.99546875 0.04640625 3.0234375 0.0703125 C4.52777344 0.09738281 4.52777344 0.09738281 6.0625 0.125 C6.83335938 0.14820313 7.60421875 0.17140625 8.3984375 0.1953125 C8.0684375 1.5153125 7.7384375 2.8353125 7.3984375 4.1953125 C7.0684375 3.8653125 6.7384375 3.5353125 6.3984375 3.1953125 C4.54951804 2.96167369 2.69355719 2.78227615 0.8359375 2.6328125 C-0.17597656 2.54902344 -1.18789062 2.46523438 -2.23046875 2.37890625 C-3.40416016 2.28802734 -3.40416016 2.28802734 -4.6015625 2.1953125 C-2.6015625 0.1953125 -2.6015625 0.1953125 0 0 Z " fill="#7C7C7C" transform="translate(1161.6015625,466.8046875)"/>
<path d="M0 0 C0.928125 0.2784375 0.928125 0.2784375 1.875 0.5625 C4.04160178 1.23686176 4.04160178 1.23686176 6 0 C5.67 2.64 5.34 5.28 5 8 C4.34 8 3.68 8 3 8 C2.67 6.35 2.34 4.7 2 3 C1.34 3 0.68 3 0 3 C0 2.01 0 1.02 0 0 Z " fill="#A1A1A1" transform="translate(1058,593)"/>
<path d="M0 0 C4.31343181 -0.25373128 7.93801182 -0.42037032 12 1.1875 C14.42509628 3.3852435 14.7395304 4.78754157 15 8 C14.5875 7.57847656 14.175 7.15695312 13.75 6.72265625 C9.20182339 2.40797978 6.26097416 1.2196833 0 1 C0 0.67 0 0.34 0 0 Z " fill="#5B5B5B" transform="translate(1131,512)"/>
<path d="M0 0 C-0.928125 0.598125 -1.85625 1.19625 -2.8125 1.8125 C-5.20254718 3.45272845 -7.08470253 4.8718917 -9 7 C-9 4 -9 4 -8 1 C-5.04059045 -1.0409721 -3.36242374 -1.20086562 0 0 Z " fill="#4C4C4C" transform="translate(925,436)"/>
<path d="M0 0 C0.33 0 0.66 0 1 0 C1.06058594 0.62648438 1.12117188 1.25296875 1.18359375 1.8984375 C1.26738281 2.71570313 1.35117187 3.53296875 1.4375 4.375 C1.51871094 5.18710937 1.59992188 5.99921875 1.68359375 6.8359375 C1.89090114 9.04272805 1.89090114 9.04272805 3 11 C1.68 11 0.36 11 -1 11 C-1.02688151 9.35425434 -1.04634123 7.70838587 -1.0625 6.0625 C-1.07410156 5.14597656 -1.08570313 4.22945313 -1.09765625 3.28515625 C-1 1 -1 1 0 0 Z " fill="#404040" transform="translate(261,437)"/>
<path d="M0 0 C0.99 0 1.98 0 3 0 C4.35439668 2.70879335 4.06501451 5.00933268 4 8 C2.66666667 8 1.33333333 8 0 8 C0 5.36 0 2.72 0 0 Z " fill="#6E6E6E" transform="translate(152,435)"/>
<path d="M0 0 C0.33 0 0.66 0 1 0 C1.33 4.62 1.66 9.24 2 14 C0.68 14.33 -0.64 14.66 -2 15 C-1.67 14.34 -1.34 13.68 -1 13 C-0.77049681 10.795636 -0.58924067 8.58607827 -0.4375 6.375 C-0.35371094 5.18648437 -0.26992187 3.99796875 -0.18359375 2.7734375 C-0.12300781 1.85820312 -0.06242187 0.94296875 0 0 Z " fill="#3B3C3C" transform="translate(116,510)"/>
<path d="M0 0 C0.99 0.33 1.98 0.66 3 1 C1.8553125 1.804375 1.8553125 1.804375 0.6875 2.625 C-2.22864474 5.20205814 -3.4705622 7.45814404 -5 11 C-5.75 9.375 -5.75 9.375 -6 7 C-2.82191781 1.4109589 -2.82191781 1.4109589 0 0 Z " fill="#555555" transform="translate(1049,513)"/>
<path d="M0 0 C0.66 0 1.32 0 2 0 C3.01911045 3.89114901 3.16782969 5.60596507 1.5625 9.375 C1.046875 10.24125 0.53125 11.1075 0 12 C-0.66 11.34 -1.32 10.68 -2 10 C-1.67 9.46375 -1.34 8.9275 -1 8.375 C0.22699204 5.4608939 0.14233286 3.13132292 0 0 Z " fill="#6F6F6F" transform="translate(932,426)"/>
<path d="M0 0 C0.99 0.33 1.98 0.66 3 1 C3 1.66 3 2.32 3 3 C3.99 3.33 4.98 3.66 6 4 C6.33 5.98 6.66 7.96 7 10 C4.39841136 7.5284908 2.14130392 4.87968458 0 2 C0 1.34 0 0.68 0 0 Z " fill="#454545" transform="translate(237,426)"/>
<path d="M0 0 C4.31392226 0.4793247 6.16569547 1.7457985 9 5 C8.67 5.66 8.34 6.32 8 7 C7.01 6.67 6.02 6.34 5 6 C5 5.34 5 4.68 5 4 C4.34 3.67 3.68 3.34 3 3 C1.9805881 2.01979625 0.97753644 1.02196992 0 0 Z " fill="#454545" transform="translate(926,419)"/>
<path d="M0 0 C-1.4638611 4.39158329 -3.97831338 4.87947433 -8 7 C-8 5.68 -8 4.36 -8 3 C-5.12645755 0.82542733 -3.63563409 0 0 0 Z " fill="#4F4F4F" transform="translate(919,417)"/>
<path d="M0 0 C2.97 0 5.94 0 9 0 C9.33 0.99 9.66 1.98 10 3 C6.7 2.67 3.4 2.34 0 2 C0 1.34 0 0.68 0 0 Z " fill="#757575" transform="translate(1168,589)"/>
<path d="M0 0 C2.31 0 4.62 0 7 0 C5.68 0.33 4.36 0.66 3 1 C3 1.66 3 2.32 3 3 C3.66 3.33 4.32 3.66 5 4 C3.35 4.33 1.7 4.66 0 5 C0 3.35 0 1.7 0 0 Z " fill="#0D75C0" transform="translate(153,565)"/>
<path d="M0 0 C2.97 0.33 5.94 0.66 9 1 C7 3 7 3 4.625 3.0625 C3.75875 3.041875 2.8925 3.02125 2 3 C0.65667272 3.29044914 -0.68225804 3.60955794 -2 4 C-2 3.34 -2 2.68 -2 2 C-1.34 2 -0.68 2 0 2 C0 1.34 0 0.68 0 0 Z " fill="#515151" transform="translate(914,454)"/>
<path d="M0 0 C1.98 0 3.96 0 6 0 C6.33 1.32 6.66 2.64 7 4 C4.36 3.34 1.72 2.68 -1 2 C-0.67 1.34 -0.34 0.68 0 0 Z " fill="#828282" transform="translate(1171,598)"/>
<path d="M0 0 C0.99 0.33 1.98 0.66 3 1 C0.42215154 3.64752004 -1.91648098 5.94432065 -5 8 C-3.62845496 5.04590299 -2.01136276 2.55991624 0 0 Z " fill="#282929" transform="translate(165,535)"/>
<path d="M0 0 C0.66 0 1.32 0 2 0 C1.01 3.3 0.02 6.6 -1 10 C-1.66 9.01 -2.32 8.02 -3 7 C-1.625 3.3125 -1.625 3.3125 0 0 Z " fill="#565656" transform="translate(1058,492)"/>
<path d="M0 0 C0.66 0 1.32 0 2 0 C2.33 1.32 2.66 2.64 3 4 C2.34 4 1.68 4 1 4 C1 5.32 1 6.64 1 8 C0.01 8 -0.98 8 -2 8 C-1.34 5.36 -0.68 2.72 0 0 Z " fill="#424242" transform="translate(182,437)"/>
<path d="M0 0 C1 3 1 3 -0.3125 5.6875 C-0.869375 6.450625 -1.42625 7.21375 -2 8 C-2.66 8 -3.32 8 -4 8 C-3.67 5.69 -3.34 3.38 -3 1 C-2.01 0.67 -1.02 0.34 0 0 Z " fill="#6F6F6F" transform="translate(927,427)"/>
<path d="M0 0 C0.33 0.99 0.66 1.98 1 3 C1.66 3.33 2.32 3.66 3 4 C0 6 0 6 -3 6 C-2.625 3.5625 -2.625 3.5625 -2 1 C-1.34 0.67 -0.68 0.34 0 0 Z " fill="#1576B8" transform="translate(137,574)"/>
<path d="M0 0 C0.66 0 1.32 0 2 0 C2 2.31 2 4.62 2 7 C0.68 7 -0.64 7 -2 7 C-2 6.34 -2 5.68 -2 5 C-1.34 5 -0.68 5 0 5 C0 3.35 0 1.7 0 0 Z " fill="#646464" transform="translate(918,457)"/>
<path d="M0 0 C1.2065625 0.0309375 1.2065625 0.0309375 2.4375 0.0625 C1.4475 1.5475 1.4475 1.5475 0.4375 3.0625 C-0.5525 3.0625 -1.5425 3.0625 -2.5625 3.0625 C-2.5625 4.7125 -2.5625 6.3625 -2.5625 8.0625 C-2.8925 8.0625 -3.2225 8.0625 -3.5625 8.0625 C-3.60491723 5.72955225 -3.60342937 3.39547433 -3.5625 1.0625 C-2.5625 0.0625 -2.5625 0.0625 0 0 Z " fill="#7C7C7C" transform="translate(918.5625,455.9375)"/>
<path d="M0 0 C0.80566406 0.07863281 1.61132812 0.15726562 2.44140625 0.23828125 C3.42947266 0.46064453 3.42947266 0.46064453 4.4375 0.6875 C4.7675 1.3475 5.0975 2.0075 5.4375 2.6875 C3.81286158 2.74145478 2.18771459 2.78027195 0.5625 2.8125 C-0.34242188 2.83570313 -1.24734375 2.85890625 -2.1796875 2.8828125 C-4.5625 2.6875 -4.5625 2.6875 -6.5625 0.6875 C-4.07849398 -0.55450301 -2.74042364 -0.29471651 0 0 Z " fill="#4D4D4D" transform="translate(307.5625,434.3125)"/>
</svg>
