<?xml version="1.0" encoding="UTF-8"?>
<svg version="1.1" xmlns="http://www.w3.org/2000/svg" width="1920" height="1080">
<path d="M0 0 C0.90098901 -0.00706559 1.80197802 -0.01413118 2.73026973 -0.02141088 C3.72130315 -0.0189958 4.71233657 -0.01658071 5.7334013 -0.01409245 C6.78528769 -0.01932912 7.83717408 -0.0245658 8.92093581 -0.02996117 C12.46309175 -0.04502223 16.00510402 -0.04566766 19.54728985 -0.04633427 C22.07983935 -0.05395165 24.61238652 -0.06237842 27.14493084 -0.07155704 C34.03750483 -0.09355068 40.93002873 -0.102329 47.82263303 -0.10738349 C52.12585773 -0.11063912 56.42907348 -0.11716079 60.73229313 -0.12438488 C72.64516729 -0.14395256 84.55803311 -0.16035574 96.47092438 -0.16326141 C97.61471783 -0.16354277 97.61471783 -0.16354277 98.78161822 -0.16382981 C100.32747376 -0.16419606 101.8733293 -0.16455976 103.41918484 -0.16492092 C104.18655715 -0.16510373 104.95392946 -0.16528654 105.74455547 -0.16547489 C106.51286372 -0.16565544 107.28117196 -0.16583599 108.07276227 -0.16602201 C120.52312575 -0.16956392 132.97331629 -0.19658652 145.42361978 -0.23397278 C158.20419327 -0.27204386 170.98468092 -0.2914188 183.76531237 -0.29172093 C190.9419954 -0.29230578 198.11847215 -0.30081526 205.29510212 -0.32971859 C212.04454037 -0.35677625 218.79350089 -0.35814761 225.54299641 -0.34206295 C228.02221344 -0.34024227 230.50145358 -0.34699456 232.98062038 -0.36288166 C236.36167478 -0.38322962 239.74128261 -0.37285516 243.12231731 -0.35466862 C244.59882919 -0.37446857 244.59882919 -0.37446857 246.10516959 -0.39466852 C250.5344972 -0.34013784 253.65724924 -0.19489388 257.21183586 2.61098289 C260.39968701 6.12017649 260.74315939 8.50033016 260.74976254 13.06618977 C260.75360368 14.06184716 260.75744483 15.05750455 260.76140237 16.08333337 C260.76053589 17.18010451 260.7596694 18.27687566 260.75877666 19.40688229 C260.76323335 21.15115409 260.76323335 21.15115409 260.76778007 22.9306637 C260.77496734 26.16368963 260.77763992 29.39668321 260.77837753 32.62971592 C260.78022716 36.11446002 260.78777398 39.59919258 260.79451275 43.08393002 C260.80809976 50.70574424 260.81412121 58.32755321 260.81852341 65.94937754 C260.82128491 70.70687726 260.82552206 75.46437494 260.83002758 80.22187328 C260.84222015 93.38976508 260.85251986 106.55765524 260.85590267 119.72555256 C260.85612224 120.56845859 260.8563418 121.41136463 260.85656802 122.27981327 C260.8567863 123.12475185 260.85700458 123.96969043 260.85722947 124.84023321 C260.85767294 126.55244184 260.8581195 128.26465046 260.85856915 129.97685909 C260.85879057 130.82617625 260.859012 131.6754934 260.85924014 132.55054744 C260.86318952 146.31747141 260.88064783 160.0843425 260.90392867 173.85124604 C260.92762878 187.97991232 260.94010389 202.10855204 260.94127059 216.23723853 C260.94218805 224.17227822 260.94795814 232.10724898 260.9660902 240.04226971 C260.98147305 246.79803363 260.98662239 253.55370732 260.9783521 260.30948542 C260.97443927 263.75719736 260.97540582 267.20472749 260.98940945 270.65241718 C261.00203895 274.38819462 260.99630085 278.12350132 260.98582745 281.85927486 C260.99791205 283.49773941 260.99791205 283.49773941 261.01024079 285.16930425 C260.94912838 294.45112609 260.94912838 294.45112609 257.61833477 298.26006222 C254.73188246 300.78600524 252.97370352 301.63517274 249.14206314 301.63758564 C248.24543317 301.64540888 247.34880321 301.65323212 246.42500263 301.66129243 C245.44398184 301.65460027 244.46296104 301.6479081 243.45221233 301.64101315 C242.40693306 301.64569312 241.36165378 301.65037309 240.28469938 301.65519488 C236.77086472 301.66719157 233.25741669 301.65766915 229.74357891 301.64824581 C227.22896375 301.65230945 224.71435038 301.65765015 222.19974041 301.66417599 C216.0717372 301.67645637 209.94387791 301.67462992 203.81587274 301.66593806 C198.83554751 301.65916622 193.85525317 301.65824263 188.87492466 301.66150951 C188.16641776 301.66196921 187.45791085 301.66242891 186.72793404 301.66290254 C185.28865683 301.66386171 183.84937962 301.66483435 182.41010242 301.66582032 C168.9090686 301.67437804 155.40809586 301.66453442 141.90707206 301.64841922 C130.32161926 301.63501857 118.73625664 301.63734127 107.15080547 301.6511755 C93.70003268 301.66722957 80.24931346 301.67355097 66.79853243 301.66433871 C65.36420851 301.66338305 63.92988458 301.66243994 62.49556065 301.66150951 C61.43696757 301.66081527 61.43696757 301.66081527 60.35698878 301.66010701 C55.38293953 301.65751638 50.40892424 301.66188974 45.43488026 301.66894817 C38.73967503 301.67824006 32.04466655 301.67162554 25.34946918 301.6542654 C22.88919388 301.65029172 20.42890426 301.6514496 17.96863461 301.6580534 C14.6160415 301.66622399 11.26399869 301.656001 7.91144085 301.64101315 C6.93265077 301.64770531 5.95386069 301.65439748 4.94541031 301.66129243 C0.04407353 301.61865149 -3.4745026 301.55943136 -7.38166523 298.26006222 C-10.08635961 295.22878926 -10.75691869 293.34320615 -10.75918865 289.2996521 C-10.76701189 288.29503687 -10.77483514 287.29042164 -10.78289545 286.25536352 C-10.77620328 285.15372333 -10.76951112 284.05208313 -10.76261616 282.9170599 C-10.76729613 281.7451905 -10.7719761 280.5733211 -10.77679789 279.36594051 C-10.78670493 276.11226496 -10.78312393 272.85892421 -10.77383924 269.60525692 C-10.76706136 266.09665972 -10.77752374 262.58810836 -10.785779 259.07952023 C-10.79913247 252.2055654 -10.79623132 245.33170873 -10.78754108 238.45775003 C-10.78077072 232.87149511 -10.779845 227.28526774 -10.78311253 221.6990099 C-10.78357223 220.90446679 -10.78403192 220.10992369 -10.78450555 219.29130353 C-10.78546472 217.67727931 -10.78643735 216.0632551 -10.78742333 214.4492309 C-10.79598209 199.30721083 -10.78613576 184.1652452 -10.77002223 169.02323406 C-10.75662118 156.02784937 -10.75894443 143.03254507 -10.77277851 130.03716183 C-10.7888302 114.95152157 -10.79515535 99.86592908 -10.78594172 84.78028148 C-10.78498606 83.1718311 -10.78404295 81.56338071 -10.78311253 79.95493031 C-10.7826497 79.16351417 -10.78218687 78.37209803 -10.78171002 77.55669959 C-10.77911871 71.97701518 -10.78349423 66.39736104 -10.79055119 60.81768131 C-10.79896194 54.01801101 -10.79669514 47.21844462 -10.78070895 40.41878624 C-10.77282006 36.94879925 -10.76974499 33.47898556 -10.77965641 30.00899982 C-10.78782086 26.24917492 -10.77761129 22.48984154 -10.76261616 18.73004818 C-10.76930832 17.6306387 -10.77600049 16.53122923 -10.78289545 15.39850432 C-10.71050165 6.07798308 -10.71050165 6.07798308 -7.38166523 2.26006222 C-4.25252772 0.17397055 -3.55660776 0.00890313 0 0 Z M124.36833477 8.19756222 C123.50208477 9.21849972 123.50208477 9.21849972 122.61833477 10.26006222 C123.67308142 13.95467097 123.67308142 13.95467097 126.49333477 16.32256222 C128.84450225 16.47671527 128.84450225 16.47671527 130.86833477 14.32256222 C131.44583477 13.64193722 132.02333477 12.96131222 132.61833477 12.26006222 C131.56358812 8.56545346 131.56358812 8.56545346 128.74333477 6.19756222 C126.39216729 6.04340916 126.39216729 6.04340916 124.36833477 8.19756222 Z M111.61833477 6.26006222 C110.62833477 6.75506222 110.62833477 6.75506222 109.61833477 7.26006222 C109.61833477 7.92006222 109.61833477 8.58006222 109.61833477 9.26006222 C108.95833477 9.26006222 108.29833477 9.26006222 107.61833477 9.26006222 C107.94833477 11.24006222 108.27833477 13.22006222 108.61833477 15.26006222 C110.9720119 15.94788582 110.9720119 15.94788582 113.61833477 16.26006222 C116.84264107 14.61869105 116.84264107 14.61869105 117.11833477 11.82256222 C116.86328386 9.03470576 116.86328386 9.03470576 114.24333477 7.38506222 C113.37708477 7.01381222 112.51083477 6.64256222 111.61833477 6.26006222 Z M142.61833477 6.26006222 C141.62833477 6.75506222 141.62833477 6.75506222 140.61833477 7.26006222 C140.61833477 7.92006222 140.61833477 8.58006222 140.61833477 9.26006222 C139.95833477 9.26006222 139.29833477 9.26006222 138.61833477 9.26006222 C138.368025 11.67626044 138.368025 11.67626044 138.61833477 14.26006222 C141.38821553 16.57549429 141.38821553 16.57549429 144.24333477 15.94756222 C146.55335442 15.48591082 146.55335442 15.48591082 147.61833477 14.26006222 C148.11893393 11.84523809 148.11893393 11.84523809 147.61833477 9.26006222 C145.3332864 7.28878233 145.3332864 7.28878233 142.61833477 6.26006222 Z M3.24333477 26.94756222 C1.12049605 31.2748873 1.08628695 33.4716318 1.61833477 38.26006222 C3.39350891 42.37099181 5.75602111 44.99305203 9.61833477 47.26006222 C14.30328836 48.11738274 17.69949771 47.70246525 21.99333477 45.63506222 C24.996886 42.91756349 26.35784217 41.11568664 27.61833477 37.26006222 C27.61833477 32.57305355 27.24268926 29.61444621 24.36833477 25.88506222 C21.01481312 22.68397337 18.7265927 21.5303517 14.18083477 20.94756222 C9.35822999 21.53568475 6.44001096 23.33027074 3.24333477 26.94756222 Z M37.61833477 25.26006222 C35.3029027 28.02994298 35.3029027 28.02994298 35.93083477 30.88506222 C36.39248617 33.19508187 36.39248617 33.19508187 37.61833477 34.26006222 C40.1275763 34.36093434 42.60869861 34.39978254 45.11833477 34.39287472 C46.24465313 34.39430981 46.24465313 34.39430981 47.3937254 34.39577389 C48.98422104 34.3964556 50.57471945 34.39460194 52.16520977 34.39043331 C54.60798132 34.38508489 57.05056898 34.39037856 59.49333477 34.39678097 C61.03500185 34.39612018 62.57666881 34.39483902 64.11833477 34.39287472 C64.85374493 34.39489895 65.58915508 34.39692318 66.3468504 34.39900875 C69.77079819 34.69062735 69.77079819 34.69062735 72.61833477 33.26006222 C72.78500144 29.76006222 72.78500144 29.76006222 72.61833477 26.26006222 C70.64961522 24.29134267 66.84528036 25.0725595 64.15349102 25.05693722 C63.40498379 25.05123714 62.65647655 25.04553707 61.88528728 25.03966427 C60.2990031 25.03020187 58.71269915 25.02367538 57.12639141 25.01982784 C54.69432238 25.01011608 52.26309606 24.97910335 49.8312254 24.94756222 C48.29281898 24.94103307 46.75440649 24.93578225 45.21599102 24.93193722 C44.48574215 24.91959042 43.75549328 24.90724361 43.00311565 24.89452267 C40.73221526 24.86970699 40.73221526 24.86970699 37.61833477 25.26006222 Z M36.61833477 38.26006222 C36.28833477 39.25006222 35.95833477 40.24006222 35.61833477 41.26006222 C37.27549836 43.28873347 38.15804421 44.18042127 40.78117657 44.63428402 C41.61818096 44.63365459 42.45518536 44.63302517 43.31755352 44.63237667 C44.74418316 44.64171986 44.74418316 44.64171986 46.1996336 44.65125179 C47.22467999 44.64204205 48.24972637 44.6328323 49.30583477 44.62334347 C50.35988506 44.62384197 51.41393536 44.62434048 52.49992657 44.62485409 C54.72919378 44.62251285 56.9584636 44.61278148 59.18767071 44.59624386 C62.6049027 44.57265494 66.02135458 44.57568229 69.43864727 44.58232784 C71.60271443 44.57675107 73.7667783 44.5696412 75.93083477 44.56084347 C77.46840435 44.56221058 77.46840435 44.56221058 79.03703594 44.56360531 C79.98812237 44.5540733 80.93920879 44.54454128 81.91911602 44.53472042 C83.17462261 44.52780933 83.17462261 44.52780933 84.45549297 44.52075863 C86.91283859 44.38955275 86.91283859 44.38955275 89.61833477 42.26006222 C89.12333477 40.28006222 89.12333477 40.28006222 88.61833477 38.26006222 C71.45833477 38.26006222 54.29833477 38.26006222 36.61833477 38.26006222 Z M2.61833477 55.26006222 C2.61833477 121.26006222 2.61833477 187.26006222 2.61833477 255.26006222 C83.46833477 255.26006222 164.31833477 255.26006222 247.61833477 255.26006222 C247.61833477 189.26006222 247.61833477 123.26006222 247.61833477 55.26006222 C166.76833477 55.26006222 85.91833477 55.26006222 2.61833477 55.26006222 Z M9.61833477 268.26006222 C9.61833477 268.59006222 9.61833477 268.92006222 9.61833477 269.26006222 C11.26833477 269.26006222 12.91833477 269.26006222 14.61833477 269.26006222 C14.61833477 268.93006222 14.61833477 268.60006222 14.61833477 268.26006222 C12.96833477 268.26006222 11.31833477 268.26006222 9.61833477 268.26006222 Z M17.61833477 268.26006222 C17.61833477 268.59006222 17.61833477 268.92006222 17.61833477 269.26006222 C19.26833477 269.26006222 20.91833477 269.26006222 22.61833477 269.26006222 C22.61833477 268.93006222 22.61833477 268.60006222 22.61833477 268.26006222 C20.96833477 268.26006222 19.31833477 268.26006222 17.61833477 268.26006222 Z M40.61833477 268.26006222 C40.61833477 268.59006222 40.61833477 268.92006222 40.61833477 269.26006222 C42.92833477 269.26006222 45.23833477 269.26006222 47.61833477 269.26006222 C47.61833477 268.93006222 47.61833477 268.60006222 47.61833477 268.26006222 C45.30833477 268.26006222 42.99833477 268.26006222 40.61833477 268.26006222 Z M74.61833477 270.26006222 C77.09333477 271.25006222 77.09333477 271.25006222 79.61833477 272.26006222 C79.94833477 270.94006222 80.27833477 269.62006222 80.61833477 268.26006222 C77.4334347 267.98271212 77.4334347 267.98271212 74.61833477 270.26006222 Z M233.61833477 268.26006222 C233.61833477 273.87006222 233.61833477 279.48006222 233.61833477 285.26006222 C234.60833477 284.60006222 235.59833477 283.94006222 236.61833477 283.26006222 C235.95833477 283.26006222 235.29833477 283.26006222 234.61833477 283.26006222 C234.61833477 278.64006222 234.61833477 274.02006222 234.61833477 269.26006222 C238.57833477 269.26006222 242.53833477 269.26006222 246.61833477 269.26006222 C246.61833477 273.88006222 246.61833477 278.50006222 246.61833477 283.26006222 C245.62833477 283.75506222 245.62833477 283.75506222 244.61833477 284.26006222 C245.60833477 284.59006222 246.59833477 284.92006222 247.61833477 285.26006222 C247.61833477 279.65006222 247.61833477 274.04006222 247.61833477 268.26006222 C242.99833477 268.26006222 238.37833477 268.26006222 233.61833477 268.26006222 Z M24.61833477 271.26006222 C24.61833477 272.91006222 24.61833477 274.56006222 24.61833477 276.26006222 C24.94833477 276.26006222 25.27833477 276.26006222 25.61833477 276.26006222 C25.61833477 274.61006222 25.61833477 272.96006222 25.61833477 271.26006222 C25.28833477 271.26006222 24.95833477 271.26006222 24.61833477 271.26006222 Z M50.61833477 271.26006222 C51.61833477 273.26006222 51.61833477 273.26006222 51.61833477 273.26006222 Z M6.61833477 272.26006222 C7.61833477 275.26006222 7.61833477 275.26006222 7.61833477 275.26006222 Z M35.61833477 273.26006222 C35.61833477 275.24006222 35.61833477 277.22006222 35.61833477 279.26006222 C35.94833477 279.26006222 36.27833477 279.26006222 36.61833477 279.26006222 C36.61833477 277.28006222 36.61833477 275.30006222 36.61833477 273.26006222 C36.28833477 273.26006222 35.95833477 273.26006222 35.61833477 273.26006222 Z M51.61833477 273.26006222 C51.61833477 275.24006222 51.61833477 277.22006222 51.61833477 279.26006222 C51.94833477 279.26006222 52.27833477 279.26006222 52.61833477 279.26006222 C52.61833477 277.28006222 52.61833477 275.30006222 52.61833477 273.26006222 C52.28833477 273.26006222 51.95833477 273.26006222 51.61833477 273.26006222 Z M63.61833477 273.26006222 C65.59833477 274.25006222 65.59833477 274.25006222 67.61833477 275.26006222 C67.28833477 274.60006222 66.95833477 273.94006222 66.61833477 273.26006222 C65.62833477 273.26006222 64.63833477 273.26006222 63.61833477 273.26006222 Z M77.61833477 273.26006222 C78.61833477 275.26006222 78.61833477 275.26006222 78.61833477 275.26006222 Z M7.61833477 275.26006222 C8.61833477 277.26006222 8.61833477 277.26006222 8.61833477 277.26006222 Z M68.61833477 275.26006222 C70.59833477 276.25006222 70.59833477 276.25006222 72.61833477 277.26006222 C72.94833477 276.60006222 73.27833477 275.94006222 73.61833477 275.26006222 C71.96833477 275.26006222 70.31833477 275.26006222 68.61833477 275.26006222 Z M76.61833477 276.26006222 C77.61833477 278.26006222 77.61833477 278.26006222 77.61833477 278.26006222 Z M72.61833477 278.26006222 C73.61833477 281.26006222 73.61833477 281.26006222 73.61833477 281.26006222 Z M75.61833477 279.26006222 C76.61833477 281.26006222 76.61833477 281.26006222 76.61833477 281.26006222 Z M51.61833477 282.26006222 C52.61833477 285.26006222 52.61833477 285.26006222 52.61833477 285.26006222 Z M73.61833477 282.26006222 C73.94833477 283.25006222 74.27833477 284.24006222 74.61833477 285.26006222 C74.94833477 284.27006222 75.27833477 283.28006222 75.61833477 282.26006222 C74.95833477 282.26006222 74.29833477 282.26006222 73.61833477 282.26006222 Z M42.61833477 284.26006222 C46.61833477 285.26006222 46.61833477 285.26006222 46.61833477 285.26006222 Z " fill="#5F5F5F" transform="translate(1518.3816652297974,616.7399377822876)"/>
<path d="M0 0 C6.59842154 0 9.69802885 2.72531842 14.25 7 C15.56795934 8.18996725 16.88697713 9.37876321 18.20703125 10.56640625 C18.84979004 11.15180176 19.49254883 11.73719727 20.15478516 12.34033203 C26.76871774 18.28919598 33.82054194 23.75426417 41 29 C41.81082031 28.31035156 42.62164062 27.62070312 43.45703125 26.91015625 C49.68953382 21.61755069 55.93388702 16.3451084 62.3046875 11.21875 C64.20065952 9.65800781 66.05723433 8.04877562 67.8828125 6.40625 C68.82898438 5.5709375 69.77515625 4.735625 70.75 3.875 C71.59046875 3.10929688 72.4309375 2.34359375 73.296875 1.5546875 C76.89494514 -0.51472279 79.04868719 0.07543173 83 1 C83.8125 3.1875 83.8125 3.1875 84 6 C81.83203125 8.37890625 81.83203125 8.37890625 79 11 C77.75863281 12.16789063 77.75863281 12.16789063 76.4921875 13.359375 C61.03689877 27.47674321 61.03689877 27.47674321 54.47363281 31.57910156 C48.96860037 35.29066037 48.96860037 35.29066037 46.10229492 41.08056641 C45.79387781 44.59181553 45.76661338 47.97743482 45.875 51.5 C45.87242187 52.70398438 45.86984375 53.90796875 45.8671875 55.1484375 C45.8671875 58.10217242 45.91260698 61.0477745 46 64 C46.69657715 64.25885986 47.3931543 64.51771973 48.11083984 64.78442383 C51.30417344 66.12797698 54.2183251 67.73038671 57.2265625 69.44921875 C57.81488861 69.78492386 58.40321472 70.12062897 59.0093689 70.46650696 C60.2524241 71.17686678 61.49456537 71.88882802 62.73583984 72.60229492 C64.59614403 73.67092404 66.45990555 74.73330594 68.32421875 75.79492188 C88.09346935 87.09346935 88.09346935 87.09346935 91 90 C91.16173754 91.76608033 91.25452998 93.53852258 91.31982422 95.31079102 C91.36170868 96.44609756 91.40359314 97.58140411 91.44674683 98.75111389 C91.57715691 103.2851043 91.68224908 107.81912337 91.75568962 112.35441685 C91.81220476 115.79568517 91.89344622 119.23225868 92.03564453 122.67114258 C92.91931822 144.60706411 92.91931822 144.60706411 89.91448975 149.91894531 C86.63601215 153.32975403 82.37287187 154.52873493 78 156 C75.50260204 157.29338602 73.1160935 158.7548227 70.7109375 160.2109375 C69.49330056 160.90917659 68.2732379 161.60320265 67.05078125 162.29296875 C66.4470166 162.63505371 65.84325195 162.97713867 65.22119141 163.32958984 C64.61194824 163.6745752 64.00270508 164.01956055 63.375 164.375 C61.49548421 165.44107334 59.61636087 166.50782494 57.73794556 167.57583618 C56.06098808 168.52906594 54.38282661 169.48017668 52.70458984 170.43115234 C50.7643917 171.55660037 48.86628011 172.75581326 47 174 C46.55490859 176.74529749 46.55490859 176.74529749 46.62890625 179.9609375 C46.61150391 181.15460938 46.59410156 182.34828125 46.57617188 183.578125 C46.56708546 186.10155152 46.561853 188.62499496 46.56054688 191.1484375 C46.53250977 192.9428125 46.53250977 192.9428125 46.50390625 194.7734375 C46.50205322 195.87091309 46.5002002 196.96838867 46.49829102 198.09912109 C45.88843991 201.64946446 44.85244479 202.85977003 42 205 C39.3125 204.875 39.3125 204.875 37 204 C35.60149654 201.20299308 36.25544474 199.33341751 36.66796875 196.2421875 C37.34185758 188.59412575 37.84002073 181.26586607 35 174 C28.4640111 166.96827243 19.11131665 163.28677471 10.43359375 159.53222656 C6.02937627 157.5668633 1.9636756 155.23117773 -2.125 152.6875 C-3.79949219 151.70330078 -3.79949219 151.70330078 -5.5078125 150.69921875 C-8 149 -8 149 -10 146 C-10.26742554 143.57814026 -10.26742554 143.57814026 -10.29052734 140.67407227 C-10.30328705 139.58606827 -10.31604675 138.49806427 -10.32919312 137.37709045 C-10.33141876 136.20206467 -10.33364441 135.02703888 -10.3359375 133.81640625 C-10.3459227 132.00582985 -10.3459227 132.00582985 -10.35610962 130.15867615 C-10.36624199 127.60409064 -10.37092646 125.04947863 -10.37060547 122.49487305 C-10.37497885 118.58142623 -10.41129539 114.66910657 -10.44921875 110.75585938 C-10.45508662 108.27604553 -10.45905621 105.79622632 -10.4609375 103.31640625 C-10.47530853 102.14340469 -10.48967957 100.97040314 -10.50448608 99.76185608 C-10.49833282 98.67069992 -10.49217957 97.57954376 -10.48583984 96.45532227 C-10.48868988 95.49618423 -10.49153992 94.5370462 -10.49447632 93.54884338 C-9.85581182 90.256763 -8.54558289 89.11067304 -6 87 C-3.7043457 85.51123047 -3.7043457 85.51123047 -1.17578125 84.1171875 C-0.23694092 83.59406982 0.70189941 83.07095215 1.66918945 82.53198242 C2.66523193 81.98517822 3.66127441 81.43837402 4.6875 80.875 C6.75858009 79.72403638 8.8288856 78.57167795 10.8984375 77.41796875 C11.92549805 76.8461084 12.95255859 76.27424805 14.01074219 75.68505859 C19.04378968 72.84790621 24.00362266 69.88780451 28.94604492 66.89599609 C33.78746613 64 33.78746613 64 36 64 C36.99855378 49.33473173 36.99855378 49.33473173 33.09375 35.65234375 C30.52312029 33.41117765 27.94193451 31.71946853 25 30 C23.22769503 28.59009172 21.47797217 27.1514052 19.75 25.6875 C18.84894531 24.95789063 17.94789063 24.22828125 17.01953125 23.4765625 C13.45222449 20.55072487 9.94001186 17.56535975 6.4375 14.5625 C5.82938477 14.04196045 5.22126953 13.5214209 4.59472656 12.98510742 C-1.96521698 7.34783016 -1.96521698 7.34783016 -2.25 4.5 C-2 2 -2 2 0 0 Z " fill="#45FEFE" transform="translate(194,774)"/>
<path d="M0 0 C3.96 0 7.92 0 12 0 C12 0.66 12 1.32 12 2 C14.31 2 16.62 2 19 2 C19 2.66 19 3.32 19 4 C19.7425 3.938125 20.485 3.87625 21.25 3.8125 C26.53589647 4.17290203 29.45970072 8.37335196 33 12 C34.36125 13.3303125 34.36125 13.3303125 35.75 14.6875 C38 17 38 17 39 19 C39.9178125 18.90460937 40.835625 18.80921875 41.78125 18.7109375 C51.82523792 17.80360246 59.52976487 17.82418522 68 24 C72.42897461 27.76875479 75.91168507 31.47210755 78 37 C78 38.32 78 39.64 78 41 C78.66 41.33 79.32 41.66 80 42 C80 43.65 80 45.3 80 47 C80.845625 47.08636719 81.69125 47.17273438 82.5625 47.26171875 C89.50148472 48.12120663 95.73955946 49.04151828 101 54 C101 54.66 101 55.32 101 56 C101.66 56.66 102.32 57.32 103 58 C103 59.32 103 60.64 103 62 C103.66 62.33 104.32 62.66 105 63 C104.59250074 70.89705469 104.12053072 77.38402022 98 83 C91.58942239 87.59751135 85.11718672 87.5766407 77.46875 87.53344727 C75.61358765 87.54637062 75.61358765 87.54637062 73.72094727 87.55955505 C70.34875305 87.57829353 66.97754686 87.57913617 63.6053772 87.57023358 C60.78236498 87.56510167 57.95943971 87.57243388 55.13643646 87.57970566 C48.47369188 87.59666914 41.81117654 87.59317425 35.1484375 87.57641602 C28.29084902 87.55949003 21.43389689 87.57534315 14.57637787 87.6076389 C8.67205875 87.63438479 2.76793712 87.64159764 -3.13643646 87.63312382 C-6.65563593 87.62821003 -10.17445257 87.63032556 -13.69360352 87.65091133 C-17.61890343 87.67277695 -21.54344319 87.6538132 -25.46875 87.63110352 C-26.62431396 87.64279572 -27.77987793 87.65448792 -28.97045898 87.66653442 C-37.42464206 87.56715301 -42.41167303 85.58832697 -48.375 79.625 C-52.07296566 73.65136316 -52.27774778 67.8048207 -52 61 C-51.34 61 -50.68 61 -50 61 C-49.87625 59.96875 -49.7525 58.9375 -49.625 57.875 C-48.28658095 53.07818429 -44.71061019 51.4450283 -40.60546875 49.06640625 C-37.84872793 47.93808505 -35.94675387 47.78309352 -33 48 C-33.165 47.505 -33.33 47.01 -33.5 46.5 C-35.57662816 36.11685919 -32.64452143 25.76941857 -27 17 C-24.50215114 14.12819296 -21.82582266 11.5451118 -19 9 C-18.34 8.34 -17.68 7.68 -17 7 C-16.01 6.67 -15.02 6.34 -14 6 C-13.56042969 5.49855469 -13.12085938 4.99710938 -12.66796875 4.48046875 C-10.31133479 2.38874915 -8.41554462 2.49503204 -5.3125 2.3125 C-4.31863281 2.24675781 -3.32476563 2.18101562 -2.30078125 2.11328125 C-1.16189453 2.05720703 -1.16189453 2.05720703 0 2 C0 1.34 0 0.68 0 0 Z " fill="#606060" transform="translate(1617,720)"/>
<path d="M0 0 C6.59842154 0 9.69802885 2.72531842 14.25 7 C15.56795934 8.18996725 16.88697713 9.37876321 18.20703125 10.56640625 C18.84979004 11.15180176 19.49254883 11.73719727 20.15478516 12.34033203 C26.76871774 18.28919598 33.82054194 23.75426417 41 29 C41.81082031 28.31035156 42.62164062 27.62070312 43.45703125 26.91015625 C49.68953382 21.61755069 55.93388702 16.3451084 62.3046875 11.21875 C64.20065952 9.65800781 66.05723433 8.04877562 67.8828125 6.40625 C68.82898438 5.5709375 69.77515625 4.735625 70.75 3.875 C71.59046875 3.10929688 72.4309375 2.34359375 73.296875 1.5546875 C76.89494514 -0.51472279 79.04868719 0.07543173 83 1 C83.8125 3.1875 83.8125 3.1875 84 6 C81.83203125 8.37890625 81.83203125 8.37890625 79 11 C77.75863281 12.16789063 77.75863281 12.16789063 76.4921875 13.359375 C61.03689877 27.47674321 61.03689877 27.47674321 54.47363281 31.57910156 C48.96860037 35.29066037 48.96860037 35.29066037 46.10229492 41.08056641 C45.79387781 44.59181553 45.76661338 47.97743482 45.875 51.5 C45.87242187 52.70398438 45.86984375 53.90796875 45.8671875 55.1484375 C45.8671875 58.10217242 45.91260698 61.0477745 46 64 C46.69657715 64.25885986 47.3931543 64.51771973 48.11083984 64.78442383 C51.30417344 66.12797698 54.2183251 67.73038671 57.2265625 69.44921875 C57.81488861 69.78492386 58.40321472 70.12062897 59.0093689 70.46650696 C60.2524241 71.17686678 61.49456537 71.88882802 62.73583984 72.60229492 C64.59614403 73.67092404 66.45990555 74.73330594 68.32421875 75.79492188 C88.09346935 87.09346935 88.09346935 87.09346935 91 90 C91.16173754 91.76608033 91.25452998 93.53852258 91.31982422 95.31079102 C91.36170868 96.44609756 91.40359314 97.58140411 91.44674683 98.75111389 C91.57715691 103.2851043 91.68224908 107.81912337 91.75568962 112.35441685 C91.81220476 115.79568517 91.89344622 119.23225868 92.03564453 122.67114258 C92.91931822 144.60706411 92.91931822 144.60706411 89.91448975 149.91894531 C86.63601215 153.32975403 82.37287187 154.52873493 78 156 C75.50260204 157.29338602 73.1160935 158.7548227 70.7109375 160.2109375 C69.49330056 160.90917659 68.2732379 161.60320265 67.05078125 162.29296875 C66.4470166 162.63505371 65.84325195 162.97713867 65.22119141 163.32958984 C64.61194824 163.6745752 64.00270508 164.01956055 63.375 164.375 C61.49548421 165.44107334 59.61636087 166.50782494 57.73794556 167.57583618 C56.06098808 168.52906594 54.38282661 169.48017668 52.70458984 170.43115234 C50.7643917 171.55660037 48.86628011 172.75581326 47 174 C46.55490859 176.74529749 46.55490859 176.74529749 46.62890625 179.9609375 C46.61150391 181.15460938 46.59410156 182.34828125 46.57617188 183.578125 C46.56708546 186.10155152 46.561853 188.62499496 46.56054688 191.1484375 C46.53250977 192.9428125 46.53250977 192.9428125 46.50390625 194.7734375 C46.50205322 195.87091309 46.5002002 196.96838867 46.49829102 198.09912109 C45.88843991 201.64946446 44.85244479 202.85977003 42 205 C39.3125 204.875 39.3125 204.875 37 204 C35.60149654 201.20299308 36.25544474 199.33341751 36.66796875 196.2421875 C37.34185758 188.59412575 37.84002073 181.26586607 35 174 C28.4640111 166.96827243 19.11131665 163.28677471 10.43359375 159.53222656 C6.02937627 157.5668633 1.9636756 155.23117773 -2.125 152.6875 C-3.79949219 151.70330078 -3.79949219 151.70330078 -5.5078125 150.69921875 C-8 149 -8 149 -10 146 C-10.26742554 143.57814026 -10.26742554 143.57814026 -10.29052734 140.67407227 C-10.30328705 139.58606827 -10.31604675 138.49806427 -10.32919312 137.37709045 C-10.33141876 136.20206467 -10.33364441 135.02703888 -10.3359375 133.81640625 C-10.3459227 132.00582985 -10.3459227 132.00582985 -10.35610962 130.15867615 C-10.36624199 127.60409064 -10.37092646 125.04947863 -10.37060547 122.49487305 C-10.37497885 118.58142623 -10.41129539 114.66910657 -10.44921875 110.75585938 C-10.45508662 108.27604553 -10.45905621 105.79622632 -10.4609375 103.31640625 C-10.47530853 102.14340469 -10.48967957 100.97040314 -10.50448608 99.76185608 C-10.49833282 98.67069992 -10.49217957 97.57954376 -10.48583984 96.45532227 C-10.48868988 95.49618423 -10.49153992 94.5370462 -10.49447632 93.54884338 C-9.85581182 90.256763 -8.54558289 89.11067304 -6 87 C-3.7043457 85.51123047 -3.7043457 85.51123047 -1.17578125 84.1171875 C-0.23694092 83.59406982 0.70189941 83.07095215 1.66918945 82.53198242 C2.66523193 81.98517822 3.66127441 81.43837402 4.6875 80.875 C6.75858009 79.72403638 8.8288856 78.57167795 10.8984375 77.41796875 C11.92549805 76.8461084 12.95255859 76.27424805 14.01074219 75.68505859 C19.04378968 72.84790621 24.00362266 69.88780451 28.94604492 66.89599609 C33.78746613 64 33.78746613 64 36 64 C36.99855378 49.33473173 36.99855378 49.33473173 33.09375 35.65234375 C30.52312029 33.41117765 27.94193451 31.71946853 25 30 C23.22769503 28.59009172 21.47797217 27.1514052 19.75 25.6875 C18.84894531 24.95789063 17.94789063 24.22828125 17.01953125 23.4765625 C13.45222449 20.55072487 9.94001186 17.56535975 6.4375 14.5625 C5.82938477 14.04196045 5.22126953 13.5214209 4.59472656 12.98510742 C-1.96521698 7.34783016 -1.96521698 7.34783016 -2.25 4.5 C-2 2 -2 2 0 0 Z M37.51074219 72.12060547 C36.53266602 72.69697754 35.55458984 73.27334961 34.546875 73.8671875 C33.45117188 74.5065625 32.35546875 75.1459375 31.2265625 75.8046875 C30.06759251 76.49459713 28.90873846 77.18470157 27.75 77.875 C26.64914063 78.51953125 25.54828125 79.1640625 24.4140625 79.828125 C22.71730822 80.82413157 21.02059066 81.82103415 19.34985352 82.86009216 C16.25153999 84.77310168 13.24051979 86.35111677 9.84765625 87.68383789 C5.61861146 89.48281039 1.81173048 91.24921717 -1 95 C-3.29812455 101.54601773 -2.90557388 108.59067066 -2.62597656 115.42993164 C-2.49975672 118.69379098 -2.50279059 121.93917899 -2.5234375 125.20507812 C-2.4919694 127.286587 -2.45315861 129.36800059 -2.40625 131.44921875 C-2.40564575 132.41808517 -2.4050415 133.3869516 -2.40441895 134.38517761 C-2.19607885 138.36326474 -2.0334775 140.97633506 0.87225342 143.85447693 C3.18349676 145.4209413 5.51399019 146.73220661 8 148 C9.64790527 148.99519653 9.64790527 148.99519653 11.32910156 150.01049805 C12.3394043 150.58840088 13.34970703 151.16630371 14.390625 151.76171875 C15.51210937 152.40560547 16.63359375 153.04949219 17.7890625 153.71289062 C18.93117187 154.36451172 20.07328125 155.01613281 21.25 155.6875 C23.54740158 157.00298883 25.84394362 158.31997244 28.140625 159.63671875 C29.14641602 160.21123779 30.15220703 160.78575684 31.18847656 161.37768555 C34 163 34 163 36.55371094 164.77270508 C38.91780621 166.21424076 38.91780621 166.21424076 41.50048828 165.8515625 C44.20540037 164.93002183 46.51181871 163.7953375 48.9921875 162.375 C49.94609375 161.83230469 50.9 161.28960938 51.8828125 160.73046875 C52.87023437 160.15941406 53.85765625 159.58835937 54.875 159 C55.82375 158.45988281 56.7725 157.91976562 57.75 157.36328125 C59.74746127 156.2207334 61.72823842 155.04863484 63.69335938 153.85131836 C66.18722776 152.45505404 68.40526571 151.41724453 71.04101562 150.40063477 C75.32547759 148.59169381 79.13874357 146.77699131 82 143 C84.39854313 136.36391111 84.07328246 129.21092358 83.84570312 122.25268555 C83.74993532 118.93525947 83.80411435 115.64376785 83.875 112.32617188 C84.1131518 101.40759931 84.1131518 101.40759931 79.46142578 92.00219727 C76.06330322 89.88874336 72.72479452 88.45299522 69 87 C66.69484236 85.69447156 64.41043675 84.3516108 62.1484375 82.97265625 C59.89175285 81.66731905 57.63393978 80.36393071 55.375 79.0625 C54.20697462 78.38486323 53.03900571 77.70712911 51.87109375 77.02929688 C50.76636719 76.39185547 49.66164062 75.75441406 48.5234375 75.09765625 C47.037229 74.23926147 47.037229 74.23926147 45.52099609 73.36352539 C41.63304005 71.10200532 41.63304005 71.10200532 37.51074219 72.12060547 Z " fill="#373837" transform="translate(194,774)"/>
<path d="M0 0 C5.849566 5.38553793 10.42551491 13.33990918 11.23828125 21.34765625 C11.52973678 32.0087928 8.06517106 40.07008145 1 48 C-6.3070821 54.93235994 -14.23155357 55.97623249 -24 56 C-32.62794619 55.38562612 -39.51165626 50.95474324 -45.3125 44.6875 C-51.27363422 37.01606821 -52.98081771 29.58889272 -52.50390625 19.9453125 C-51.32000135 10.67597953 -46.31072377 4.40232172 -39.23828125 -1.41015625 C-27.29303033 -9.89482837 -11.5531417 -8.6370843 0 0 Z M-27 14 C-28.20495909 14.98407311 -28.20495909 14.98407311 -28.11352539 16.85766602 C-28.10828857 17.64842529 -28.10305176 18.43918457 -28.09765625 19.25390625 C-28.09443359 20.10791016 -28.09121094 20.96191406 -28.08789062 21.84179688 C-28.07951172 22.73962891 -28.07113281 23.63746094 -28.0625 24.5625 C-28.05798828 25.46419922 -28.05347656 26.36589844 -28.04882812 27.29492188 C-28.03700225 29.53001314 -28.0205222 31.76497437 -28 34 C-27.34 34.33 -26.68 34.66 -26 35 C-20.15809755 32.33527257 -14.58858409 29.15651509 -9 26 C-9 25.01 -9 24.02 -9 23 C-11.62214328 21.49480613 -14.24744208 19.99568681 -16.875 18.5 C-17.62136719 18.07074219 -18.36773437 17.64148438 -19.13671875 17.19921875 C-19.85214844 16.79316406 -20.56757813 16.38710938 -21.3046875 15.96875 C-21.96452637 15.59169922 -22.62436523 15.21464844 -23.30419922 14.82617188 C-24.98527146 13.8540084 -24.98527146 13.8540084 -27 14 Z " fill="#363636" transform="translate(351,638)"/>
<path d="M0 0 C4.35253143 2.44124019 6.7858423 5.97316445 8.75 10.5 C10.02749036 15.91314333 9.97186524 21.21448608 10 26.75 C10.020625 27.74902344 10.04125 28.74804688 10.0625 29.77734375 C10.09994165 36.93805953 9.67328736 43.90611442 4.99609375 49.65625 C4.39925781 50.0996875 3.80242187 50.543125 3.1875 51 C2.58808594 51.4640625 1.98867187 51.928125 1.37109375 52.40625 C-3.5705214 55.74035179 -9.49977073 55.0042832 -15.25 54.5 C-19.75665768 52.36526742 -22.4241532 49.58177871 -25.25 45.5 C-26.97594288 40.32217135 -26.47546923 34.77929661 -26.49023438 29.35864258 C-26.49991906 27.20549579 -26.53094452 25.05331268 -26.5625 22.90039062 C-26.56903289 21.52083897 -26.57428224 20.14128052 -26.578125 18.76171875 C-26.5874707 17.51350342 -26.59681641 16.26528809 -26.60644531 14.97924805 C-26.13510533 10.37851785 -24.66896777 7.03829006 -21.53125 3.63671875 C-20.9434375 3.15847656 -20.355625 2.68023438 -19.75 2.1875 C-19.1621875 1.69636719 -18.574375 1.20523438 -17.96875 0.69921875 C-12.76553558 -2.93120586 -5.61606399 -2.41906362 0 0 Z M-14.44335938 10.12109375 C-16.78299015 13.20181838 -16.76585891 15.0316242 -16.78125 18.875 C-16.78640625 20.10734375 -16.7915625 21.3396875 -16.796875 22.609375 C-16.78140625 23.89328125 -16.7659375 25.1771875 -16.75 26.5 C-16.76546875 27.78390625 -16.7809375 29.0678125 -16.796875 30.390625 C-16.79171875 31.62296875 -16.7865625 32.8553125 -16.78125 34.125 C-16.77673828 35.25164063 -16.77222656 36.37828125 -16.76757812 37.5390625 C-16.14028512 41.1276519 -15.07611613 42.27668426 -12.25 44.5 C-9.90127469 45.66977494 -9.90127469 45.66977494 -7.25 45.5 C-2.56410561 43.03784712 -2.56410561 43.03784712 -0.25 38.5 C0.00853371 34.54600107 -0.01862069 30.58655198 0 26.625 C0.020625 25.53574219 0.04125 24.44648437 0.0625 23.32421875 C0.06765625 22.27105469 0.0728125 21.21789062 0.078125 20.1328125 C0.0874707 19.17262207 0.09681641 18.21243164 0.10644531 17.22314453 C-0.31627453 13.99368073 -1.34754833 12.12093692 -3.25 9.5 C-7.06770009 7.59114996 -10.99729755 7.57413799 -14.44335938 10.12109375 Z " fill="#383838" transform="translate(219.25,979.5)"/>
<path d="M0 0 C3 0.25 3 0.25 5 2.25 C5.22705078 4.31298828 5.22705078 4.31298828 5.1953125 6.8203125 C5.18564453 8.16416016 5.18564453 8.16416016 5.17578125 9.53515625 C5.15902344 10.47230469 5.14226562 11.40945313 5.125 12.375 C5.11597656 13.31988281 5.10695312 14.26476562 5.09765625 15.23828125 C5.07404668 17.57562827 5.03817494 19.91284549 5 22.25 C9.95 22.25 14.9 22.25 20 22.25 C19.97679687 20.82945312 19.95359375 19.40890625 19.9296875 17.9453125 C19.91093229 16.08854691 19.89273183 14.23177565 19.875 12.375 C19.85824219 11.43785156 19.84148437 10.50070312 19.82421875 9.53515625 C19.81777344 8.63925781 19.81132812 7.74335937 19.8046875 6.8203125 C19.79421387 5.99289551 19.78374023 5.16547852 19.77294922 4.31298828 C20 2.25 20 2.25 22 0.25 C25 0 25 0 28 0.25 C30.50944305 2.75944305 30.2525033 3.56764087 30.25878906 7.03515625 C30.26509338 8.0295874 30.27139771 9.02401855 30.27789307 10.04858398 C30.2738446 11.12567627 30.26979614 12.20276855 30.265625 13.3125 C30.26849518 14.96584351 30.26849518 14.96584351 30.27142334 16.65258789 C30.27278612 18.98616768 30.26908322 21.31975503 30.26074219 23.65332031 C30.25004421 27.23519847 30.26063458 30.81657503 30.2734375 34.3984375 C30.27211592 36.66145945 30.26955357 38.92448108 30.265625 41.1875 C30.26967346 42.26459229 30.27372192 43.34168457 30.27789307 44.45141602 C30.27158875 45.44584717 30.26528442 46.44027832 30.25878906 47.46484375 C30.25719788 48.34261475 30.25560669 49.22038574 30.25396729 50.12475586 C30 52.25 30 52.25 28 54.25 C25 54.5 25 54.5 22 54.25 C20 52.25 20 52.25 19.77294922 50.18701172 C19.78342285 49.35959473 19.79389648 48.53217773 19.8046875 47.6796875 C19.81113281 46.78378906 19.81757813 45.88789062 19.82421875 44.96484375 C19.84097656 44.02769531 19.85773438 43.09054687 19.875 42.125 C19.88402344 41.18011719 19.89304687 40.23523438 19.90234375 39.26171875 C19.92595332 36.92437173 19.96182506 34.58715451 20 32.25 C15.05 32.25 10.1 32.25 5 32.25 C5.02320313 33.67054688 5.04640625 35.09109375 5.0703125 36.5546875 C5.08906771 38.41145309 5.10726817 40.26822435 5.125 42.125 C5.14175781 43.06214844 5.15851563 43.99929688 5.17578125 44.96484375 C5.18222656 45.86074219 5.18867188 46.75664063 5.1953125 47.6796875 C5.20578613 48.50710449 5.21625977 49.33452148 5.22705078 50.18701172 C5 52.25 5 52.25 3 54.25 C0 54.5 0 54.5 -3 54.25 C-5.50944305 51.74055695 -5.2525033 50.93235913 -5.25878906 47.46484375 C-5.26509338 46.4704126 -5.27139771 45.47598145 -5.27789307 44.45141602 C-5.2738446 43.37432373 -5.26979614 42.29723145 -5.265625 41.1875 C-5.26753845 40.085271 -5.2694519 38.98304199 -5.27142334 37.84741211 C-5.27278612 35.51383232 -5.26908322 33.18024497 -5.26074219 30.84667969 C-5.25004421 27.26480153 -5.26063458 23.68342497 -5.2734375 20.1015625 C-5.27211592 17.83854055 -5.26955357 15.57551892 -5.265625 13.3125 C-5.26967346 12.23540771 -5.27372192 11.15831543 -5.27789307 10.04858398 C-5.27158875 9.05415283 -5.26528442 8.05972168 -5.25878906 7.03515625 C-5.25719788 6.15738525 -5.25560669 5.27961426 -5.25396729 4.37524414 C-4.82176607 0.75850625 -3.47994502 0.28999542 0 0 Z " fill="#383838" transform="translate(247,979.75)"/>
<path d="M0 0 C1.81492188 2.82424463 2.24276964 5.00612538 2.1953125 8.328125 C2.18564453 9.52695312 2.18564453 9.52695312 2.17578125 10.75 C2.15902344 11.575 2.14226562 12.4 2.125 13.25 C2.11146484 14.51070312 2.11146484 14.51070312 2.09765625 15.796875 C2.07415817 17.86470604 2.03828908 19.93238995 2 22 C6.95 22 11.9 22 17 22 C16.90460938 20.74703125 16.80921875 19.4940625 16.7109375 18.203125 C16.59836921 16.5521234 16.48642253 14.90107933 16.375 13.25 C16.27832031 12.0125 16.27832031 12.0125 16.1796875 10.75 C16.10234375 9.55117188 16.10234375 9.55117188 16.0234375 8.328125 C15.97106934 7.5949707 15.91870117 6.86181641 15.86474609 6.10644531 C16.02574944 3.59897807 16.63973852 2.10342591 18 0 C20.4375 -0.875 20.4375 -0.875 23 -1 C23.99 -0.34 24.98 0.32 26 1 C26.3742218 3.16320801 26.3742218 3.16320801 26.37231445 5.87695312 C26.38165764 7.39863098 26.38165764 7.39863098 26.39118958 8.9510498 C26.38197983 10.05001587 26.37277008 11.14898193 26.36328125 12.28125 C26.36402901 13.96788757 26.36402901 13.96788757 26.36479187 15.68859863 C26.3624482 18.06927251 26.35270257 20.44994871 26.33618164 22.83056641 C26.31259729 26.48492473 26.31561765 30.13855374 26.32226562 33.79296875 C26.31668896 36.10156687 26.30957916 38.41016191 26.30078125 40.71875 C26.30214836 42.3671991 26.30214836 42.3671991 26.30354309 44.0489502 C26.29401108 45.0634021 26.28447906 46.077854 26.2746582 47.12304688 C26.27005081 48.01858276 26.26544342 48.91411865 26.26069641 49.83679199 C26 52 26 52 24 54 C21.5 54.25 21.5 54.25 19 54 C17 52 17 52 16.77294922 49.84521484 C16.78342285 48.97590332 16.79389648 48.1065918 16.8046875 47.2109375 C16.81113281 46.26992188 16.81757813 45.32890625 16.82421875 44.359375 C16.84097656 43.37453125 16.85773438 42.3896875 16.875 41.375 C16.88402344 40.38242187 16.89304687 39.38984375 16.90234375 38.3671875 C16.92595751 35.91135612 16.9618293 33.45564826 17 31 C12.05 31 7.1 31 2 31 C2.03480469 32.32515625 2.06960938 33.6503125 2.10546875 35.015625 C2.13361035 36.76040398 2.16091011 38.50519668 2.1875 40.25 C2.21263672 41.12269531 2.23777344 41.99539063 2.26367188 42.89453125 C2.3376353 49.35400413 2.3376353 49.35400413 0.6484375 52.5859375 C-1 54 -1 54 -3.5625 54.375 C-6 54 -6 54 -8 52 C-8.31884766 49.73535156 -8.31884766 49.73535156 -8.4140625 46.890625 C-8.45297607 45.83568848 -8.49188965 44.78075195 -8.53198242 43.69384766 C-8.57802612 41.98914307 -8.57802612 41.98914307 -8.625 40.25 C-8.66149658 39.09161621 -8.69799316 37.93323242 -8.7355957 36.73974609 C-8.83996168 33.16001759 -8.92452349 29.58044799 -9 26 C-9.02336426 24.90526367 -9.04672852 23.81052734 -9.07080078 22.68261719 C-9.12633343 19.66332132 -9.1623957 16.64468889 -9.1875 13.625 C-9.20055176 12.71137695 -9.21360352 11.79775391 -9.22705078 10.85644531 C-9.22817871 10.00920898 -9.22930664 9.16197266 -9.23046875 8.2890625 C-9.23457764 7.55381348 -9.23868652 6.81856445 -9.24291992 6.06103516 C-8.95859917 3.64873792 -8.27475157 2.05966675 -7 0 C-4.25509788 -1.37245106 -2.87939419 -0.93580311 0 0 Z " fill="#373737" transform="translate(391,828)"/>
<path d="M0 0 C1.0209375 0.86625 1.0209375 0.86625 2.0625 1.75 C2.784375 2.348125 3.50625 2.94625 4.25 3.5625 C9.13490368 9.45807341 8.42904268 16.86861659 8.4375 24.125 C8.46199219 25.22328125 8.48648438 26.3215625 8.51171875 27.453125 C8.53659613 34.36903588 7.82829041 38.89739071 4.0625 44.75 C-1.46489996 49.24101247 -5.88057544 50.34804445 -12.9375 49.75 C-17.79080757 47.88178119 -21.04108752 45.09461873 -23.9375 40.75 C-25.67604506 35.53436483 -25.20696586 30.02209733 -25.25 24.5625 C-25.27900391 23.35529297 -25.30800781 22.14808594 -25.33789062 20.90429688 C-25.38916904 13.68981845 -24.94507993 8.82624079 -20.9375 2.75 C-14.88523072 -2.19062798 -7.26214398 -3.09027403 0 0 Z M-13.9375 9.75 C-15.99000439 13.85500878 -15.21069834 19.11316944 -15.25 23.625 C-15.27900391 24.72714844 -15.30800781 25.82929687 -15.33789062 26.96484375 C-15.34626953 28.02574219 -15.35464844 29.08664062 -15.36328125 30.1796875 C-15.37786377 31.15147949 -15.39244629 32.12327148 -15.4074707 33.12451172 C-14.8028489 36.5022275 -13.6379354 37.69429469 -10.9375 39.75 C-7.80801034 39.68613286 -5.82339266 39.40382958 -3.28320312 37.52905273 C-0.44307869 33.77433815 -1.42692456 28.33085648 -1.4375 23.8125 C-1.40914062 22.71486328 -1.38078125 21.61722656 -1.3515625 20.48632812 C-1.19931585 14.20579628 -1.19931585 14.20579628 -4.28125 8.99609375 C-8.19371905 7.16068548 -10.34271224 7.59312735 -13.9375 9.75 Z " fill="#373737" transform="translate(176.9375,750.25)"/>
<path d="M0 0 C4.66756358 4.32603454 7.3074755 8.49051313 7.72363281 14.8293457 C7.76919554 17.78218142 7.79774344 20.73434264 7.8125 23.6875 C7.833125 24.70779297 7.85375 25.72808594 7.875 26.77929688 C7.91064284 33.6717302 7.53275604 38.91544425 2.87890625 44.3359375 C2.30011719 44.80257812 1.72132813 45.26921875 1.125 45.75 C0.26068359 46.47316406 0.26068359 46.47316406 -0.62109375 47.2109375 C-4.59307199 49.75642033 -8.82456915 49.76592634 -13.4375 49.375 C-18.29080757 47.50678119 -21.54108752 44.71961873 -24.4375 40.375 C-26.22416239 35.01501283 -25.750074 29.29732735 -25.8125 23.6875 C-25.86857422 21.80514648 -25.86857422 21.80514648 -25.92578125 19.88476562 C-25.99601516 12.47508853 -25.62733043 6.97330686 -20.4375 1.375 C-14.58141935 -3.08677573 -6.4955026 -3.07060123 0 0 Z M-14.4375 9.375 C-16.49000439 13.48000878 -15.71069834 18.73816944 -15.75 23.25 C-15.77900391 24.35214844 -15.80800781 25.45429687 -15.83789062 26.58984375 C-15.84626953 27.65074219 -15.85464844 28.71164062 -15.86328125 29.8046875 C-15.87786377 30.77647949 -15.89244629 31.74827148 -15.9074707 32.74951172 C-15.30282689 36.12735046 -14.13543506 37.3163298 -11.4375 39.375 C-8.34101124 39.53948881 -8.34101124 39.53948881 -5.4375 38.375 C-1.24166156 33.94076164 -1.92248095 29.22358791 -1.9375 23.4375 C-1.90914063 22.44814453 -1.88078125 21.45878906 -1.8515625 20.43945312 C-1.83857761 15.61231853 -1.8593665 13.16222512 -4.78125 9.18359375 C-8.58492362 6.5937395 -10.66372709 7.11073626 -14.4375 9.375 Z " fill="#373737" transform="translate(310.4375,750.625)"/>
<path d="M0 0 C3.00564125 2.07532372 5.3515606 3.93726781 7.625 6.8125 C8.0625 10 8.0625 10 7.625 12.8125 C5.625 14.8125 5.625 14.8125 3.4375 15.3125 C0.21983645 14.74047092 -0.50307037 13.95213312 -2.8125 11.75 C-5.66466435 9.06841901 -5.66466435 9.06841901 -9.625 8.75 C-12.46872296 9.84871114 -13.57628429 10.40719164 -15.375 12.8125 C-16.02734049 17.26142273 -15.83808476 21.75871135 -15.8125 26.25 C-15.83248047 27.49072266 -15.85246094 28.73144531 -15.87304688 30.00976562 C-15.87240234 31.20150391 -15.87175781 32.39324219 -15.87109375 33.62109375 C-15.87294678 34.71220459 -15.8747998 35.80331543 -15.87670898 36.92749023 C-15.25957843 40.47621617 -14.2194272 41.66302722 -11.375 43.8125 C-7.90017825 44.16707365 -5.69122581 43.9179086 -2.375 42.8125 C-1.21978498 40.34119082 -1.21978498 40.34119082 -0.375 37.8125 C0.625 36.8125 0.625 36.8125 3.5625 36.5625 C4.573125 36.645 5.58375 36.7275 6.625 36.8125 C8.625 39.8125 8.625 39.8125 8.5625 42.625 C6.9361259 48.15467193 4.18052335 50.93201509 -0.6875 53.6875 C-6.62292918 55.4983089 -11.02182693 55.68229235 -16.625 53.125 C-21.36009735 50.4974852 -24.34248829 46.81012572 -26.375 41.8125 C-26.77310234 37.59060791 -26.74661292 33.37217931 -26.74560547 29.1328125 C-26.7499576 27.08247462 -26.78623836 25.03432938 -26.82421875 22.984375 C-26.84911211 14.55382336 -26.60328176 8.33271213 -20.62109375 1.9375 C-14.00653331 -2.1769566 -7.33904399 -2.58225622 0 0 Z " fill="#373737" transform="translate(361.375,827.1875)"/>
<path d="M0 0 C4.55714699 3.15494791 8.23368688 6.65116477 10 12 C10.62219589 16.86571165 10.58700482 21.27567334 9 25.9375 C4.88266487 30.18350186 -0.26901872 31.82058563 -5.875 33.3125 C-8.14933894 33.93193826 -8.14933894 33.93193826 -10 35 C-10.74259349 37.31029085 -11.411438 39.645752 -12 42 C-17.07558513 45.14686278 -21.11955945 45.30949687 -27 45 C-28.58543507 41.82912985 -28.34065437 39.52009516 -28 36 C-25.55150551 29.51648653 -21.27763159 26.49223925 -15.3046875 23.32421875 C-13.09929463 22.05705234 -11.58378922 20.98100967 -10 19 C-9.57521414 14.92205575 -9.68717413 13.46923881 -12 10 C-14.40144267 10.1957792 -14.40144267 10.1957792 -17 11 C-17.43828125 11.66773438 -17.8765625 12.33546875 -18.328125 13.0234375 C-20 15 -20 15 -22.55859375 15.4609375 C-23.50863281 15.43257812 -24.45867187 15.40421875 -25.4375 15.375 C-26.38496094 15.36210938 -27.33242187 15.34921875 -28.30859375 15.3359375 C-30.98615294 15.00172837 -32.69487126 14.36236923 -35 13 C-34.7617224 8.94928083 -34.4373693 6.56990545 -31.9375 3.3125 C-22.31450425 -4.26304984 -11.15821149 -5.67698479 0 0 Z M-31 6 C-32.33298974 8.61818456 -32.33298974 8.61818456 -33 11 C-31.32171592 11.96624167 -31.32171592 11.96624167 -29 12 C-25.84151217 9.67348492 -25.84151217 9.67348492 -23 7 C-19.93570224 5.46785112 -17.3834358 5.77061452 -14 6 C-10.83385617 7.33681628 -9.41625241 8.3188597 -7.625 11.25 C-6.78280433 14.95566094 -6.95284582 17.33496037 -8 21 C-10.61525173 23.68063302 -13.19597109 25.48196795 -16.328125 27.5 C-17.12734375 28.015625 -17.9265625 28.53125 -18.75 29.0625 C-19.50796875 29.52785156 -20.2659375 29.99320313 -21.046875 30.47265625 C-23.23922373 32.18707296 -24.05833827 33.39803997 -25 36 C-25.0777346 38.33203812 -25.08967728 40.66839059 -25 43 C-22.03 42.505 -22.03 42.505 -19 42 C-18.855625 40.9275 -18.71125 39.855 -18.5625 38.75 C-17.83786926 36.1590541 -17.37912973 35.23916703 -15.07421875 33.78515625 C-13.49950457 33.12615821 -11.91275279 32.49534054 -10.31640625 31.890625 C-5.0808623 29.8776334 -0.88759862 26.81266437 2 22 C3.3485758 16.68444574 3.49629313 11.99258626 1 7 C-3.29194152 1.40747014 -8.79358847 -0.38442758 -15.5625 -1.375 C-21.47609274 -0.4652165 -26.73301796 1.73301796 -31 6 Z " fill="#323232" transform="translate(1398,630)"/>
<path d="M0 0 C0.6875 2.3125 0.6875 2.3125 1 5 C-1.3399664 8.05298126 -4.6475068 9.66534321 -7.9453125 11.5390625 C-8.80103348 12.02854874 -8.80103348 12.02854874 -9.67404175 12.52792358 C-11.48847204 13.56484293 -13.3065133 14.59521394 -15.125 15.625 C-16.94996703 16.66303702 -18.77414287 17.7024301 -20.59738159 18.74349976 C-22.2458409 19.6840708 -23.8965507 20.62069429 -25.54736328 21.55712891 C-27.86780027 22.78416026 -27.86780027 22.78416026 -29 24 C-29.1353109 26.56824276 -29.21051939 29.11343627 -29.24609375 31.68359375 C-29.27902828 33.26628165 -29.31224 34.84896381 -29.34570312 36.43164062 C-29.39317606 38.93786706 -29.43760276 41.4440695 -29.47680664 43.95043945 C-29.51642951 46.36174037 -29.56799484 48.77255732 -29.62109375 51.18359375 C-29.6295079 51.9357164 -29.63792206 52.68783905 -29.64659119 53.4627533 C-29.77332648 58.77332648 -29.77332648 58.77332648 -32 61 C-34.5625 60.75 -34.5625 60.75 -37 60 C-39.53791557 54.92416887 -38.48231018 47.1562423 -38.56982422 41.51611328 C-38.60647417 39.67875083 -38.66103648 37.84165452 -38.73388672 36.00537109 C-39.32491874 20.87549608 -39.32491874 20.87549608 -36.35205078 16.66723633 C-33.97541483 15.05841613 -31.66555979 14.05782313 -29 13 C-27.12210668 11.8951023 -25.26046785 10.7622183 -23.4140625 9.60546875 C-21.48593643 8.46350535 -19.55623108 7.32420447 -17.625 6.1875 C-16.14966797 5.31061523 -16.14966797 5.31061523 -14.64453125 4.41601562 C-13.70222656 3.85978516 -12.75992188 3.30355469 -11.7890625 2.73046875 C-10.94037598 2.22926514 -10.09168945 1.72806152 -9.21728516 1.21166992 C-5.70067976 -0.71003373 -3.78658753 -1.17514786 0 0 Z " fill="#373A3B" transform="translate(238,854)"/>
<path d="M0 0 C0.88727783 0.58990723 1.77455566 1.17981445 2.6887207 1.78759766 C3.948183 2.49273014 5.21263916 3.18915941 6.4855957 3.86962891 C7.94739258 4.72621094 7.94739258 4.72621094 9.4387207 5.60009766 C10.44418945 6.18404297 11.4496582 6.76798828 12.4855957 7.36962891 C13.21262695 7.83755859 13.9396582 8.30548828 14.6887207 8.78759766 C14.6887207 9.11759766 14.6887207 9.44759766 14.6887207 9.78759766 C11.29190027 10.17580571 10.05197526 10.07437757 7.3137207 7.91259766 C6.4474707 7.21134766 5.5812207 6.51009766 4.6887207 5.78759766 C2.36963385 4.90644148 0.11250278 4.35789932 -2.3112793 3.78759766 C-1.8162793 5.27259766 -1.8162793 5.27259766 -1.3112793 6.78759766 C-1.7487793 8.97509766 -1.7487793 8.97509766 -2.3112793 10.78759766 C-2.9712793 10.78759766 -3.6312793 10.78759766 -4.3112793 10.78759766 C-4.3112793 11.44759766 -4.3112793 12.10759766 -4.3112793 12.78759766 C-6.02368164 14.02441406 -6.02368164 14.02441406 -8.3972168 15.38916016 C-9.24541992 15.87900391 -10.09362305 16.36884766 -10.9675293 16.87353516 C-11.8647168 17.38142578 -12.7619043 17.88931641 -13.6862793 18.41259766 C-14.57573242 18.92822266 -15.46518555 19.44384766 -16.3815918 19.97509766 C-23.03833783 23.78759766 -23.03833783 23.78759766 -25.3112793 23.78759766 C-25.6412793 25.10759766 -25.9712793 26.42759766 -26.3112793 27.78759766 C-27.1156543 27.91134766 -27.9200293 28.03509766 -28.7487793 28.16259766 C-29.5944043 28.36884766 -30.4400293 28.57509766 -31.3112793 28.78759766 C-32.80416255 31.77336415 -32.49664243 34.54993542 -32.55737305 37.87744141 C-32.59030731 39.31559863 -32.62351903 40.75374952 -32.65698242 42.19189453 C-32.70442393 44.46097518 -32.74886454 46.73002937 -32.78808594 48.99926758 C-32.82779635 51.18809586 -32.87933743 53.37640115 -32.93237305 55.56494141 C-32.9574292 56.87712646 -32.98248535 58.18931152 -33.00830078 59.54125977 C-33.3112793 62.78759766 -33.3112793 62.78759766 -35.3112793 65.78759766 C-35.9712793 65.45759766 -36.6312793 65.12759766 -37.3112793 64.78759766 C-36.8162793 64.29259766 -36.8162793 64.29259766 -36.3112793 63.78759766 C-36.26250362 61.26593321 -36.2721206 58.76524754 -36.3112793 56.24462891 C-36.31243836 54.68017567 -36.31105385 53.11571887 -36.30737305 51.55126953 C-36.30296233 49.0790632 -36.31105979 46.61063513 -36.36254883 44.13891602 C-36.62278252 30.49856143 -36.62278252 30.49856143 -33.59033203 26.54248047 C-31.23544212 24.95063185 -28.93293576 23.87925521 -26.3112793 22.78759766 C-24.64385737 21.81119857 -22.98878362 20.81341992 -21.34643555 19.79541016 C-19.69067223 18.83139375 -18.03311266 17.87045598 -16.3737793 16.91259766 C-15.52493164 16.41501953 -14.67608398 15.91744141 -13.80151367 15.40478516 C-12.99133789 14.93556641 -12.18116211 14.46634766 -11.34643555 13.98291016 C-10.6181958 13.56025879 -9.88995605 13.13760742 -9.13964844 12.70214844 C-7.3112793 11.78759766 -7.3112793 11.78759766 -5.3112793 11.78759766 C-5.3112793 9.47759766 -5.3112793 7.16759766 -5.3112793 4.78759766 C-12.41425157 5.05358968 -17.32228981 8.4145495 -23.2487793 12.10009766 C-25.15219027 13.26537231 -27.05711364 14.42818055 -28.96362305 15.58837891 C-29.86709473 16.1383252 -30.77056641 16.68827148 -31.70141602 17.25488281 C-35.16027413 19.2861935 -38.6934043 21.05768104 -42.3112793 22.78759766 C-42.6412793 21.79759766 -42.9712793 20.80759766 -43.3112793 19.78759766 C-44.9612793 19.78759766 -46.6112793 19.78759766 -48.3112793 19.78759766 C-48.3112793 35.62759766 -48.3112793 51.46759766 -48.3112793 67.78759766 C-48.9712793 67.45759766 -49.6312793 67.12759766 -50.3112793 66.78759766 C-50.74486757 60.27966733 -51.04091396 53.77547548 -51.24511719 47.25634766 C-51.33025744 45.04367048 -51.4460316 42.8319405 -51.59375 40.62255859 C-52.75345813 22.82164066 -52.75345813 22.82164066 -48.78622437 17.89294434 C-44.79269491 14.61035962 -40.25816174 12.651239 -35.49441528 10.73284912 C-32.30472644 9.35178167 -29.67685466 7.52286924 -26.82299805 5.53759766 C-25.84911133 4.91111328 -24.87522461 4.28462891 -23.87182617 3.63916016 C-21.91388523 2.37734641 -19.97938903 1.07857471 -18.06713867 -0.25146484 C-10.78850529 -4.80970294 -7.30512022 -4.44163664 0 0 Z " fill="#5FF8FD" transform="translate(243.311279296875,849.21240234375)"/>
<path d="M0 0 C2 2 2 2 2.4375 4.375 C1.81462299 8.11226208 0.03167824 8.80527709 -3 11 C-6.95732492 13.50839058 -11.00653906 15.85354391 -15.06542969 18.19262695 C-17.00220045 19.31377379 -18.9265687 20.45448482 -20.8515625 21.59570312 C-22.08782511 22.31113547 -23.32478153 23.02537055 -24.5625 23.73828125 C-25.67753906 24.38837158 -26.79257812 25.03846191 -27.94140625 25.70825195 C-31.28860647 27.12188832 -32.65209872 27.34261727 -36 26 C-38 23 -38 23 -37.859375 21 C-34.88142562 14.06949963 -22.47940523 9.21977758 -16.25 5.5625 C-14.88343262 4.74555664 -14.88343262 4.74555664 -13.48925781 3.91210938 C-5.03613185 -0.958132 -5.03613185 -0.958132 0 0 Z " fill="#383838" transform="translate(298,923)"/>
<path d="M0 0 C4.00935086 0.09324072 6.2477554 0.32038592 9.265625 3.046875 C9.92046875 3.93890625 10.5753125 4.8309375 11.25 5.75 C12.00023437 6.73742187 12.75046875 7.72484375 13.5234375 8.7421875 C13.91885742 9.27038086 14.31427734 9.79857422 14.72167969 10.34277344 C17.42576742 13.84837839 20.3797853 17.15358349 23.28222656 20.49511719 C25.85874209 23.50513569 28.2376149 26.43876666 30 30 C29.33719617 32.43028072 28.7989028 34.2010972 27 36 C24.83203125 36.4921875 24.83203125 36.4921875 22 36 C19.57608774 33.97967822 17.66638688 31.57278562 15.6875 29.125 C15.11789551 28.44332764 14.54829102 27.76165527 13.96142578 27.05932617 C12.29145623 25.05219218 10.64288683 23.02932752 9 21 C8.16855469 19.98292969 7.33710938 18.96585938 6.48046875 17.91796875 C4.63043571 15.62859577 2.80060174 13.32836432 1 11 C0.44183594 10.30519531 -0.11632812 9.61039063 -0.69140625 8.89453125 C-2.39048699 6.43466809 -2.38545418 4.92945175 -2 2 C-1.34 1.34 -0.68 0.68 0 0 Z " fill="#373737" transform="translate(320,789)"/>
<path d="M0 0 C3.44103566 3.44103566 2.30365487 8.40051695 2.32226562 13.04882812 C2.32009033 13.7688501 2.31791504 14.48887207 2.31567383 15.23071289 C2.31251683 17.42579921 2.33595761 19.61953385 2.36132812 21.81445312 C2.36360143 23.20833163 2.36430447 24.60221377 2.36328125 25.99609375 C2.36626221 27.26638428 2.36924316 28.5366748 2.37231445 29.84545898 C2 33 2 33 0.63745117 34.94946289 C-1 36 -1 36 -3.5625 35.8125 C-6 35 -6 35 -8 33 C-8.39863496 28.74257862 -8.32902541 24.47052426 -8.31567383 20.1965332 C-8.31251689 18.07385794 -8.33595761 15.95258064 -8.36132812 13.83007812 C-8.36360146 12.48177259 -8.36430446 11.13346331 -8.36328125 9.78515625 C-8.36626221 8.55676025 -8.36924316 7.32836426 -8.37231445 6.06274414 C-8 3 -8 3 -6.63745117 1.09545898 C-4.32267678 -0.45313095 -2.72202537 -0.34897761 0 0 Z " fill="#373737" transform="translate(298,853)"/>
<path d="M0 0 C1.0209375 0.4021875 1.0209375 0.4021875 2.0625 0.8125 C2.85546875 4.0078125 2.85546875 4.0078125 3.0625 7.8125 C1.17578125 10.3671875 1.17578125 10.3671875 -1.625 12.6875 C-2.63175781 13.52667969 -3.63851563 14.36585938 -4.67578125 15.23046875 C-5.76282828 16.09138902 -6.85007048 16.95206291 -7.9375 17.8125 C-9.01486813 18.70376843 -10.09169587 19.59569053 -11.16796875 20.48828125 C-19.07924155 26.84397351 -19.07924155 26.84397351 -22.70703125 26.7109375 C-24.9375 25.8125 -24.9375 25.8125 -26.25 23.25 C-26.476875 22.445625 -26.70375 21.64125 -26.9375 20.8125 C-21.98030928 14.51552801 -16.24118528 9.73065911 -9.9375 4.8125 C-9.24785156 4.2453125 -8.55820312 3.678125 -7.84765625 3.09375 C-5.07011155 0.9057498 -3.60626407 -0.23018707 0 0 Z " fill="#373737" transform="translate(273.9375,794.1875)"/>
<path d="M0 0 C0.99 0.66 1.98 1.32 3 2 C3.30279086 4.92104126 3.41810841 7.58299784 3.375 10.5 C3.38660156 11.28503906 3.39820313 12.07007813 3.41015625 12.87890625 C3.3984375 15.15625 3.3984375 15.15625 3 19 C2.01 19.66 1.02 20.32 0 21 C-3.96 18.69 -7.92 16.38 -12 14 C-12 15.65 -12 17.3 -12 19 C-13.32 19.33 -14.64 19.66 -16 20 C-17.51714839 16.96570323 -17.14363916 13.82398333 -17.125 10.5 C-17.12886719 9.81035156 -17.13273438 9.12070312 -17.13671875 8.41015625 C-17.12666646 3.25333293 -17.12666646 3.25333293 -16 1 C-14.02 1.495 -14.02 1.495 -12 2 C-12 3.65 -12 5.3 -12 7 C-8.04 4.69 -4.08 2.38 0 0 Z " fill="#343434" transform="translate(270,652)"/>
<path d="M0 0 C4.56203998 0.57132089 7.68912417 2.39332321 11.5625 4.8125 C13.23505859 5.84310547 13.23505859 5.84310547 14.94140625 6.89453125 C17.63757558 8.75051499 19.79312081 10.59887228 22 13 C20.125 18.875 20.125 18.875 19 20 C18.8775669 21.50316769 18.82223715 23.01188167 18.79467773 24.51977539 C18.77473251 25.48069595 18.75478729 26.44161652 18.73423767 27.43165588 C18.70916893 28.99882607 18.70916893 28.99882607 18.68359375 30.59765625 C18.66281265 31.66165146 18.64203156 32.72564667 18.62062073 33.82188416 C18.55500746 37.2353544 18.49618577 40.64890429 18.4375 44.0625 C18.39432597 46.37045109 18.35071206 48.678394 18.30664062 50.98632812 C18.19931416 56.65746682 18.09757008 62.32868552 18 68 C16.515 67.505 16.515 67.505 15 67 C15.66 67 16.32 67 17 67 C20.64338333 39.95228538 20.64338333 39.95228538 13.44921875 15.30273438 C7.72124864 9.88793381 0.17816934 7.10519098 -7.28857422 4.95581055 C-9.98911546 4.00383693 -11.21358619 3.18798974 -13 1 C-11.68 1 -10.36 1 -9 1 C-9 1.66 -9 2.32 -9 3 C-6.03 3 -3.06 3 0 3 C0 2.01 0 1.02 0 0 Z " fill="#343C44" transform="translate(259,850)"/>
<path d="M0 0 C3.12492251 -0.05791844 6.24970766 -0.09356746 9.375 -0.125 C10.26445313 -0.14175781 11.15390625 -0.15851562 12.0703125 -0.17578125 C12.92109375 -0.18222656 13.771875 -0.18867187 14.6484375 -0.1953125 C15.82672119 -0.21102295 15.82672119 -0.21102295 17.02880859 -0.22705078 C19 0 19 0 21 2 C21.22705078 3.87939453 21.22705078 3.87939453 21.1953125 6.1328125 C21.18886719 6.93847656 21.18242188 7.74414062 21.17578125 8.57421875 C21.15902344 9.41597656 21.14226562 10.25773438 21.125 11.125 C21.11597656 11.97449219 21.10695313 12.82398438 21.09765625 13.69921875 C21.07405647 15.79959884 21.03818483 17.89983444 21 20 C20.38125 20.2475 19.7625 20.495 19.125 20.75 C16.62519797 22.22047178 16.16683978 23.41403076 15 26 C11.85418577 26.02888514 8.70840531 26.04675923 5.5625 26.0625 C4.66466797 26.07087891 3.76683594 26.07925781 2.84179688 26.08789062 C1.56079102 26.09272461 1.56079102 26.09272461 0.25390625 26.09765625 C-0.53685303 26.10289307 -1.3276123 26.10812988 -2.14233398 26.11352539 C-4 26 -4 26 -5 25 C-5.08651611 23.58429877 -5.10704904 22.164405 -5.09765625 20.74609375 C-5.09443359 19.89208984 -5.09121094 19.03808594 -5.08789062 18.15820312 C-5.07951172 17.26037109 -5.07113281 16.36253906 -5.0625 15.4375 C-5.05798828 14.53580078 -5.05347656 13.63410156 -5.04882812 12.70507812 C-5.03700225 10.46998686 -5.0205222 8.23502563 -5 6 C-4.360625 5.7525 -3.72125 5.505 -3.0625 5.25 C-0.81258459 4.18437567 -0.81258459 4.18437567 -0.25 1.875 C-0.1675 1.25625 -0.085 0.6375 0 0 Z M2 2 C2 7.61 2 13.22 2 19 C7.28 19 12.56 19 18 19 C18 13.39 18 7.78 18 2 C12.72 2 7.44 2 2 2 Z M-3 7 C-3.02684679 9.64590014 -3.04676357 12.29153096 -3.0625 14.9375 C-3.07087891 15.69224609 -3.07925781 16.44699219 -3.08789062 17.22460938 C-3.09652441 19.14994313 -3.05224333 21.07535581 -3 23 C-1.81147145 24.41774838 -1.81147145 24.41774838 1.59765625 24.09765625 C3.08596867 24.0909822 4.57426432 24.07902183 6.0625 24.0625 C6.82111328 24.05798828 7.57972656 24.05347656 8.36132812 24.04882812 C10.24091871 24.0370068 12.12046899 24.01907078 14 24 C14 23.34 14 22.68 14 22 C13.07316406 21.93941406 12.14632813 21.87882813 11.19140625 21.81640625 C9.99386719 21.73261719 8.79632812 21.64882813 7.5625 21.5625 C6.36753906 21.48128906 5.17257812 21.40007813 3.94140625 21.31640625 C1 21 1 21 0 20 C-0.23481693 17.81707226 -0.41363323 15.62796826 -0.5625 13.4375 C-0.64628906 12.23996094 -0.73007813 11.04242187 -0.81640625 9.80859375 C-0.87699219 8.88175781 -0.93757813 7.95492187 -1 7 C-1.66 7 -2.32 7 -3 7 Z " fill="#616161" transform="translate(1738,679)"/>
<path d="M0 0 C3.96 1.98 7.92 3.96 12 6 C12.66 4.35 13.32 2.7 14 1 C15.32 1.33 16.64 1.66 18 2 C18 7.61 18 13.22 18 19 C16.68 19.33 15.36 19.66 14 20 C13.34 18.35 12.68 16.7 12 15 C8.04 16.98 4.08 18.96 0 21 C-1.55606751 19.44393249 -1.12970769 17.94042629 -1.1328125 15.78125 C-1.13410156 14.93175781 -1.13539063 14.08226562 -1.13671875 13.20703125 C-1.13285156 12.31371094 -1.12898438 11.42039062 -1.125 10.5 C-1.12886719 9.60667969 -1.13273437 8.71335937 -1.13671875 7.79296875 C-1.13542969 6.94347656 -1.13414062 6.09398437 -1.1328125 5.21875 C-1.13168457 4.43435547 -1.13055664 3.64996094 -1.12939453 2.84179688 C-1 1 -1 1 0 0 Z " fill="#353535" transform="translate(391,652)"/>
<path d="M0 0 C0 14.85 0 29.7 0 45 C1.65 45.33 3.3 45.66 5 46 C4.38125 46.144375 3.7625 46.28875 3.125 46.4375 C0.96741678 46.93152225 0.96741678 46.93152225 -1 48 C-0.01 48.66 0.98 49.32 2 50 C2 50.66 2 51.32 2 52 C2.99 52 3.98 52 5 52 C5.33 52.99 5.66 53.98 6 55 C1.58282601 53.39375491 -1.77256518 51.41567704 -6 49 C-6 32.83 -6 16.66 -6 0 C-3 -1 -3 -1 0 0 Z " fill="#54FEFF" transform="translate(201,869)"/>
<path d="M0 0 C2.14533843 1.9167368 3.9069303 3.70405267 5.75 5.875 C6.24371094 6.43058594 6.73742187 6.98617187 7.24609375 7.55859375 C11.20780545 12.06300568 12.12976399 14.03085635 12 20 C10.02 20.66 8.04 21.32 6 22 C2.82251035 18.9218069 -0.24024712 15.74252154 -3.25 12.5 C-3.93578125 11.7678125 -4.6215625 11.035625 -5.328125 10.28125 C-7.16899013 7.76941534 -7.74157869 6.08555049 -8 3 C-5.92134412 -0.34894559 -3.74703228 -0.60315477 0 0 Z " fill="#373737" transform="translate(321,804)"/>
<path d="M0 0 C3.00638695 0.11628661 3.00638695 0.11628661 5.875 -0.6875 C9.73010685 -1.07301068 10.98843355 -0.36041695 14 2 C15.875 3.75 15.875 3.75 17 6 C17 10.12544646 16.55161087 12.29324857 14 15.5625 C5.28265525 22.64534261 5.28265525 22.64534261 2 24 C-1.83819453 23.0359323 -4.61026338 20.99189733 -7.6875 18.5625 C-8.45449219 17.96566406 -9.22148437 17.36882813 -10.01171875 16.75390625 C-12.94120697 14.16974081 -13.94088259 12.53205665 -14.375 8.625 C-13.94025532 4.42246805 -12.99627847 2.91067052 -10 0 C-6.28597026 -1.23800991 -3.83008202 -0.6155489 0 0 Z M-9.375 3 C-11.24791667 5.01666667 -11.24791667 5.01666667 -11.8125 8.25 C-10.73059296 13.24341713 -8.45085319 14.66321638 -4.45703125 17.6171875 C-1.80708019 19.1085749 -0.04374796 19.87596011 3 20 C5.4739432 18.72076052 5.4739432 18.72076052 7.6875 16.75 C8.45449219 16.12609375 9.22148437 15.5021875 10.01171875 14.859375 C12.1872376 12.96705325 12.1872376 12.96705325 14 10 C13.79511638 7.26821837 13.28363 5.47271667 11.875 3.125 C8.8756812 1.32540872 6.32694989 2.35795704 3 3 C-1 3 -1 3 -4 2.3125 C-6.96386779 1.76042387 -6.96386779 1.76042387 -9.375 3 Z " fill="#303030" transform="translate(191,651)"/>
<path d="M0 0 C3.13847192 2.60426394 4.71029542 4.13088625 6 8 C6.39441267 13.22596788 5.90549127 16.59166842 3 21 C-0.80721148 24.46110135 -4.7021264 24.45694497 -9.62890625 24.28125 C-12.83098709 23.90143151 -14.60659048 23.17582683 -17 21 C-19.87144486 16.84135573 -20.60178362 13.07059806 -20.41015625 8.11328125 C-19.7108308 4.51009011 -17.90236662 3.09958436 -15 1 C-9.53097949 -2.19886105 -5.66898055 -2.65027812 0 0 Z M-16 6 C-17.35040685 10.01767007 -17.44538492 12.97561468 -15.75 16.875 C-13.03189912 20.17555107 -11.40037637 20.95479622 -7.125 21.4375 C-3.7534962 21.33815551 -2.98578711 20.99002074 -0.0625 18.9375 C2.40599406 15.42176604 3 13.28616677 3 9 C1.41161066 5.42612398 0.28365642 4.18910428 -3 2 C-8.65635692 1.45261062 -12.15302887 1.33700469 -16 6 Z " fill="#2F2F2F" transform="translate(478,651)"/>
<path d="M0 0 C0.66 0 1.32 0 2 0 C2 0.66 2 1.32 2 2 C4.475 2.99 4.475 2.99 7 4 C7 4.66 7 5.32 7 6 C4 6 1 6 -2 6 C-2 6.99 -2 7.98 -2 9 C-0.35 9 1.3 9 3 9 C-0.54795486 11.97144805 -4.15977465 14.37701408 -8.17578125 16.671875 C-8.74580368 16.99915588 -9.31582611 17.32643677 -9.90312195 17.66363525 C-11.70399743 18.6964151 -13.50815937 19.72328847 -15.3125 20.75 C-16.54254075 21.45403755 -17.7723607 22.15846101 -19.00195312 22.86328125 C-21.99876363 24.57998773 -24.99854842 26.29141789 -28 28 C-28 27.01 -28 26.02 -28 25 C-27.030625 24.731875 -26.06125 24.46375 -25.0625 24.1875 C-24.051875 23.795625 -23.04125 23.40375 -22 23 C-21.67 22.01 -21.34 21.02 -21 20 C-19.02 19.67 -17.04 19.34 -15 19 C-15 18.34 -15 17.68 -15 17 C-13.68 16.34 -12.36 15.68 -11 15 C-11.66 14.34 -12.32 13.68 -13 13 C-12.67 12.34 -12.34 11.68 -12 11 C-12.66 10.67 -13.32 10.34 -14 10 C-10.71012585 6.31534095 -7.36279286 4.22105818 -3 2 C-2.01 2 -1.02 2 0 2 C0 1.34 0 0.68 0 0 Z " fill="#353A3C" transform="translate(231,836)"/>
<path d="M0 0 C3.96 0 7.92 0 12 0 C12 4.62 12 9.24 12 14 C10.35 13.67 8.7 13.34 7 13 C5.65117592 13.63474075 4.3153341 14.29848848 3 15 C2.01 14.67 1.02 14.34 0 14 C0 9.38 0 4.76 0 0 Z " fill="#5C5C5C" transform="translate(1753,886)"/>
<path d="M0 0 C0.1080023 2.10304477 0.18558987 4.20766909 0.25 6.3125 C0.29640625 7.48425781 0.3428125 8.65601563 0.390625 9.86328125 C0 13 0 13 -1.6875 14.90625 C-4.41841585 16.19789939 -6.24352291 16.30617673 -9.25 16.1875 C-10.14203125 16.16042969 -11.0340625 16.13335938 -11.953125 16.10546875 C-12.62859375 16.07066406 -13.3040625 16.03585937 -14 16 C-14.96847302 13.09458095 -15.19582812 11.03362546 -15.25 8 C-15.27578125 7.13375 -15.3015625 6.2675 -15.328125 5.375 C-15 3 -15 3 -13.765625 1.234375 C-11.60587952 -0.27553555 -10.11443274 -0.52341583 -7.5 -0.75 C-6.7265625 -0.82734375 -5.953125 -0.9046875 -5.15625 -0.984375 C-3 -1 -3 -1 0 0 Z M-9 2 C-5 3 -5 3 -5 3 Z M-13 5 C-12.67 7.97 -12.34 10.94 -12 14 C-10.02 13.67 -8.04 13.34 -6 13 C-6 10.36 -6 7.72 -6 5 C-8.31 5 -10.62 5 -13 5 Z " fill="#323232" transform="translate(1385,682)"/>
<path d="M0 0 C0.66 0.33 1.32 0.66 2 1 C1.01 1.33 0.02 1.66 -1 2 C-1 2.66 -1 3.32 -1 4 C0.65 4.33 2.3 4.66 4 5 C1.94766315 7.2477975 0.99332739 8.0022242 -2 9 C-2.33 8.01 -2.66 7.02 -3 6 C-4.65 6 -6.3 6 -8 6 C-8 21.84 -8 37.68 -8 54 C-8.66 53.67 -9.32 53.34 -10 53 C-10.25400497 46.4171819 -10.42884147 39.83562916 -10.54931641 33.24902344 C-10.59954195 31.00993642 -10.6677401 28.77117638 -10.75439453 26.53320312 C-10.87603754 23.31037899 -10.93246586 20.09189155 -10.9765625 16.8671875 C-11.02817535 15.87008759 -11.07978821 14.87298767 -11.13296509 13.84567261 C-11.13532367 10.90872955 -11.03209271 8.75445119 -10 6 C-6.99451915 3.23866856 -3.84759918 1.36439652 0 0 Z " fill="#69DFED" transform="translate(203,863)"/>
<path d="M0 0 C0.495 0.99 0.495 0.99 1 2 C-2.12092434 3.84033976 -5.24738217 5.67106256 -8.375 7.5 C-9.26445312 8.02464844 -10.15390625 8.54929687 -11.0703125 9.08984375 C-11.92109375 9.58613281 -12.771875 10.08242188 -13.6484375 10.59375 C-14.82672119 11.28500977 -14.82672119 11.28500977 -16.02880859 11.99023438 C-18 13 -18 13 -20 13 C-20.33 14.32 -20.66 15.64 -21 17 C-21.804375 17.12375 -22.60875 17.2475 -23.4375 17.375 C-24.283125 17.58125 -25.12875 17.7875 -26 18 C-27.49288325 20.9857665 -27.18536314 23.76233776 -27.24609375 27.08984375 C-27.27902802 28.52800097 -27.31223973 29.96615187 -27.34570312 31.40429688 C-27.39314463 33.67337752 -27.43758524 35.94243172 -27.47680664 38.21166992 C-27.51651705 40.40049821 -27.56805813 42.5888035 -27.62109375 44.77734375 C-27.65867798 46.74562134 -27.65867798 46.74562134 -27.69702148 48.75366211 C-28 52 -28 52 -30 55 C-30.66 54.67 -31.32 54.34 -32 54 C-31.505 53.505 -31.505 53.505 -31 53 C-30.95122432 50.47833555 -30.9608413 47.97764988 -31 45.45703125 C-31.00115906 43.89257801 -30.99977455 42.32812121 -30.99609375 40.76367188 C-30.99168303 38.29146555 -30.99978049 35.82303747 -31.05126953 33.35131836 C-31.31100946 19.73684483 -31.31100946 19.73684483 -28.31860352 15.77246094 C-25.9541211 14.1664372 -23.63651281 13.09939251 -21 12 C-19.16463026 10.94892397 -17.34058367 9.87787097 -15.52734375 8.7890625 C-13.66596729 7.73101693 -11.80266798 6.6763473 -9.9375 5.625 C-8.97650391 5.07972656 -8.01550781 4.53445313 -7.02539062 3.97265625 C-4.68527607 2.6454271 -2.34348085 1.32127316 0 0 Z " fill="#6DEBFC" transform="translate(238,860)"/>
<path d="M0 0 C0.33 0 0.66 0 1 0 C1.33 2.31 1.66 4.62 2 7 C2.66 7 3.32 7 4 7 C3.98428955 7.95890137 3.9685791 8.91780273 3.95239258 9.90576172 C3.8981608 13.45775986 3.86367503 17.00972131 3.83520508 20.56201172 C3.82010289 22.10048574 3.79961954 23.63891661 3.77368164 25.17724609 C3.73735926 27.38650141 3.72028881 29.59518848 3.70703125 31.8046875 C3.69154739 32.49432587 3.67606354 33.18396423 3.66011047 33.89450073 C3.62462117 36.04428586 3.62462117 36.04428586 4 39 C4.99 39.66 5.98 40.32 7 41 C5.1875 41.6875 5.1875 41.6875 3 42 C1.38456726 40.76457214 1.38456726 40.76457214 0 39 C-0.26172754 35.98703764 -0.34860113 33.18519432 -0.29296875 30.17578125 C-0.28872391 29.31438034 -0.28447906 28.45297943 -0.28010559 27.56547546 C-0.26331248 24.81416569 -0.22565956 22.06358838 -0.1875 19.3125 C-0.17245396 17.4472762 -0.15876541 15.58204093 -0.14648438 13.71679688 C-0.11340693 9.14424902 -0.0616206 4.5722487 0 0 Z " fill="#313F49" transform="translate(200,873)"/>
<path d="M0 0 C0.66 0.33 1.32 0.66 2 1 C1.67 1.99 1.34 2.98 1 4 C1.33 4.99 1.66 5.98 2 7 C1.34 7 0.68 7 0 7 C0 6.34 0 5.68 0 5 C-3.47340125 6.3893605 -4.51794756 7.61245157 -6 11 C-6.66 11.66 -7.32 12.32 -8 13 C-7.67 13.99 -7.34 14.98 -7 16 C-11.38332057 15.17812739 -15.67940177 14.09845718 -20 13 C-16.6458582 9.40744306 -12.64417607 7.22164038 -8.4375 4.75 C-7.65697266 4.27820313 -6.87644531 3.80640625 -6.07226562 3.3203125 C-5.32525391 2.87945313 -4.57824219 2.43859375 -3.80859375 1.984375 C-3.12595459 1.57928711 -2.44331543 1.17419922 -1.73999023 0.75683594 C-0.87869507 0.38220215 -0.87869507 0.38220215 0 0 Z " fill="#323C45" transform="translate(262,924)"/>
<path d="M0 0 C0.99 0.33 1.98 0.66 3 1 C2.34 1 1.68 1 1 1 C1.33 6.61 1.66 12.22 2 18 C7.28 18.33 12.56 18.66 18 19 C18.33 18.34 18.66 17.68 19 17 C19.33 17.99 19.66 18.98 20 20 C18.44393249 21.55606751 16.94042629 21.12970769 14.78125 21.1328125 C13.50701172 21.13474609 13.50701172 21.13474609 12.20703125 21.13671875 C10.86705078 21.13091797 10.86705078 21.13091797 9.5 21.125 C8.60667969 21.12886719 7.71335937 21.13273438 6.79296875 21.13671875 C5.94347656 21.13542969 5.09398437 21.13414062 4.21875 21.1328125 C3.43435547 21.13168457 2.64996094 21.13055664 1.84179688 21.12939453 C0 21 0 21 -1 20 C-1.09860131 18.59651265 -1.13078937 17.18819523 -1.1328125 15.78125 C-1.13410156 14.93175781 -1.13539062 14.08226562 -1.13671875 13.20703125 C-1.13285156 12.31371094 -1.12898438 11.42039062 -1.125 10.5 C-1.12886719 9.60667969 -1.13273437 8.71335937 -1.13671875 7.79296875 C-1.13542969 6.94347656 -1.13414063 6.09398437 -1.1328125 5.21875 C-1.13168457 4.43435547 -1.13055664 3.64996094 -1.12939453 2.84179688 C-1 1 -1 1 0 0 Z " fill="#545454" transform="translate(1734,684)"/>
<path d="M0 0 C3.3 1.65 6.6 3.3 10 5 C9.34 6.32 8.68 7.64 8 9 C5.03 9 2.06 9 -1 9 C-1 8.34 -1 7.68 -1 7 C-2.32 7 -3.64 7 -5 7 C-4.67 5.68 -4.34 4.36 -4 3 C-2.68 2.67 -1.36 2.34 0 2 C0 1.34 0 0.68 0 0 Z " fill="#353735" transform="translate(251,844)"/>
<path d="M0 0 C0.33 0 0.66 0 1 0 C1.19796271 6.17453291 1.34302108 12.34721535 1.43945312 18.52416992 C1.47965263 20.62443212 1.53422399 22.72447087 1.60351562 24.82397461 C1.70072891 27.84544931 1.74595912 30.86396423 1.78125 33.88671875 C1.82254028 34.82335861 1.86383057 35.75999847 1.90637207 36.72502136 C1.90819523 39.38180769 1.82919267 41.47360277 1 44 C-1.7676276 46.72573012 -5.01757785 49 -9 49 C-7.25 44.125 -7.25 44.125 -5 43 C-5 43.66 -5 44.32 -5 45 C-4.34 45 -3.68 45 -3 45 C-3 44.34 -3 43.68 -3 43 C-2.01 43 -1.02 43 0 43 C0 28.81 0 14.62 0 0 Z " fill="#65F2FE" transform="translate(275,873)"/>
<path d="M0 0 C1.32 0.66 2.64 1.32 4 2 C2.80118526 5.59644423 1.24848957 6.49927278 -2.01171875 8.28125 C-5.17029248 9.42305268 -7.81341593 8.78038794 -11 8 C-11 7.34 -11 6.68 -11 6 C-7.77208445 3.8480563 -6.71599191 3.79913557 -3 4 C-3 3.34 -3 2.68 -3 2 C-2.01 1.34 -1.02 0.68 0 0 Z " fill="#4BFEFF" transform="translate(213,859)"/>
<path d="M0 0 C0.66 0 1.32 0 2 0 C2 1.65 2 3.3 2 5 C3.65 5 5.3 5 7 5 C7 5.99 7 6.98 7 8 C5.35 8 3.7 8 2 8 C2 9.65 2 11.3 2 13 C1.34 13 0.68 13 0 13 C-0.33 11.68 -0.66 10.36 -1 9 C-2.32 8.67 -3.64 8.34 -5 8 C-5 7.01 -5 6.02 -5 5 C-3.68 4.67 -2.36 4.34 -1 4 C-0.67 2.68 -0.34 1.36 0 0 Z " fill="#2D2D2D" transform="translate(470,656)"/>
<path d="M0 0 C4.39383706 1.59623144 8.28995807 3.78024333 12.3125 6.125 C12.95767578 6.49753906 13.60285156 6.87007812 14.26757812 7.25390625 C15.84675945 8.16632213 17.42361864 9.08275509 19 10 C16.66682784 10.77772405 14.38564077 11.42415568 12 12 C12 11.01 12 10.02 12 9 C9.42288763 7.89552327 7.0762221 7.01418086 4.3125 6.5 C2 6 2 6 0 4 C0 2.68 0 1.36 0 0 Z " fill="#343E48" transform="translate(207,925)"/>
<path d="M0 0 C0.66 0 1.32 0 2 0 C2.33 8.91 2.66 17.82 3 27 C1.35 26.67 -0.3 26.34 -2 26 C-1.67 25.34 -1.34 24.68 -1 24 C-0.01956036 21.05868109 0.11621202 19.17498335 0.09765625 16.11328125 C0.09443359 15.17548828 0.09121094 14.23769531 0.08789062 13.27148438 C0.07951172 12.29501953 0.07113281 11.31855469 0.0625 10.3125 C0.05573242 8.83040039 0.05573242 8.83040039 0.04882812 7.31835938 C0.03704303 4.87884526 0.02059011 2.43945311 0 0 Z " fill="#303030" transform="translate(201,996)"/>
<path d="M0 0 C1.18613892 0.00785522 1.18613892 0.00785522 2.39624023 0.01586914 C3.67724609 0.02070312 3.67724609 0.02070312 4.98413086 0.02563477 C5.88196289 0.03401367 6.77979492 0.04239258 7.70483398 0.05102539 C8.6065332 0.05553711 9.50823242 0.06004883 10.43725586 0.06469727 C12.67234712 0.07652315 14.90730835 0.09300319 17.14233398 0.11352539 C18.47565494 2.7801673 17.81335432 4.28032842 17.14233398 7.11352539 C16.81233398 7.11352539 16.48233398 7.11352539 16.14233398 7.11352539 C16.14233398 5.46352539 16.14233398 3.81352539 16.14233398 2.11352539 C10.86233398 2.11352539 5.58233398 2.11352539 0.14233398 2.11352539 C0.14233398 3.43352539 0.14233398 4.75352539 0.14233398 6.11352539 C-0.51766602 6.11352539 -1.17766602 6.11352539 -1.85766602 6.11352539 C-2.23985369 4.45737882 -2.57161703 2.78895515 -2.85766602 1.11352539 C-1.85766602 0.11352539 -1.85766602 0.11352539 0 0 Z " fill="#595959" transform="translate(1739.857666015625,678.886474609375)"/>
<path d="M0 0 C0.721875 0.309375 1.44375 0.61875 2.1875 0.9375 C7.62852758 2.99299931 10.49453751 3.17657819 16 1 C16 1.66 16 2.32 16 3 C15.34 3 14.68 3 14 3 C13.67 3.99 13.34 4.98 13 6 C7.06 6.495 7.06 6.495 1 7 C1 6.34 1 5.68 1 5 C0.34 4.67 -0.32 4.34 -1 4 C-0.67 2.68 -0.34 1.36 0 0 Z " fill="#323D42" transform="translate(226,936)"/>
<path d="M0 0 C8.19384577 3.96617003 16.33618356 8.06743729 24 13 C24 13.33 24 13.66 24 14 C20.74621576 14.37186106 19.37626008 14.27456817 16.6875 12.3125 C15.3571875 11.1678125 15.3571875 11.1678125 14 10 C12.66412671 9.05687345 11.30856558 8.14119263 9.9375 7.25 C9.28652344 6.82203125 8.63554687 6.3940625 7.96484375 5.953125 C5.76415024 4.70903397 5.76415024 4.70903397 2 5 C2 4.01 2 3.02 2 2 C1.01 2.33 0.02 2.66 -1 3 C-0.67 2.01 -0.34 1.02 0 0 Z " fill="#6FF2FC" transform="translate(234,845)"/>
<path d="M0 0 C1.65 0 3.3 0 5 0 C4.2733313 0.49657104 4.2733313 0.49657104 3.53198242 1.00317383 C1.19843777 4.04477729 1.51968878 7.26236074 1.48828125 10.94921875 C1.46135445 12.10814384 1.46135445 12.10814384 1.43388367 13.29048157 C1.37973896 15.756099 1.34587269 18.22152243 1.3125 20.6875 C1.27933048 22.36005306 1.24484115 24.03258051 1.20898438 25.70507812 C1.12401051 29.8032455 1.0572198 33.90135494 1 38 C0.67 38 0.34 38 0 38 C0 25.46 0 12.92 0 0 Z " fill="#30434F" transform="translate(207,875)"/>
<path d="M0 0 C0.66 0.33 1.32 0.66 2 1 C1.505 1.391875 1.01 1.78375 0.5 2.1875 C-1.45593143 4.55091715 -1.24207973 6.01435003 -1 9 C-0.34 9.33 0.32 9.66 1 10 C0.01 10.33 -0.98 10.66 -2 11 C-2.66 10.67 -3.32 10.34 -4 10 C-4 9.34 -4 8.68 -4 8 C-5.32 7.34 -6.64 6.68 -8 6 C-5.63404067 3.38499232 -3.13950774 1.61000397 0 0 Z " fill="#324453" transform="translate(214,864)"/>
<path d="M0 0 C0.625 2.375 0.625 2.375 1 5 C0.34 5.66 -0.32 6.32 -1 7 C-1.33 5.35 -1.66 3.7 -2 2 C-5.65316671 3.24976756 -6.78065836 3.67098753 -9 7 C-10.32 6.01 -11.64 5.02 -13 4 C-11.59248779 3.13083113 -10.1735479 2.28014851 -8.75 1.4375 C-7.96109375 0.96183594 -7.1721875 0.48617187 -6.359375 -0.00390625 C-3.69155375 -1.13022151 -2.65498232 -1.0169313 0 0 Z " fill="#334959" transform="translate(238,854)"/>
<path d="M0 0 C2.475 0.99 2.475 0.99 5 2 C4.34 3.65 3.68 5.3 3 7 C1.68 7 0.36 7 -1 7 C-1 6.34 -1 5.68 -1 5 C-2.32 5 -3.64 5 -5 5 C-5.33 4.01 -5.66 3.02 -6 2 C-3.525 2.495 -3.525 2.495 -1 3 C-0.67 2.01 -0.34 1.02 0 0 Z " fill="#373734" transform="translate(261,852)"/>
<path d="M0 0 C0.33 0.66 0.66 1.32 1 2 C2.32 1.34 3.64 0.68 5 0 C5.33 0.99 5.66 1.98 6 3 C5.67 3.66 5.34 4.32 5 5 C4.29875 4.9175 3.5975 4.835 2.875 4.75 C-0.92949327 5.0808255 -2.98077266 6.75313314 -6 9 C-6.66 8.67 -7.32 8.34 -8 8 C-7.67 7.34 -7.34 6.68 -7 6 C-7 5.34 -7 4.68 -7 4 C-5.35 4 -3.7 4 -2 4 C-1.34 2.68 -0.68 1.36 0 0 Z " fill="#3C3C3C" transform="translate(268,799)"/>
<path d="M0 0 C1.32 0 2.64 0 4 0 C4 0.66 4 1.32 4 2 C5.051875 2.103125 6.10375 2.20625 7.1875 2.3125 C10.89784302 2.98157825 13.05852127 3.6824713 16 6 C16 6.99 16 7.98 16 9 C12.20950293 7.57250019 8.72877544 5.83763458 5.1875 3.875 C4.21167969 3.33617187 3.23585938 2.79734375 2.23046875 2.2421875 C1.49441406 1.83226562 0.75835937 1.42234375 0 1 C0 0.67 0 0.34 0 0 Z " fill="#31475C" transform="translate(256,857)"/>
<path d="M0 0 C-6.93 3.96 -13.86 7.92 -21 12 C-21 11.01 -21 10.02 -21 9 C-20.030625 8.731875 -19.06125 8.46375 -18.0625 8.1875 C-17.051875 7.795625 -16.04125 7.40375 -15 7 C-14.67 6.01 -14.34 5.02 -14 4 C-12.02 3.67 -10.04 3.34 -8 3 C-8 2.34 -8 1.68 -8 1 C-3.375 -1.125 -3.375 -1.125 0 0 Z " fill="#314B62" transform="translate(224,852)"/>
<path d="M0 0 C1.32 0 2.64 0 4 0 C4 0.66 4 1.32 4 2 C5.98 2 7.96 2 10 2 C10 2.99 10 3.98 10 5 C11.65 5 13.3 5 15 5 C15.33 6.32 15.66 7.64 16 9 C10.0942118 7.44584521 5.02261107 4.40465533 0 1 C0 0.67 0 0.34 0 0 Z " fill="#6DF6FD" transform="translate(214,928)"/>
<path d="M0 0 C1 2 1 2 0.0625 5.125 C-0.288125 6.07375 -0.63875 7.0225 -1 8 C-1.99 8 -2.98 8 -4 8 C-4.33 8.99 -4.66 9.98 -5 11 C-6.32 11 -7.64 11 -9 11 C-7.49770909 7.17598678 -5.1988409 5.4791017 -2 3 C-1.34 2.01 -0.68 1.02 0 0 Z M-3 5 C-2 7 -2 7 -2 7 Z " fill="#535353" transform="translate(1599,885)"/>
<path d="M0 0 C-1.625 2 -1.625 2 -4 4 C-7.25 4.25 -7.25 4.25 -10 4 C-10.66 2.68 -11.32 1.36 -12 0 C-10.56359829 -0.19573608 -9.12580496 -0.38127816 -7.6875 -0.5625 C-6.88699219 -0.66691406 -6.08648438 -0.77132812 -5.26171875 -0.87890625 C-3 -1 -3 -1 0 0 Z " fill="#535353" transform="translate(1596,888)"/>
<path d="M0 0 C0.33 0 0.66 0 1 0 C1 4.95 1 9.9 1 15 C1.66 15 2.32 15 3 15 C3 15.66 3 16.32 3 17 C4.65 17.33 6.3 17.66 8 18 C5.60077336 18.85686666 4.36424711 19.11914625 1.91015625 18.31640625 C0 17 0 17 -0.64453125 14.86328125 C-0.98369307 9.71275407 -0.99273172 5.0739621 0 0 Z " fill="#5AF9FD" transform="translate(198,897)"/>
<path d="M0 0 C1.32 0 2.64 0 4 0 C4 0.66 4 1.32 4 2 C7.3 2 10.6 2 14 2 C14 2.99 14 3.98 14 5 C13.67 4.34 13.34 3.68 13 3 C12.01 3.33 11.02 3.66 10 4 C10 4.66 10 5.32 10 6 C6.40992874 4.66654496 3.20429093 3.1056769 0 1 C0 0.67 0 0.34 0 0 Z " fill="#31484F" transform="translate(246,851)"/>
<path d="M0 0 C0.33 0.99 0.66 1.98 1 3 C1.66 3.33 2.32 3.66 3 4 C3 4.66 3 5.32 3 6 C1.3125 7.1875 1.3125 7.1875 -1 8 C-3.85578718 6.67172689 -5.57321971 5.85356058 -7 3 C-4.525 3.99 -4.525 3.99 -2 5 C-1.855625 4.360625 -1.71125 3.72125 -1.5625 3.0625 C-1 1 -1 1 0 0 Z " fill="#3C3C3C" transform="translate(304,750)"/>
<path d="M0 0 C-5.94 3.465 -5.94 3.465 -12 7 C-12.66 6.01 -13.32 5.02 -14 4 C-12.68 4 -11.36 4 -10 4 C-10 3.34 -10 2.68 -10 2 C-9.01 2 -8.02 2 -7 2 C-7 1.34 -7 0.68 -7 0 C-3.98968256 -0.93423645 -3.13349732 -1.04449911 0 0 Z " fill="#6BF5FC" transform="translate(259,927)"/>
<path d="M0 0 C6.93 3.96 6.93 3.96 14 8 C10 9 10 9 7.75 8.0625 C6.88375 7.5365625 6.88375 7.5365625 6 7 C6 6.34 6 5.68 6 5 C4.35 4.67 2.7 4.34 1 4 C0.67 2.68 0.34 1.36 0 0 Z " fill="#324655" transform="translate(193,916)"/>
<path d="M0 0 C1.65 0.33 3.3 0.66 5 1 C5 1.66 5 2.32 5 3 C5.9590625 3.1546875 5.9590625 3.1546875 6.9375 3.3125 C7.618125 3.539375 8.29875 3.76625 9 4 C9.33 4.99 9.66 5.98 10 7 C6.2089881 5.55049545 2.6125362 3.84827434 -1 2 C-0.67 1.34 -0.34 0.68 0 0 Z " fill="#324450" transform="translate(236,844)"/>
<path d="M0 0 C4.30764815 1.56641751 8.06171464 3.68336156 12 6 C9.66682784 6.77772405 7.38564077 7.42415568 5 8 C5 7.01 5 6.02 5 5 C3.68 4.67 2.36 4.34 1 4 C0.67 2.68 0.34 1.36 0 0 Z " fill="#314551" transform="translate(214,929)"/>
<path d="M0 0 C5.00028314 1.34153938 9.19067503 3.48370003 13 7 C13 7.66 13 8.32 13 9 C12.34 9 11.68 9 11 9 C10.67 8.34 10.34 7.68 10 7 C9.01 6.67 8.02 6.34 7 6 C6.01 5.67 5.02 5.34 4 5 C3.67 4.34 3.34 3.68 3 3 C2.01 2.67 1.02 2.34 0 2 C0 1.34 0 0.68 0 0 Z " fill="#60ECFB" transform="translate(261,861)"/>
<path d="M0 0 C0.99 0.33 1.98 0.66 3 1 C2.39816251 3.02045442 1.72693904 5.02111039 1 7 C0.01 7.495 0.01 7.495 -1 8 C-3.625 6.625 -3.625 6.625 -6 5 C-6 4.67 -6 4.34 -6 4 C-4.02 4 -2.04 4 0 4 C0 2.68 0 1.36 0 0 Z " fill="#364049" transform="translate(278,862)"/>
<path d="M0 0 C-1.38481328 0.87191947 -2.78345246 1.72190384 -4.1875 2.5625 C-4.96480469 3.03816406 -5.74210938 3.51382813 -6.54296875 4.00390625 C-9.51289644 5.20793099 -10.99779973 5.03184431 -14 4 C-14.33 3.34 -14.66 2.68 -15 2 C-12.69 2.33 -10.38 2.66 -8 3 C-8 2.34 -8 1.68 -8 1 C-4.85571151 -0.9090323 -3.47925125 -1.04523725 0 0 Z " fill="#6EF3FD" transform="translate(245,935)"/>
<path d="M0 0 C1.485 0.99 1.485 0.99 3 2 C5.32387947 2.39387788 7.65793749 2.73486085 10 3 C8.35 4.32 6.7 5.64 5 7 C4.67 6.34 4.34 5.68 4 5 C2.35 5 0.7 5 -1 5 C-0.34 4.67 0.32 4.34 1 4 C0.67 2.68 0.34 1.36 0 0 Z " fill="#34414A" transform="translate(191,861)"/>
<path d="M0 0 C0.66 0.33 1.32 0.66 2 1 C1.67 1.99 1.34 2.98 1 4 C1.33 4.99 1.66 5.98 2 7 C1.34 7 0.68 7 0 7 C0 6.34 0 5.68 0 5 C-2.31 5.66 -4.62 6.32 -7 7 C-7.33 6.34 -7.66 5.68 -8 5 C-6.71475739 4.13619741 -5.42157581 3.28419631 -4.125 2.4375 C-3.04605469 1.72400391 -3.04605469 1.72400391 -1.9453125 0.99609375 C-1.30335938 0.66738281 -0.66140625 0.33867188 0 0 Z " fill="#334454" transform="translate(262,924)"/>
<path d="M0 0 C2.31 0.33 4.62 0.66 7 1 C7.33 1.99 7.66 2.98 8 4 C8.99 4 9.98 4 11 4 C11.33 4.99 11.66 5.98 12 7 C7.69235185 5.43358249 3.93828536 3.31663844 0 1 C0 0.67 0 0.34 0 0 Z " fill="#71F6FC" transform="translate(195,917)"/>
<path d="M0 0 C0.33 1.32 0.66 2.64 1 4 C-1.97 4.66 -4.94 5.32 -8 6 C-5.95924317 1.91848635 -4.67573405 0 0 0 Z " fill="#47FEFF" transform="translate(225,853)"/>
<path d="M0 0 C3.04834217 1.52417109 3.62919424 3.96038723 5 7 C5.6875 9.375 5.6875 9.375 6 11 C5.01 11.66 4.02 12.32 3 13 C2.49487756 11.39743892 1.99608373 9.79288208 1.5 8.1875 C1.2215625 7.29417969 0.943125 6.40085937 0.65625 5.48046875 C0 3 0 3 0 0 Z " fill="#565656" transform="translate(1543,641)"/>
<path d="M0 0 C1.32 0.66 2.64 1.32 4 2 C3.67 2.66 3.34 3.32 3 4 C0.6859378 4.73075648 -1.64828869 5.40138258 -4 6 C-4.33 5.34 -4.66 4.68 -5 4 C-4.34 4 -3.68 4 -3 4 C-3 3.34 -3 2.68 -3 2 C-2.01 1.34 -1.02 0.68 0 0 Z " fill="#47FEFF" transform="translate(213,859)"/>
<path d="M0 0 C3.82946843 1.45255699 5.12050295 3.42895561 7 7 C3 7 3 7 1.3125 5.6875 C0 4 0 4 -1 1 C-0.67 0.67 -0.34 0.34 0 0 Z " fill="#575757" transform="translate(1642,725)"/>
<path d="M0 0 C0 0.66 0 1.32 0 2 C-0.66 2 -1.32 2 -2 2 C-2.33 2.99 -2.66 3.98 -3 5 C-8.75 5.125 -8.75 5.125 -11 4 C-11 3.34 -11 2.68 -11 2 C-9.88625 1.855625 -8.7725 1.71125 -7.625 1.5625 C-4.88109566 1.13672174 -2.67649104 0 0 0 Z " fill="#324454" transform="translate(242,937)"/>
<path d="M0 0 C0.99 0.66 1.98 1.32 3 2 C2.34 2.66 1.68 3.32 1 4 C1.33 4.99 1.66 5.98 2 7 C-1.68754757 6.50168276 -3.60490662 5.89932357 -6 3 C-5.195625 2.87625 -4.39125 2.7525 -3.5625 2.625 C-2.716875 2.41875 -1.87125 2.2125 -1 2 C-0.67 1.34 -0.34 0.68 0 0 Z " fill="#3B3B3E" transform="translate(253,933)"/>
<path d="M0 0 C0 2.31 0 4.62 0 7 C-2 4 -2 4 -2 2 C-3.98 2 -5.96 2 -8 2 C-8 1.34 -8 0.68 -8 0 C-4.71023192 -1.09658936 -3.28696233 -0.79953138 0 0 Z " fill="#69F8FD" transform="translate(240,852)"/>
<path d="M0 0 C-4.95 2.475 -4.95 2.475 -10 5 C-10 4.34 -10 3.68 -10 3 C-9.34 3 -8.68 3 -8 3 C-7.67 1.68 -7.34 0.36 -7 -1 C-3.51418144 -2.2020064 -3.32007656 -2.21338437 0 0 Z " fill="#324552" transform="translate(233,864)"/>
<path d="M0 0 C1.60875 0.3403125 1.60875 0.3403125 3.25 0.6875 C3.25 1.3475 3.25 2.0075 3.25 2.6875 C-0.38 2.6875 -4.01 2.6875 -7.75 2.6875 C-3.75 -0.3125 -3.75 -0.3125 0 0 Z " fill="#606060" transform="translate(1574.75,651.3125)"/>
<path d="M0 0 C0.66 0.33 1.32 0.66 2 1 C1.505 1.391875 1.01 1.78375 0.5 2.1875 C-1.45593143 4.55091715 -1.24207973 6.01435003 -1 9 C-1.66 9 -2.32 9 -3 9 C-3 8.01 -3 7.02 -3 6 C-3.99 5.67 -4.98 5.34 -6 5 C-5.01 5 -4.02 5 -3 5 C-3 4.01 -3 3.02 -3 2 C-2.01 1.34 -1.02 0.68 0 0 Z " fill="#333F47" transform="translate(214,864)"/>
<path d="M0 0 C2.64 0.33 5.28 0.66 8 1 C7.67 1.99 7.34 2.98 7 4 C6.01 4.33 5.02 4.66 4 5 C3.67 5.66 3.34 6.32 3 7 C2.34 6.67 1.68 6.34 1 6 C1.33 5.01 1.66 4.02 2 3 C1.34 2.67 0.68 2.34 0 2 C0 1.34 0 0.68 0 0 Z " fill="#515151" transform="translate(1617,720)"/>
<path d="M0 0 C1.32 0.66 2.64 1.32 4 2 C3.34 3.32 2.68 4.64 2 6 C0.68 5.34 -0.64 4.68 -2 4 C-1.34 2.68 -0.68 1.36 0 0 Z " fill="#3C3C3C" transform="translate(259,930)"/>
<path d="M0 0 C0.33 0 0.66 0 1 0 C1 4.62 1 9.24 1 14 C0.01 13.67 -0.98 13.34 -2 13 C-1.34 8.71 -0.68 4.42 0 0 Z " fill="#4F4F4F" transform="translate(1764,886)"/>
<path d="M0 0 C0.99 0 1.98 0 3 0 C3 1.65 3 3.3 3 5 C3.66 5 4.32 5 5 5 C5 5.66 5 6.32 5 7 C1.125 6.125 1.125 6.125 0 5 C-0.04063832 3.33382885 -0.042721 1.66611905 0 0 Z " fill="#595959" transform="translate(1737,694)"/>
<path d="M0 0 C3.3 1.65 6.6 3.3 10 5 C10 5.33 10 5.66 10 6 C6.47730515 6.4025937 5.20059192 6.13372795 2.1875 4.125 C1.465625 3.42375 0.74375 2.7225 0 2 C0 1.34 0 0.68 0 0 Z " fill="#5AE5F9" transform="translate(248,853)"/>
<path d="M0 0 C-0.375 1.9375 -0.375 1.9375 -1 4 C-1.99 4.495 -1.99 4.495 -3 5 C-5.125 4.0625 -5.125 4.0625 -7 3 C-4.49955934 -0.00052879 -4.2621484 0 0 0 Z " fill="#333333" transform="translate(268,799)"/>
<path d="M0 0 C-5.2734375 3.22265625 -5.2734375 3.22265625 -7 4 C-7.66 3.67 -8.32 3.34 -9 3 C-7 0 -7 0 -5.0625 -0.75 C-3 -1 -3 -1 0 0 Z " fill="#6EF4FB" transform="translate(216,864)"/>
<path d="M0 0 C0.33 0.66 0.66 1.32 1 2 C0.01 2.99 -0.98 3.98 -2 5 C-2.99 4.34 -3.98 3.68 -5 3 C-5 2.34 -5 1.68 -5 1 C-3.35 0.67 -1.7 0.34 0 0 Z " fill="#333733" transform="translate(225,863)"/>
<path d="M0 0 C0.6875 1.6875 0.6875 1.6875 1 4 C-0.4375 6.75 -0.4375 6.75 -2 9 C-2.66 8.34 -3.32 7.68 -4 7 C-3.67 6.01 -3.34 5.02 -3 4 C-2.34 4 -1.68 4 -1 4 C-0.67 2.68 -0.34 1.36 0 0 Z " fill="#575757" transform="translate(1720,790)"/>
<path d="" fill="#000000" transform="translate(0,0)"/>
<path d="" fill="#000000" transform="translate(0,0)"/>
<path d="" fill="#808080" transform="translate(0,0)"/>
<path d="" fill="#000000" transform="translate(0,0)"/>
<path d="" fill="#808080" transform="translate(0,0)"/>
<path d="" fill="#404040" transform="translate(0,0)"/>
<path d="" fill="#6D6D6D" transform="translate(0,0)"/>
<path d="" fill="#000000" transform="translate(0,0)"/>
<path d="" fill="#808080" transform="translate(0,0)"/>
<path d="" fill="#000000" transform="translate(0,0)"/>
<path d="" fill="#808080" transform="translate(0,0)"/>
<path d="" fill="#000000" transform="translate(0,0)"/>
<path d="" fill="#000000" transform="translate(0,0)"/>
</svg>
